<svg id="b182260e-ad3c-4f8c-9d2d-8968a3d6c349" data-name="Layer 1" xmlns="http://www.w3.org/2000/svg" viewBox="0 0 1601.41 1079.86"><defs><style>.a6d4bdc5-35a0-4628-b3b0-0f0c78bb88a7{fill:#111;}.ad374c4c-b7dd-4224-962d-78bc847b8c76{fill:#323131;}.e0257e79-7208-4a37-ab66-bbdc96e7244e{font-size:112px;fill:#3a3a3a;font-family:Calibri-Bold, Calibri;font-weight:700;}.b6350a26-1d92-4fdb-ba33-0611ce11f708{letter-spacing:-0.01em;}</style></defs><title>Artboard 1</title><path class="a6d4bdc5-35a0-4628-b3b0-0f0c78bb88a7" d="M800.29,1080.84q-398.23,0-796.46.1c-3.13,0-3.83-.85-3.83-4.6Q.12,540.93,0,5.52C0,1.77.7.93,3.83.93q796.88.13,1593.75,0c3.12,0,3.83.84,3.83,4.59q-.14,535.41,0,1070.82c0,3.75-.7,4.6-3.83,4.6Q1198.93,1080.79,800.29,1080.84Z"/><path class="ad374c4c-b7dd-4224-962d-78bc847b8c76" d="M1101.63,324.49c-1.94,13.71-4.2,29.54-6.43,45.38Q1086,435.43,1076.69,501a37.9,37.9,0,0,0,.44,12.88q4.9,24.76,9.54,49.58c2.59,13.8-4.08,25-17.46,28.9-4.2,1.21-6,3.49-6.52,7.62-1.63,12.39-3.45,24.75-5.23,37.12-2.48,17.27-12.26,24.62-29.53,22.19q-83.88-11.82-167.76-23.7a56.5,56.5,0,0,0-18.85.72Q721.56,659.39,601.8,682.4c-1.64.32-3.27.66-4.91.94-16,2.71-27.18-4.92-30.29-20.81-5.05-25.83-10-51.69-15-77.54q-24.46-126.87-48.92-253.73c-3.33-17.27,4.36-28.38,21.78-31.72,25.69-4.93,51.35-10,77.08-14.72,5.34-1,7.77-3.3,8.26-8.68.59-6.63,1.72-13.22,2.82-19.79C615,242.8,625.1,235,638.75,236.84q57.94,7.88,115.82,16.22a44.34,44.34,0,0,0,14.85-.49q111.17-21.43,222.35-42.76c10-1.94,18.44.27,25.26,8.06,3.08,3.52,4.51,7.72,5.37,12.19,3.44,17.66,6.92,35.32,10.26,53,1.77,9.35,1.66,9.38,11.23,10.72,12.7,1.78,25.43,3.41,38.11,5.33C1094.28,301,1101.81,310,1101.63,324.49Z"/><path class="a6d4bdc5-35a0-4628-b3b0-0f0c78bb88a7" d="M1016.61,612.34q-33.4-4.73-66.82-9.47Q783.73,579.48,617.65,556.1c-7.15-1-7.5-1.5-6.49-8.61q17.6-124.23,35.2-248.46c.7-4.95,1.52-9.89,2-14.86.43-4.7,2.47-6.18,7.24-5.48,25.39,3.74,50.81,7.22,76.22,10.8L1053,334.78c6.78,1,7.22,1.44,6.25,8.26q-11.55,81.4-23.09,162.83-7.08,50-14.07,100C1021.68,609,1021.91,613.09,1016.61,612.34Z"/><path class="a6d4bdc5-35a0-4628-b3b0-0f0c78bb88a7" d="M577.71,496.66c-3.67-18.87-7.09-36.34-10.45-53.82q-9.16-47.59-18.29-95.2c-1.75-9.08-1.41-9.6,7.44-11.28q18.9-3.57,37.79-7.2c7.71-1.48,8.28-1,7.2,6.61q-10.59,74.7-21.23,149.39C579.68,488.57,579.9,492.13,577.71,496.66Z"/><path class="a6d4bdc5-35a0-4628-b3b0-0f0c78bb88a7" d="M701.13,614.19c-16.67,3.23-32.32,6.28-48,9.3q-21.31,4.11-42.65,8.16c-5.87,1.11-6.57.66-7.75-5.21-1.48-7.34-2.83-14.71-4.25-22.06-.7-3.63.46-5.46,4.46-4.9q48.16,6.81,96.35,13.58C699.62,613.1,699.87,613.39,701.13,614.19Z"/><path class="a6d4bdc5-35a0-4628-b3b0-0f0c78bb88a7" d="M894.2,272.69c2.8-2.16,5-2.11,7.11-2.51q38-7.38,76.08-14.64c6.22-1.19,6.72-.86,8,5.45,1.3,6.54,2.5,13.09,3.71,19.65.62,3.35-.53,5.28-4.24,4.76C955,281.23,925.16,277,894.2,272.69Z"/><path class="ad374c4c-b7dd-4224-962d-78bc847b8c76" d="M990.73,578.72c.39,4.21-2.27,4-5.19,3.68q-31.47-4-63-8L656.35,540.9c-5.12-.64-10.24-1.31-15.36-2-3.3-.44-3.64-1.95-1.43-4.22,3.61-3.69,7.27-7.33,10.93-11,19.43-19.44,38.94-38.8,58.24-58.38,3.51-3.55,6.36-4.08,10.84-1.64,21.35,11.62,42.87,22.95,64.37,34.31,6.57,3.48,7.42,3.33,12.33-2.25q38.65-43.85,77.19-87.78c6.91-7.89,7.48-7.94,12.33,1.28Q906,447.5,926.11,485.73c2.55,4.83,3.19,4.93,7.14,1.12,10.42-10.06,20.87-20.1,31.23-30.23,2.82-2.76,4.37-2.58,5.09,1.51q10.47,59.55,21,119.1C990.64,577.72,990.68,578.22,990.73,578.72Z"/><path class="ad374c4c-b7dd-4224-962d-78bc847b8c76" d="M739.54,411c-22.92,0-41.59-18.35-41.74-40.95a41.94,41.94,0,0,1,83.88-.49C781.64,393,763.25,411,739.54,411Z"/><text class="e0257e79-7208-4a37-ab66-bbdc96e7244e" transform="translate(438.07 853.14)">Ima<tspan class="b6350a26-1d92-4fdb-ba33-0611ce11f708" x="176.26" y="0">g</tspan><tspan x="228.16" y="0">e Loading...</tspan></text></svg>