<svg xmlns="http://www.w3.org/2000/svg" viewBox="0 0 232.22 204.85"><defs><style>.a46c03eb-11d8-4b48-b24f-7e1789fec289{fill:#d5d6d5;}.f83f46eb-6f24-4996-80b7-5938d7d11eff{fill:#a0a0a0;}.a33f4064-6333-4ea1-9383-7b8d722cc053{fill:#c1c0c0;}.f5e98df8-28f2-48f6-9b1f-9da20d596cc0{fill:#c8c8c8;}.f8b59c9d-8180-4cc8-a425-15c696e9dbfb{fill:#f3f4f5;}.ef3a1046-e9af-4693-958d-bafa85074222{fill:#b4b4b5;}.e6bc4d0c-782c-45e2-94ba-baba52ee0ec2{fill:#999;}.b6ca3e58-3a04-4606-a10c-7953855d5d5a{fill:#f5f3df;}.b4bf140f-063f-4429-a4de-8411fe20c1cb{fill:#4b515d;}.f6967412-ff8a-47b9-aeb6-65342efc7bc5{fill:#353232;}.acb891aa-37aa-404f-9c33-94c38f1b6939{fill:#d7d7d7;}.af24bf01-e3ec-49d4-b453-7903e3e543ee{fill:#2b2f34;}.f704638a-efcd-4680-bd08-748743379fd8{fill:#d34c38;}.b7fa0a92-058b-4a0b-9541-2a32d649da17{fill:#b2b2b2;}.b5ef217c-099a-4a46-88bd-4d6e7dee99f0{fill:#d9d7c3;}.bd3338cf-d20e-4878-9ab3-5d41de45aa5c{fill:#9e8b76;}.bfe62aa4-61b0-46ea-9bd8-f6bb13c30286{fill:#e5e5e4;}.ff61fccd-9ea9-4173-8c47-f096264b9e93{fill:#c6c5c5;}.fcfded2e-fade-453b-9f74-afc61ea9120c{fill:#e2e2e2;}.ac268a8f-ca5e-40f2-970e-35e5f3670b37{fill:#e5e4cf;}.fe7399df-aab2-4484-a1d2-630047eaa96e{fill:#ae9b84;}.f1242dc7-198d-4b7c-8766-16e568e79830{fill:#b6b6b6;}.f71bf174-2c57-43c6-9b4e-49f9587724a5{font-size:115px;}.f71bf174-2c57-43c6-9b4e-49f9587724a5,.f75b4efe-0348-44ad-9840-6223d8fa1e8b{fill:#595959;font-family:Calibri-Bold, Calibri;font-weight:700;}.f75b4efe-0348-44ad-9840-6223d8fa1e8b{font-size:24px;}.aebfdd1b-f376-4e86-bf9b-422df84592c4{letter-spacing:-0.01em;}.e5fe6994-22b1-4fcb-9102-19d8310ad5be{letter-spacing:-0.02em;}.ba962f61-f50a-445e-b644-1d6a596e2f0a{opacity:0.4;}</style></defs><title>Artboard 1</title><g id="f9edaa86-c171-4fc5-8306-d54ce493114e" data-name="Backing"><path class="a46c03eb-11d8-4b48-b24f-7e1789fec289" d="M210.83,140.85a35.7,35.7,0,0,0,4-.19c6.21-.67,5.83-10.12-.41-10.13a7.36,7.36,0,0,0-1.16.1c-.41.07-.6-.2-.91-.13v1.17c.46.1,1,0,1.4.26a1.64,1.64,0,0,1-.69,3,19.46,19.46,0,0,1-2.16,0H133.05c-.65,0-1.07,0-1.31.81a1.89,1.89,0,0,1-1.88,1.26c-8,0-16.06.13-24.09-.07l-1.21,0a1.39,1.39,0,0,1-1.58-1l-.09-.25a1.52,1.52,0,0,0-1.52-.8q-38.13,0-76.25,0h-2c-1.23,0-2-.61-2-1.6s.63-1.65,1.72-1.68a2,2,0,0,0,.35-.05l.07-.69,0-.47h-.13c-1.52,0-3,0-4.56,0a7.16,7.16,0,0,0-3.26.89,4.58,4.58,0,0,0-2.75,4.35,5,5,0,0,0,3.59,4.57,13,13,0,0,0,3.73.5q8.28,0,16.56,0a8.34,8.34,0,0,1,2.12.29,3.45,3.45,0,0,1,2.23,1.72,3.07,3.07,0,0,1-.31,3.32,4.58,4.58,0,0,1-3.44,1.65,60.37,60.37,0,0,1-8.61.22,5,5,0,0,0-5,3.1,4.9,4.9,0,0,0,0,4.07A5,5,0,0,0,28,157.9q36.71-.08,73.42,0a2.93,2.93,0,0,1,1.07,0c.76.33,1.81.16,2.23,1.07a1.81,1.81,0,0,1-1.56,2.48,11.66,11.66,0,0,0-2.34.45c-1.21.34-2.07,1.3-2,2.21a2.34,2.34,0,0,0,2.47,1.93c14.44,0,28.88,0,43.31,0a2,2,0,0,0,2-2.52c-.18-1.31-1.89-2.26-3.65-2a44.09,44.09,0,0,1-9.54-.06,1.75,1.75,0,0,1-1.5-1.28,1.28,1.28,0,0,1,.82-1.65,7.18,7.18,0,0,1,2.47-.68q15.24.07,30.47,0a10.2,10.2,0,0,0,3.49-.4,4.2,4.2,0,0,0,2.74-2.56c.36-1,.19-1.49-.25-1.87a2.76,2.76,0,0,1,1.67-5l29.63.19a2.76,2.76,0,0,0,2.77-2.59h0C205.76,139.85,208.13,140.86,210.83,140.85Z"/><path class="f83f46eb-6f24-4996-80b7-5938d7d11eff" d="M109,153.53q-27.78,0-55.56,0A3.75,3.75,0,0,1,50,151.31,4.32,4.32,0,0,1,50,148a3.73,3.73,0,0,1,3.79-2.55,42.89,42.89,0,0,0,6.51-.19,3.32,3.32,0,0,0,2.6-1.36,2.71,2.71,0,0,0,.24-2.73,2.68,2.68,0,0,0-1.69-1.43,6.12,6.12,0,0,0-1.6-.23q-6.27,0-12.53,0a9,9,0,0,1-2.83-.42,4.07,4.07,0,0,1-2.71-3.76,3.81,3.81,0,0,1,2.08-3.59,5.19,5.19,0,0,1,2.47-.73h3.54v.39l-.05.57a2.51,2.51,0,0,1-.27,0,1.21,1.21,0,0,0-1.3,1.38c0,.82.56,1.3,1.49,1.32.52,0,1,0,1.54,0q28.86,0,57.7,0a1.13,1.13,0,0,1,1.15.67l.07.2a1,1,0,0,0,1.19.78l.92,0c6.07.16,12.15.05,18.23.05a1.43,1.43,0,0,0,1.42-1c.18-.64.5-.67,1-.67h58.9a12.79,12.79,0,0,0,1.64,0,1.21,1.21,0,0,0,1.07-1,1.34,1.34,0,0,0-.55-1.45c-.33-.22-.71-.13-1.06-.21v-1c.24-.05.38.16.69.11a5.14,5.14,0,0,1,.88-.08c4.72,0,5,7.8.31,8.35a25.62,25.62,0,0,1-3,.15c-2,0-3.84-.82-3.84,4h0a2.16,2.16,0,0,1-2.09,2.13l-22.42-.16c-2,0-2.79,2.67-1.26,4.09.33.31.46.76.19,1.54a3.33,3.33,0,0,1-2.08,2.11,7.06,7.06,0,0,1-2.64.33c-7.68,0-15.37,0-23,0Z"/><path class="a33f4064-6333-4ea1-9383-7b8d722cc053" d="M212.35,130.5v1.17c-.76,0-1.51.07-2.27.05-9.24-.21-18.5.47-27.73-.37a1.76,1.76,0,0,0-.57.14,11.36,11.36,0,0,0-3.08-.2,1.1,1.1,0,0,0-1.21-.2c-2.74-.49-5.53-.66-8.29-.9-4.55-.39-9.1-1-13.7-.95-6.93,0-13.85-.15-20.67,1.42-.29-.13-.46,0-.58.26l-1.1.15a.34.34,0,0,0-.49.2,2.11,2.11,0,0,0-1.18.26l-2.28.25a7.38,7.38,0,0,1-.66-1.11c-.86-2.3-2.69-3.78-4.47-5.3-.45-.39-1.25-.26-1.52-1a1.68,1.68,0,0,1,.9-1.64,1.77,1.77,0,0,0,1-1.6h0a1.05,1.05,0,0,0,1.2-1l.48-.72c.35,0,.69,0,.72-.48a.54.54,0,0,1,.47-.24.46.46,0,0,0,.5-.47,1.44,1.44,0,0,0,.73-.36,40.37,40.37,0,0,1,12.13-5.34c1.5-.37,3.08-.52,4.54-.92a21.44,21.44,0,0,1,4.94-.72,76.39,76.39,0,0,1,11.41.23c3.13.37,6.29.62,9.41,1.11,2.9.45,5.82.81,8.67,1.5a47.49,47.49,0,0,0,6.46,1.14h0c.18.75.78.38,1.22.46,1-.12,1.86.39,2.8.46,1.9.14,3.77.58,5.63.9,3.26.54,6.57.79,9.8,1.53a4.29,4.29,0,0,0,1.45,1.91h0c0,.51-.06,1,.68,1a2.56,2.56,0,0,0,1.13,1.82c.93.67,1.24,1.9,1.8,2.89a20.81,20.81,0,0,1,1.17,2.93l-4.05,0c-.12-.56-.58-.44-1-.44-3.7,0-7.41,0-11.11,0-.26,0-.66-.18-.78.45,4-.13,7.9.77,11.87.5,1.7.12,3.41-.24,5.09.24A1.88,1.88,0,0,1,212.35,130.5Zm-75.62-13.42h0l1.65-.06c.31,0,.46-.13.54-.4a7.37,7.37,0,0,0,2.23-.35,33.92,33.92,0,0,1,6.45-1.34c3.65-.53,7.33-.26,11-.25a28.65,28.65,0,0,1,4.63.4c2.56.42,5.16.62,7.7,1.22a59.15,59.15,0,0,0,6.21,1,57.82,57.82,0,0,0,6.11.94c.14.55.59.46,1,.45a17.94,17.94,0,0,1,4.91.86c2.63.68,5.36.77,8,1.52a.74.74,0,0,0,1-.27c-1.6-.77-3.37-.78-5-1.32a54.91,54.91,0,0,0-5.48-1.16c-.86-.18-1.67-.75-2.61-.56a4.21,4.21,0,0,1-.95-.07,73,73,0,0,0-7.44-1.61c-2.73-.59-5.5-1-8.27-1.42a74.49,74.49,0,0,0-9.06-1c-2.94,0-5.87-.3-8.83-.07-1.74.13-3.46.46-5.16.69a29.59,29.59,0,0,0-4.14.92A29.72,29.72,0,0,1,137,116.6c-.35,0-.67,0-.77.42l-.21,0c-1.53,0-2.72,1-4.07,1.5-.44.17-1.21.1-1.22.92a3.63,3.63,0,0,0-3.17,1.59,7.9,7.9,0,0,0,3.44-1.58,3.15,3.15,0,0,0,2-.59c1-.48,2.35-.44,3.09-1.5C136.28,117.32,136.59,117.4,136.73,117.08Zm-.74,9.35c-.42,0-.88-.14-1.26.14-.13.09-.06.29.09.41.46.37.9,0,1.35-.06s.53-.14.56-.48c2.43-.25,4.72-1.3,7.2-1.31.09,0,.17-.23.26-.36l1.65,0c.56-.06,1.17.22,1.68-.23H158.8c1.44.47,3,.14,4.44.54a7.83,7.83,0,0,0,3.57,0c-2.3-.2-4.47-1.16-6.81-1l-2.6,0c-.12-.47-.49-.44-.85-.44h-8.93c-.36,0-.73,0-.86.43-1.47-.22-2.84.41-4.27.52s-2.89.73-4.36.93A4.31,4.31,0,0,0,136,126.43Zm-2.15-3.59c.66.2,1.1-.36,1.65-.52a67.52,67.52,0,0,1,8.21-1.81,66.42,66.42,0,0,1,9.65-1.07c4.23-.08,8.43.24,12.64.52.07.41.36.46.71.47a14.66,14.66,0,0,1,4.78.67,1.58,1.58,0,0,0,1.65-.24c-2.19-.91-4.46-.94-6.65-1.38l-1.18,0c-.29-.82-1-.33-1.47-.44-1.43-.06-2.86-.15-4.29-.21a91.37,91.37,0,0,0-16.61.69c-.19,0-.37.13-.57.17-1.33.34-2.68.63-4,1a15.64,15.64,0,0,0-4.53,1.67c-1.28,0-2.25.91-3.41,1.29a.29.29,0,0,0-.1.42c0,.08.22.19.28.16C131.71,123.82,133,123.76,133.84,122.84Zm67.73,3c2.59-.09,5.13.43,7.7.56.31,0,.82.17.82-.39s-.47-.52-.88-.56-.89.22-1.4.16A16.6,16.6,0,0,0,201.57,125.86Z"/><path class="a33f4064-6333-4ea1-9383-7b8d722cc053" d="M23.18,131.66c0-.23.05-.46.07-.69a63.46,63.46,0,0,0,6.47-.38c3.38-.27,6.79-.08,10.18-.1a1.43,1.43,0,0,0,1.36-.4H23.74l-.08-.08a2.39,2.39,0,0,1,.59-1.84,4.34,4.34,0,0,0,.63-1.76,6.48,6.48,0,0,1,1.78-3.07c1.12-1.07,1.71-2.72,2.52-4.12.18-.3.35-.62.52-.93.83.13,1.52-.41,2.31-.48,3.14-.27,6.21-.93,9.29-1.48,3.46-.61,6.88-1.41,10.32-2.12,3.06-.64,6.13-1.25,9.19-1.9,2.2-.47,4.37-1,6.59-1.43s4.63-.86,6.95-1.16a64.18,64.18,0,0,1,8.19-.82c5.3,0,10.61-.28,15.85.75a33.07,33.07,0,0,1,5.43,1.31,26,26,0,0,1,6.2,3.3,23.5,23.5,0,0,1,7.75,9.26,12.74,12.74,0,0,0-8,2.54c-2.08,1.43-3.08,3.7-4.43,5.7-.23-.24-.44-.53-.84-.34a33.4,33.4,0,0,0-6.09-1.48,99,99,0,0,0-14.17-.89c-2.77-.06-5.58.15-8.37.29-4.86.26-9.71.63-14.55,1q-5,.44-10,.68l-.25,0-2,.15c-1.54.15-3.11-.1-4.64.31a4.84,4.84,0,0,0-1.78,0C36.12,131.92,29.65,131.7,23.18,131.66Zm89.06-12.19a.44.44,0,0,0-.47-.49,20.5,20.5,0,0,0-7.53-4.82c-.85-.31-1.48-1.23-2.55-.94a41.47,41.47,0,0,0-11.47-1.43c-2.5-.52-5,.11-7.49,0a37.46,37.46,0,0,0-6.17.47c-4.45.53-8.85,1.31-13.24,2.16-1.39.27-2.67,1-4.11,1-2.08.32-4.09.92-6.13,1.44s-3.87,1-5.81,1.44c-.28.07-.76-.1-.7.4s.5.32.79.28c1-.16,2-.55,3-.79,2.75-.65,5.51-1.28,8.29-1.81.3-.06.55-.09.6-.44a23,23,0,0,0,3.24-.47c3-.3,5.91-1,8.87-1.42,2.67-.4,5.35-.79,8-1,3.34-.22,6.71,0,10.07,0v4.09c-.4,0-.79,0-1.19,0-4.26-.15-8.47.51-12.71.72a26.68,26.68,0,0,1-5.5.5.56.56,0,0,0-.12,0,33.27,33.27,0,0,1-7.08,1.12c-.8,0-1.37.49-2.38.8a6.08,6.08,0,0,0,2.34.07c1.75-.26,3.42-.93,5.22-.86a12.3,12.3,0,0,0,3.07-.34,10.46,10.46,0,0,1,2.93-.29c.75,0,1.83.38,2.48-.54l10.55,0c2,0,1.91,0,2.24,2,.19,1.16-.29,1.23-1.16,1.06a3.86,3.86,0,0,0-.57-.12c-4.11-.23-8.21.19-12.31.21-.2,0-.39.06-.59.08l-8,.88c-.39,0-.86-.17-1,.42l-1.66,0a61.18,61.18,0,0,0-7.92,1.33c.42.15.9.4,1.23.27,1.2-.48,2.49-.15,3.64-.46a22.54,22.54,0,0,0,3.29-.66c3.05-.54,6.16-.35,9.23-.86,2.45-.4,5-.09,7.51-.31,2.87-.25,5.73.28,8.6.24l.12,2.88c-.29.43-.57.91-1.21.66a5.3,5.3,0,0,0-2.13-.19c-4.3.07-8.61.2-12.92.22-2.18,0-4.32.45-6.48.63a39,39,0,0,0-6.1,1,24.59,24.59,0,0,0,7.38-.26c3.28-.55,6.57-.27,9.85-.71a36.85,36.85,0,0,1,10.68.33c.41.07.68.16.69.63s-.07,1,.46.94,1-.14,1.15-.81l.26-.08c.31.06.48,0,.5-.38l.41-.13c1.28.15,2.57.2,3.85.46a4.35,4.35,0,0,0,3-.12c.93.2,1.34,1.14,2.15,1.49,0,.34,0,.66.5.65a.69.69,0,0,0,.67-.56c.09-.24-.27-.88.46-.65.19.07.36.22.46,0s0-.54-.25-.58c-.86-.14-.55-.8-.67-1.3-.17-.69.65-1.24.37-1.75-.56-1-.27-2-.33-3,0-.78.21-1,1.11-.73s1.75,1,2.92.56l-4.11-2V119c.62-.78.14-1.67.28-2.5.08-.44-.18-1,.52-1.15a18.9,18.9,0,0,1,5.74,2.57,10.08,10.08,0,0,0,2.85,1.58l0,.45,2.18,2.17c.19.19.43.28.6,0s0-.45-.28-.51c-.49-.11-.55-.48-.73-.89a2,2,0,0,0-1.28-1.28ZM24.13,129c2.81.64,5.53-.05,8.27-.47C29.64,128.61,26.84,128.23,24.13,129Z"/><path class="f5e98df8-28f2-48f6-9b1f-9da20d596cc0" d="M122.08,88.51c.28,3.11,1,6.2.72,9.36a10.84,10.84,0,0,0-.46,2.89,38,38,0,0,1-.28,6.48c-.58-.11-.45-.58-.45-.95a11.72,11.72,0,0,0-.28-1.87c-.31-1.77-1.54-3.22-1.6-5a2.89,2.89,0,0,0-.34-1.25c-1.08-2.07-2-4.22-3.16-6.26a31,31,0,0,0-3.69-5.6c-1.52-1.72-2.72-3.69-4.24-5.44s-2.67-3.5-4.17-5.11c-1.13-1.2-2.22-2.47-3.21-3.74a42.32,42.32,0,0,0-3.38-4.08c-2.05-2-3.63-4.48-5.69-6.5-1.61-1.58-3-3.41-4.63-5s-1.4-2,.34-3.18c1.92-1.25,3.87-2.43,5.78-3.7s3.92-2.7,5.9-4c.17-.11.33-.62.74-.16,1.18,1.32,2.12,2.83,3.25,4.19,1.34,1.62,2.26,3.59,3.53,5.3,1,1.31,1.56,2.89,2.76,4.05a1.14,1.14,0,0,1,.28.38,22.26,22.26,0,0,0,2.78,5c1.77,2.82,3.12,5.83,4.65,8.75.85,1.62,1,3.5,2,5.09a7,7,0,0,1,.54,1.88c.31,1.09.51,2.22.86,3.28a15.25,15.25,0,0,1,1,4.24C121.62,88,121.48,88.42,122.08,88.51Z"/><path class="f8b59c9d-8180-4cc8-a425-15c696e9dbfb" d="M122.08,88.51c-.6-.09-.46-.55-.47-.93a15.25,15.25,0,0,0-1-4.24c-.35-1.06-.55-2.19-.86-3.28a7,7,0,0,0-.54-1.88c-.94-1.59-1.12-3.47-2-5.09-1.53-2.92-2.88-5.93-4.65-8.75a22.26,22.26,0,0,1-2.78-5,1.14,1.14,0,0,0-.28-.38c-1.2-1.16-1.78-2.74-2.76-4.05-1.27-1.71-2.19-3.68-3.53-5.3-1.13-1.36-2.07-2.87-3.25-4.19-.41-.46-.57,0-.74.16-2,1.32-3.92,2.71-5.9,4s-3.86,2.45-5.78,3.7c-1.74,1.13-2,1.62-.34,3.18s3,3.37,4.63,5c2.06,2,3.64,4.45,5.69,6.5A42.32,42.32,0,0,1,100.92,72c1,1.27,2.08,2.54,3.21,3.74,1.5,1.61,2.73,3.47,4.17,5.11s2.72,3.72,4.24,5.44a31,31,0,0,1,3.69,5.6c1.14,2,2.08,4.19,3.16,6.26a2.89,2.89,0,0,1,.34,1.25c.06,1.83,1.29,3.28,1.6,5a11.72,11.72,0,0,1,.28,1.87c0,.37-.13.84.45.95-.06,1.2-.13,2.4-.19,3.59l-.57-.22c-.37-.49-.1-1.08-.24-1.62a42.47,42.47,0,0,0-4.12-10.1,123.32,123.32,0,0,0-7.38-11.27c-2.69-3.78-5.65-7.36-8.57-11-1.06-1.31-2.27-2.5-3.41-3.74a.46.46,0,0,0-.46-.48l-.71-.77c-.48-1.24-1.65-1.87-2.46-2.82s-1.68-2-2.6-3c-2.56-2.64-5.12-5.29-7.76-7.86a27.33,27.33,0,0,0-4.22-3.82c-.71-.81-1.3-1.83-2.63-1.67,1.16-.8,2.28-1.67,3.5-2.36a4.41,4.41,0,0,0,1.26-.8,7,7,0,0,1,2.23-1.24c2.21-1.19,4.24-2.71,6.43-3.93a27,27,0,0,0,6-4c1-.93,2.21-.6,3-1.5.28-.31.82-.06.75.5-.09.73.4,1,.85,1.37a21.55,21.55,0,0,1,3.31,4.1c.92,1.42,2.15,2.68,3,4.07s1.62,2.5,2.44,3.71c1.52,2.23,2.66,4.68,4.16,6.93a20.74,20.74,0,0,1,1.87,3.81c.79,2,1.53,4.07,2.39,6.06a25.61,25.61,0,0,1,1.46,4.58A51.22,51.22,0,0,0,120.85,79a4.4,4.4,0,0,1,0,1.31c0,.66-.18,1.39.57,1.84a.55.55,0,0,1,.14.43C121.36,84.59,122.36,86.5,122.08,88.51Z"/><path class="f8b59c9d-8180-4cc8-a425-15c696e9dbfb" d="M44.57,95.74c-.22-.73.52-.83.84-1.15,1.07-1.1,2.29-2.12,3.24-3.28s2.43-2.15,3.3-3.55a2.15,2.15,0,0,1,.86-.81c1.14-.46,1.57-1.6,2.36-2.39,1-1,2.11-1.9,3.17-2.85A14.76,14.76,0,0,0,61,79.1c.45-.68,1.47-1,2.17-1.61,1.45-1.22,2.9-2.45,4.39-3.62.79-.62,1.7-1.08,2.5-1.7s2-.82,2.12-2.11l3.65,2.57a1.15,1.15,0,0,1-.5.76,30.48,30.48,0,0,0-3.14,2.53c-1.23,1.32-2.78,2.3-4,3.68a38.36,38.36,0,0,1-2.71,3c-1.68,1.61-3.23,3.32-4.77,5-1,1.12-1.95,2.28-2.92,3.42-.35.41-1.1,1-.85,1.68s1,0,1.51.1,1.3-.17,1.78.08c1.34.67,2.74.4,4.1.4,2.23,0,4.37.6,6.58.69a8.2,8.2,0,0,1,2.49.16,20.54,20.54,0,0,0,5,.75,48.07,48.07,0,0,0,5.35.72,4.94,4.94,0,0,1,1.89.2c1.39.58,2.89.51,4.32.82,1.61.34,3.19.79,4.81,1.09s3.25,1.42,5.08,1.35a.81.81,0,0,1,.72.33,2.47,2.47,0,0,0,2.35.87L106,102c.07.14.1.33.21.41a41.17,41.17,0,0,1,4.28,3.51c1,.84,1.76,2,3,2.54h0a.45.45,0,0,0,.42.51c.22,1,1.42,1.46,1.25,2.61l-.67-.26a2.32,2.32,0,0,0-.78-1.18,20.53,20.53,0,0,0-5.77-3.94,51.37,51.37,0,0,0-10.84-3.7c-2.68-.64-5.39-1.16-8.09-1.72a30.83,30.83,0,0,0-4.52-.88c-2.51-.11-5-.61-7.45-.91-3-.37-6-.74-9.08-1.06-3.75-.39-7.53-.56-11.28-1C52.63,96.35,48.56,96.41,44.57,95.74Z"/><path class="f8b59c9d-8180-4cc8-a425-15c696e9dbfb" d="M117.77,123.52a23.5,23.5,0,0,0-7.75-9.26,26,26,0,0,0-6.2-3.3,33.07,33.07,0,0,0-5.43-1.31c-5.24-1-10.55-.75-15.85-.75a64.18,64.18,0,0,0-8.19.82c-2.32.3-4.64.76-6.95,1.16s-4.39,1-6.59,1.43c-3.06.65-6.13,1.26-9.19,1.9-3.44.71-6.86,1.51-10.32,2.12-3.08.55-6.15,1.21-9.29,1.48-.79.07-1.48.61-2.31.48L33,114.65s.1,0,.11,0c.67-1.81,2.4-2.7,3.53-4.12a32,32,0,0,1,4.23-4.57,17.81,17.81,0,0,0,1.66-2.15c1.44-1.74,3.15-3.24,4.57-5,.66-.81.7-1.3.12-2L53,97.4a1.87,1.87,0,0,1-.75,1.65c-1,1-1.77,2.27-2.76,3.34s-2,2.57-3,3.82c-1.42,1.73-2.69,3.56-4,5.45a2,2,0,0,0,1.53,0,9.42,9.42,0,0,1,3-.82c2.2-.55,4.4-1.13,6.64-1.53,2.87-.51,5.74-1,8.6-1.45,1.16-.19,2.43.14,3.43-.29,1.89-.81,3.89-.45,5.8-.73a79,79,0,0,1,9.63-.55,59.66,59.66,0,0,1,9.62.28c3,.42,6.15.38,9.19,1.07,1.15.26,2.28.62,3.4,1a37.81,37.81,0,0,1,8.49,3.93c.51.29,1,.74,1.62.65h0c.54.9.56,2.31,2.15,2.17l0,.46a.66.66,0,0,0,.69.75c.13.41-.29,1.06.51,1.17l.66,0,0,.44c-.12.08-.34.15-.34.23,0,.27.25.22.43.23a10,10,0,0,1,1.17,4.83Z"/><path class="f8b59c9d-8180-4cc8-a425-15c696e9dbfb" d="M66.13,64.85c0-.56.25-.81.8-1.12,1.29-.72,2.41-1.75,3.66-2.57,1.49-1,2.89-2.08,4.47-3s3.16-1.48,4.32-2.84l.23,0a12,12,0,0,0,2.18,2,2.1,2.1,0,0,1,1,1.5c-1.88,1.83-4.19,3.07-6.25,4.66-.48.36-1.08.63-1.19,1.24s.43.73.79,1c2.76,1.76,5.41,3.68,8,5.64,2.87,2.13,5.68,4.33,8.33,6.73,1.24,1.12,2.78,1.93,3.75,3.3a14.74,14.74,0,0,0,2.92,2.88,45.2,45.2,0,0,1,5.34,5.38c2,2.18,3.88,4.45,5.73,6.76,1.57,1.95,3,4,4.42,6.1a33.37,33.37,0,0,1,3.48,6.58c.32.78.17,2,1.48,2.21l0,1.64c.28.55-.1,1.37.69,1.72.14.49-.28,1.14.42,1.47v6.79c-.35.13-.4-.09-.43-.36a21.74,21.74,0,0,0-1.74-6.49c-.74-1.61-1.17-3.37-2.34-4.77a1.41,1.41,0,0,0-.06-.47,80.7,80.7,0,0,0-4.85-7.55,20.46,20.46,0,0,0-3.21-4,.4.4,0,0,0-.07-.19.43.43,0,0,0-.43-.5h0a.76.76,0,0,0-.69-.74h0c0-.31-.21-.45-.47-.54-2.42-3.51-5.55-6.39-8.6-9.33a98.47,98.47,0,0,0-9.68-7.85,62.76,62.76,0,0,0-6.94-4.83c-.13-.51-.56-.61-1-.68a.43.43,0,0,0-.18-.06c-.07-.25-.27-.36-.47-.5Q73.55,69.88,67.28,66C66.82,65.66,66.28,65.46,66.13,64.85Z"/><path class="f8b59c9d-8180-4cc8-a425-15c696e9dbfb" d="M185.44,112.75a3.06,3.06,0,0,1,1.15-.26,8.74,8.74,0,0,1,2.65.48,71.5,71.5,0,0,1,7.93,1.64c.3.08.67.16.88-.14s0-.59-.21-.84a2.2,2.2,0,0,1-.58-.73,27.08,27.08,0,0,0-3.09-5.64c-.85-1.41-1.54-2.9-2.33-4.34a11.27,11.27,0,0,0-2-2.75c-.68-.66-1.62-.4-2.33-.74-2.68-1.25-5.61-1.38-8.43-2-2.52-.56-5.17-.78-7.64-1.4-2.65-.66-5.21-.34-7.8-.56a.78.78,0,0,0-.76.23c-3.53,0-7.07-.19-10.57.49a14.83,14.83,0,0,0-3.73.42c-1.52.37-3,1-4.49,1.28-1,.15-1.8,1-2.87.69A5.23,5.23,0,0,1,143,96.84c.28,0,.53-.27.63-.31a3.78,3.78,0,0,1,2-.27,10.94,10.94,0,0,0,3.42-1A16.09,16.09,0,0,1,153.84,94a44.55,44.55,0,0,0,5.49-.54,12.91,12.91,0,0,1,6.34.28c1.05.38,2.28.11,3.43.26,1.33.16,2.7.14,4,.3.78.09,1.57-.2,2.28.59.32.35,1.31.2,2,.11,1.64-.22,3,.71,4.5,1,.19,0,.38.19.56.17,1.94-.16,3.69.74,5.55,1,1.41.17,2.6,1.12,4.06,1a.55.55,0,0,1,.41.21c1,1.94,2.49,3.58,3.66,5.43.75,1.2,1.64,2.42,2.45,3.6s1.62,2.59,2.45,3.87c1.53,2.38,3.21,4.66,4.83,7l-.26,0c-3.23-.74-6.54-1-9.8-1.53-1.86-.32-3.73-.76-5.63-.9-.94-.07-1.82-.58-2.8-.46-1.74.2-.78-.38-1.22-.46h0"/><path class="ef3a1046-e9af-4693-958d-bafa85074222" d="M53,97.4l-5.77-.66c-.69,0-1.39-.07-2.09-.07-.54,0-.83-.16-.76-.73l.06-.19a.5.5,0,0,0,.17,0c4,.67,8.06.61,12.07,1.12,3.75.47,7.53.64,11.28,1,3,.32,6,.69,9.08,1.06,2.48.3,4.94.8,7.45.91a30.83,30.83,0,0,1,4.52.88c2.7.56,5.41,1.08,8.09,1.72a51.37,51.37,0,0,1,10.84,3.7,20.53,20.53,0,0,1,5.77,3.94,2.32,2.32,0,0,1,.78,1.18l-.37,0a2.48,2.48,0,0,1-1.72-.93c-3.51-3.16-7.77-4.72-12.16-6.14a49,49,0,0,0-5.75-1.48c-1.1-.22-2.13-.62-3.21-.82a58.92,58.92,0,0,1-7-1.24,6.15,6.15,0,0,0-2.27-.44,15.18,15.18,0,0,1-2-.16c-3.47-.25-6.88-1-10.36-1a5.11,5.11,0,0,1-1.3-.07c-3.37-.87-6.85-.61-10.25-1.13Z"/><path class="f5e98df8-28f2-48f6-9b1f-9da20d596cc0" d="M66.13,64.85c.15.61.69.81,1.15,1.1q6.28,3.92,12.39,8.1c.2.14.4.25.47.5-.3,0-.53.16-.53.51L75.8,72.63l-3.65-2.57c-2.14-1.31-4.29-2.61-6.43-3.94-.32-.19-.67-.48-.5-1S65.78,64.82,66.13,64.85Z"/><path class="f5e98df8-28f2-48f6-9b1f-9da20d596cc0" d="M79.61,55.34l-.23,0A15.86,15.86,0,0,0,76.62,53c-.43-.24-.07-.33.12-.43,1.33-.16,1.92.86,2.63,1.67Z"/><path class="e6bc4d0c-782c-45e2-94ba-baba52ee0ec2" d="M211.89,129.55c-1.68-.48-3.39-.12-5.09-.24.07-.66.62-.42,1-.51l4.05,0Z"/><path class="e6bc4d0c-782c-45e2-94ba-baba52ee0ec2" d="M23.14,130.51c.09-.26.21-.48.52-.5l.08.08c-.07.24-.19.42-.47.41Z"/><path class="b6ca3e58-3a04-4606-a10c-7953855d5d5a" d="M44.4,95.75l-.06.19-.12-.13Z"/><path class="b4bf140f-063f-4429-a4de-8411fe20c1cb" d="M181.78,131.49a1.76,1.76,0,0,1,.57-.14c9.23.84,18.49.16,27.73.37.76,0,1.51,0,2.27-.05.46.1,1,0,1.4.26a1.64,1.64,0,0,1-.69,3,19.46,19.46,0,0,1-2.16,0H133.05c-.65,0-1.07,0-1.31.81a1.89,1.89,0,0,1-1.88,1.26c-8,0-16.06.13-24.09-.07.4-.41.9-.22,1.36-.22h21.92a2.64,2.64,0,0,0,2-.6c.24-.23.45-.47.33-.83s-.45-.26-.71-.26a1.84,1.84,0,0,1-1.63-.93c.84-.74.26-1.56.16-2.36l2.28-.25a2,2,0,0,0,1.28.19l47.78,0C181,131.7,181.42,131.88,181.78,131.49Z"/><path class="b4bf140f-063f-4429-a4de-8411fe20c1cb" d="M104.51,131.42c.4-.19.61.1.84.34,0,.31-.06.62-.11.92-.14.93,0,1.56,1.19,1.37.28,1-.47,1.2-1.12,1.2a15.24,15.24,0,0,1-2.36-.38c0,.27,0,.59-.06.89a1.52,1.52,0,0,0-1.52-.8q-38.13,0-76.25,0h-2c-1.23,0-2-.61-2-1.6s.63-1.65,1.72-1.68a2,2,0,0,0,.35-.05c6.47,0,12.94.26,19.41-.13a4.84,4.84,0,0,1,1.78,0,2,2,0,0,0,1.18.14c3.54-.1,7.08.12,10.62.09,15.68-.13,31.36-.06,47-.07C103.64,131.71,104.19,132,104.51,131.42Z"/><path class="f6967412-ff8a-47b9-aeb6-65342efc7bc5" d="M102.89,135.76c0-.3,0-.62.06-.89a16.58,16.58,0,0,0,2.37.36c.65,0,1.39-.17,1.11-1.18l.22-.28c.4.49.88.35,1.48.17-.4-.41-.39-1-1-1.08a8.61,8.61,0,0,1,3.28-5.24,11.44,11.44,0,0,1,8.6-2.46,8.52,8.52,0,0,1,4.66,1.87,13.82,13.82,0,0,1,4.24,5.92c.24.58.45,1.14,1.18,1.19a1.84,1.84,0,0,0,1.65.9c.25,0,.59-.1.71.27s-.1.59-.34.82a2.57,2.57,0,0,1-2,.6H107.15c-.46,0-1-.17-1.38.24l-1.21,0L103,136Z"/><path class="e6bc4d0c-782c-45e2-94ba-baba52ee0ec2" d="M23.27,130.5c.28,0,.4-.17.47-.41H41.26a1.43,1.43,0,0,1-1.36.4c-3.39,0-6.8-.17-10.18.1a63.46,63.46,0,0,1-6.47.38C23.26,130.81,23.26,130.66,23.27,130.5Z"/><path class="b4bf140f-063f-4429-a4de-8411fe20c1cb" d="M103,136l1.58,1A1.39,1.39,0,0,1,103,136Z"/><path class="acb891aa-37aa-404f-9c33-94c38f1b6939" d="M186.16,114.67v.25a47.49,47.49,0,0,1-6.46-1.14c-2.85-.69-5.77-1-8.67-1.5-3.12-.49-6.28-.74-9.41-1.11a76.39,76.39,0,0,0-11.41-.23,21.44,21.44,0,0,0-4.94.72c-1.46.4-3,.55-4.54.92a40.37,40.37,0,0,0-12.13,5.34,1.44,1.44,0,0,1-.73.36.43.43,0,0,0-.5.47.54.54,0,0,0-.47.24c-.35,0-.7,0-.72.48l-.48.72c-.7,0-1.28,0-1.2,1h0c-.35,0-.49-.23-.53-.55a6.56,6.56,0,0,1,1.42-2.14,4.59,4.59,0,0,0,2.53-1.88c1-1.43,2.52-2,3.86-2.75a23.2,23.2,0,0,1,5.22-2.23c2.17-.56,4.31-1.31,6.48-2,3.2-.94,6.57-.64,9.85-1.18,3.58-.58,7.17.64,10.79.45a2.72,2.72,0,0,1,.46.1c2.26.33,4.51.69,6.77,1,2.55.35,5.08.87,7.63,1.18,2,.25,3.95.92,6,.59.26.27.58.51.48,1V113C185.54,113.61,185.53,114.28,186.16,114.67Z"/><path class="af24bf01-e3ec-49d4-b453-7903e3e543ee" d="M181.78,131.49c-.36.39-.83.21-1.24.21l-47.78,0a2,2,0,0,1-1.28-.19,2.11,2.11,0,0,1,1.18-.26c.31.31.42.1.49-.2l1.1-.15c.27.08.5.07.58-.26,6.82-1.57,13.74-1.41,20.67-1.42,4.6,0,9.15.56,13.7.95,2.76.24,5.55.41,8.29.9.32.58.76.44,1.21.2A11.36,11.36,0,0,1,181.78,131.49Z"/><path class="f704638a-efcd-4680-bd08-748743379fd8" d="M106.65,133.77l-.22.28c-1.15.19-1.33-.44-1.19-1.37.05-.3.07-.61.11-.92,1.35-2,2.35-4.27,4.43-5.7a12.74,12.74,0,0,1,8-2.54l1,0c.72-.08,1.42.3,2.15.07H121l.08,0a.5.5,0,0,0,.46.52,1.32,1.32,0,0,0,1,.29c.27.71,1.07.58,1.52,1,1.78,1.52,3.61,3,4.47,5.3a7.38,7.38,0,0,0,.66,1.11c.1.8.68,1.62-.16,2.36-.73,0-1-.59-1.19-1.16a13.93,13.93,0,0,0-4.24-5.92,8.49,8.49,0,0,0-4.67-1.88,11.41,11.41,0,0,0-8.59,2.46,8.51,8.51,0,0,0-3.27,5.22A1.44,1.44,0,0,0,106.65,133.77Z"/><path class="e6bc4d0c-782c-45e2-94ba-baba52ee0ec2" d="M137,116.6a29.72,29.72,0,0,0,4.13-1.35,29.59,29.59,0,0,1,4.14-.92c1.7-.23,3.42-.56,5.16-.69,3-.23,5.89,0,8.83.07a74.49,74.49,0,0,1,9.06,1c2.77.4,5.54.83,8.27,1.42a73,73,0,0,1,7.44,1.61,4.21,4.21,0,0,0,.95.07c-.37.86-1.14.27-1.7.48a57.82,57.82,0,0,1-6.11-.94,59.15,59.15,0,0,1-6.21-1c-2.54-.6-5.14-.8-7.7-1.22a28.65,28.65,0,0,0-4.63-.4c-3.66,0-7.34-.28-11,.25a33.92,33.92,0,0,0-6.45,1.34,7.37,7.37,0,0,1-2.23.35.41.41,0,0,0-.54.4l-1.65.06C136.81,116.92,136.89,116.76,137,116.6Z"/><path class="e6bc4d0c-782c-45e2-94ba-baba52ee0ec2" d="M165.3,119.45l1.18,0c0,.32-.19.45-.49.48-4.21-.28-8.41-.6-12.64-.52a66.42,66.42,0,0,0-9.65,1.07,67.52,67.52,0,0,0-8.21,1.81c-.55.16-1,.72-1.65.52v-.49a15.64,15.64,0,0,1,4.53-1.67c1.31-.39,2.66-.68,4-1,.2,0,.38-.14.57-.17a91.37,91.37,0,0,1,16.61-.69c1.43.06,2.86.15,4.29.21C164.12,119.83,164.8,119.33,165.3,119.45Z"/><path class="b7fa0a92-058b-4a0b-9541-2a32d649da17" d="M183.25,118.29c.56-.21,1.33.38,1.7-.48.94-.19,1.75.38,2.61.56a54.91,54.91,0,0,1,5.48,1.16c1.65.54,3.42.55,5,1.32a.74.74,0,0,1-1,.27c-2.6-.75-5.33-.84-8-1.52a17.94,17.94,0,0,0-4.91-.86C183.84,118.75,183.39,118.84,183.25,118.29Z"/><path class="b7fa0a92-058b-4a0b-9541-2a32d649da17" d="M207.78,128.8c-.36.09-.91-.15-1,.51-4,.27-7.88-.63-11.87-.5.12-.63.52-.45.78-.45,3.7,0,7.41,0,11.11,0C207.2,128.36,207.66,128.24,207.78,128.8Z"/><path class="e6bc4d0c-782c-45e2-94ba-baba52ee0ec2" d="M142.49,124.51c1.43-.11,2.8-.74,4.27-.52H157.4l2.6,0c-.27.46-.92,0-1.2.48H147.52c-.61-.3-1.21-.54-1.68.23l-1.65,0C143.63,124.64,143,125,142.49,124.51Z"/><path class="b7fa0a92-058b-4a0b-9541-2a32d649da17" d="M201.57,125.86a16.6,16.6,0,0,1,6.24-.23c.51.06.92-.22,1.4-.16s.89,0,.88.56-.51.4-.82.39C206.7,126.29,204.16,125.77,201.57,125.86Z"/><path class="b7fa0a92-058b-4a0b-9541-2a32d649da17" d="M142.49,124.51c.51.47,1.14.13,1.7.26-.09.13-.17.36-.26.36-2.48,0-4.77,1.06-7.2,1.31H136a4.31,4.31,0,0,1,2.14-1C139.6,125.24,141,124.53,142.49,124.51Z"/><path class="e6bc4d0c-782c-45e2-94ba-baba52ee0ec2" d="M158.8,124.51c.28-.46.93,0,1.2-.48,2.34-.19,4.51.77,6.81,1a7.83,7.83,0,0,1-3.57,0C161.78,124.65,160.24,125,158.8,124.51Z"/><path class="e6bc4d0c-782c-45e2-94ba-baba52ee0ec2" d="M157.4,124H146.76c.13-.46.5-.43.86-.43h8.93C156.91,123.56,157.28,123.53,157.4,124Z"/><path class="b7fa0a92-058b-4a0b-9541-2a32d649da17" d="M166,120c.3,0,.49-.16.49-.48,2.19.44,4.46.47,6.65,1.38a1.58,1.58,0,0,1-1.65.24,14.66,14.66,0,0,0-4.78-.67C166.35,120.42,166.06,120.37,166,120Z"/><path class="e6bc4d0c-782c-45e2-94ba-baba52ee0ec2" d="M130.7,119.47c0-.82.78-.75,1.22-.92,1.35-.51,2.54-1.47,4.07-1.5,0,.11,0,.22,0,.34-.74,1.06-2.06,1-3.09,1.5a3.15,3.15,0,0,1-2,.59Z"/><path class="acb891aa-37aa-404f-9c33-94c38f1b6939" d="M122.55,124.4a1.32,1.32,0,0,1-1-.29l.09-.55c.92-.87,1.17-2.27,2.33-3,0,.32.18.53.53.55a1.77,1.77,0,0,1-1,1.6A1.68,1.68,0,0,0,122.55,124.4Z"/><path class="b7fa0a92-058b-4a0b-9541-2a32d649da17" d="M133.84,122.35v.49c-.88.92-2.13,1-3.23,1.38-.06,0-.23-.08-.28-.16a.29.29,0,0,1,.1-.42C131.59,123.26,132.56,122.39,133.84,122.35Z"/><path class="b7fa0a92-058b-4a0b-9541-2a32d649da17" d="M130.7,119.47H131a7.9,7.9,0,0,1-3.44,1.58A3.63,3.63,0,0,1,130.7,119.47Z"/><path class="b7fa0a92-058b-4a0b-9541-2a32d649da17" d="M136,126.43h.74c0,.34-.25.45-.56.48s-.89.43-1.35.06c-.15-.12-.22-.32-.09-.41C135.11,126.29,135.57,126.47,136,126.43Z"/><path class="acb891aa-37aa-404f-9c33-94c38f1b6939" d="M124.49,121.16c-.08-.92.5-1,1.2-1A1.05,1.05,0,0,1,124.49,121.16Z"/><path class="e6bc4d0c-782c-45e2-94ba-baba52ee0ec2" d="M145.84,124.73c.47-.77,1.07-.53,1.68-.23C147,125,146.4,124.67,145.84,124.73Z"/><path class="e6bc4d0c-782c-45e2-94ba-baba52ee0ec2" d="M165.3,119.45c-.5-.12-1.18.38-1.47-.44C164.33,119.12,165,118.63,165.3,119.45Z"/><path class="af24bf01-e3ec-49d4-b453-7903e3e543ee" d="M178.7,131.29c-.45.24-.89.38-1.21-.2A1.1,1.1,0,0,1,178.7,131.29Z"/><path class="b5ef217c-099a-4a46-88bd-4d6e7dee99f0" d="M186.15,114.92c.44.08,1-.29,1.22.46C186.93,115.3,186.33,115.67,186.15,114.92Z"/><path class="acb891aa-37aa-404f-9c33-94c38f1b6939" d="M126.17,119.47c0-.49.37-.48.72-.48C126.86,119.48,126.52,119.48,126.17,119.47Z"/><path class="e6bc4d0c-782c-45e2-94ba-baba52ee0ec2" d="M137,116.6c-.08.16-.16.32-.23.49h0l-.53-.06C136.3,116.59,136.62,116.58,137,116.6Z"/><path class="acb891aa-37aa-404f-9c33-94c38f1b6939" d="M127.36,118.75a.43.43,0,0,1,.5-.47A.46.46,0,0,1,127.36,118.75Z"/><path class="b4bf140f-063f-4429-a4de-8411fe20c1cb" d="M134.83,130.66c-.08.33-.31.34-.58.26C134.37,130.66,134.54,130.53,134.83,130.66Z"/><path class="e6bc4d0c-782c-45e2-94ba-baba52ee0ec2" d="M138.39,117a.41.41,0,0,1,.54-.4C138.85,116.9,138.7,117.07,138.39,117Z"/><path class="b4bf140f-063f-4429-a4de-8411fe20c1cb" d="M133.15,131.07c-.07.3-.18.51-.49.2A.34.34,0,0,1,133.15,131.07Z"/><path class="e6bc4d0c-782c-45e2-94ba-baba52ee0ec2" d="M136.2,117l.53.06c-.14.32-.45.24-.7.31,0-.12,0-.23,0-.34Z"/><path class="f704638a-efcd-4680-bd08-748743379fd8" d="M90.22,111.79a41.47,41.47,0,0,1,11.47,1.43,1.48,1.48,0,0,1,.82,1.47,8.86,8.86,0,0,0-.17,4.31c0,.15,0,.31,0,.46-.67,2.67-.3,5.38-.3,8.07,0,.66.09,1.3-.84,1.35-.81-.35-1.22-1.29-2.15-1.49,0-.43-.25-.71-.71-.71-1.75-2.14-3.35-2.29-4.82-.46a1.55,1.55,0,0,0-1.29.83l-.41.13a.41.41,0,0,0-.5.38l-.26.08c-1.19.25-1.36-.5-1.34-1.41,0-.32.3-.66,0-1l-.12-2.88a20.67,20.67,0,0,0-.15-5.27c0-1.37,0-2.73,0-4.09C89.51,112.49,90.33,112.45,90.22,111.79Z"/><path class="af24bf01-e3ec-49d4-b453-7903e3e543ee" d="M104.51,131.42c-.32.56-.87.29-1.3.29-15.68,0-31.36-.06-47,.07-3.54,0-7.08-.19-10.62-.09a2,2,0,0,1-1.18-.14c1.53-.41,3.1-.16,4.64-.31l2-.15c.1.11.18.08.25,0q5-.24,10-.68c4.84-.41,9.69-.78,14.55-1,2.79-.14,5.6-.35,8.37-.29a99,99,0,0,1,14.17.89A33.4,33.4,0,0,1,104.51,131.42Z"/><path class="e6bc4d0c-782c-45e2-94ba-baba52ee0ec2" d="M89.43,117.1a20.67,20.67,0,0,1,.15,5.27c-2.87,0-5.73-.49-8.6-.24-2.51.22-5.06-.09-7.51.31-3.07.51-6.18.32-9.23.86l-.24-.48,1.66,0c.39,0,.87.21,1-.42l8-.88c.2,0,.39-.08.59-.08,4.1,0,8.2-.44,12.31-.21a3.86,3.86,0,0,1,.57.12c.87.17,1.35.1,1.16-1.06-.33-2-.24-2-2.24-2l-10.55,0a7.16,7.16,0,0,1-.93,0c-.66-.11,0-.31,0-.46,4.24-.21,8.45-.87,12.71-.72C88.64,117.1,89,117.09,89.43,117.1Z"/><path class="e6bc4d0c-782c-45e2-94ba-baba52ee0ec2" d="M90.22,111.79c.11.66-.71.7-.8,1.22-3.36,0-6.73-.18-10.07,0-2.68.18-5.36.57-8,1-3,.44-5.88,1.12-8.87,1.42a23,23,0,0,1-3.24.47v-.52c1.44,0,2.72-.71,4.11-1,4.39-.85,8.79-1.63,13.24-2.16a37.46,37.46,0,0,1,6.17-.47C85.23,111.9,87.72,111.27,90.22,111.79Z"/><path class="e6bc4d0c-782c-45e2-94ba-baba52ee0ec2" d="M89.7,125.25c.33.32,0,.66,0,1,0,.91.15,1.66,1.34,1.41-.1.67-.7.79-1.15.81s-.45-.56-.46-.94-.28-.56-.69-.63a36.85,36.85,0,0,0-10.68-.33c-3.28.44-6.57.16-9.85.71a24.59,24.59,0,0,1-7.38.26,39,39,0,0,1,6.1-1c2.16-.18,4.3-.61,6.48-.63,4.31,0,8.62-.15,12.92-.22a5.3,5.3,0,0,1,2.13.19C89.13,126.16,89.41,125.68,89.7,125.25Z"/><path class="e6bc4d0c-782c-45e2-94ba-baba52ee0ec2" d="M102.51,114.69a1.48,1.48,0,0,0-.82-1.47c1.07-.29,1.7.63,2.55.94a20.5,20.5,0,0,1,7.53,4.82v.48l0,0a10.08,10.08,0,0,1-2.85-1.58,18.9,18.9,0,0,0-5.74-2.57A.66.66,0,0,0,102.51,114.69Z"/><path class="b7fa0a92-058b-4a0b-9541-2a32d649da17" d="M75.53,117.8c0,.15-.63.35,0,.46a7.16,7.16,0,0,0,.93,0c-.65.92-1.73.58-2.48.54a10.46,10.46,0,0,0-2.93.29,12.3,12.3,0,0,1-3.07.34c-1.8-.07-3.47.6-5.22.86a6.08,6.08,0,0,1-2.34-.07c1-.31,1.58-.8,2.38-.8a33.27,33.27,0,0,0,7.08-1.12.56.56,0,0,1,.12,0A26.68,26.68,0,0,0,75.53,117.8Z"/><path class="b7fa0a92-058b-4a0b-9541-2a32d649da17" d="M101.21,128.88c.93,0,.84-.69.84-1.35,0-2.69-.37-5.4.3-8.07l4.1,2c-1.17.48-2-.26-2.92-.56s-1.15,0-1.11.73c.06,1-.23,2,.33,3,.28.51-.54,1.06-.37,1.75.12.5-.19,1.16.67,1.3.28,0,.34.34.25.58s-.27.11-.46,0c-.73-.23-.37.41-.46.65a.69.69,0,0,1-.67.56C101.25,129.54,101.21,129.22,101.21,128.88Z"/><path class="b7fa0a92-058b-4a0b-9541-2a32d649da17" d="M59.21,115.39v.52c-.05.35-.3.38-.6.44-2.78.53-5.54,1.16-8.29,1.81-1,.24-2,.63-3,.79-.29,0-.73.17-.79-.28s.42-.33.7-.4q2.91-.7,5.81-1.44C55.12,116.31,57.13,115.71,59.21,115.39Z"/><path class="b7fa0a92-058b-4a0b-9541-2a32d649da17" d="M92.24,127.05a1.55,1.55,0,0,1,1.29-.83c1,.16,2,.34,3,.44.59.06,1.2.6,1.8,0,.46,0,.67.28.71.71a4.35,4.35,0,0,1-3,.12C94.81,127.25,93.52,127.2,92.24,127.05Z"/><path class="b7fa0a92-058b-4a0b-9541-2a32d649da17" d="M24.13,129c2.71-.8,5.51-.42,8.27-.47C29.66,129,26.94,129.67,24.13,129Z"/><path class="b7fa0a92-058b-4a0b-9541-2a32d649da17" d="M64,122.82l.24.48A22.54,22.54,0,0,1,61,124c-1.15.31-2.44,0-3.64.46-.33.13-.81-.12-1.23-.27A61.18,61.18,0,0,1,64,122.82Z"/><path class="b7fa0a92-058b-4a0b-9541-2a32d649da17" d="M112.25,119.47a2,2,0,0,1,1.28,1.28c.18.41.24.78.73.89.28.06.44.26.28.51s-.41.16-.6,0L111.76,120A.44.44,0,0,0,112.25,119.47Z"/><path class="b7fa0a92-058b-4a0b-9541-2a32d649da17" d="M102.51,114.69a.66.66,0,0,1,.63.66c-.7.15-.44.71-.52,1.15-.14.83.34,1.72-.28,2.5A8.86,8.86,0,0,1,102.51,114.69Z"/><path class="b7fa0a92-058b-4a0b-9541-2a32d649da17" d="M66.66,122.37c-.13.63-.61.42-1,.42C65.8,122.2,66.27,122.38,66.66,122.37Z"/><path class="bd3338cf-d20e-4878-9ab3-5d41de45aa5c" d="M91.33,127.56a.41.41,0,0,1,.5-.38C91.81,127.51,91.64,127.62,91.33,127.56Z"/><path class="b7fa0a92-058b-4a0b-9541-2a32d649da17" d="M112.25,119.47a.44.44,0,0,1-.49.48l0-.45,0,0h.48Z"/><path class="b7fa0a92-058b-4a0b-9541-2a32d649da17" d="M112.24,119.47h-.47V119A.44.44,0,0,1,112.24,119.47Z"/><path class="b4bf140f-063f-4429-a4de-8411fe20c1cb" d="M51.29,131.06c-.07.11-.15.14-.25,0Z"/><path class="ef3a1046-e9af-4693-958d-bafa85074222" d="M121.63,123.56l-.55,0-.08,0h-.09l-.09-.68c0-2.26,0-4.53,0-6.79,0-.69.42-1.46-.35-2l0-1.15a12.23,12.23,0,0,0-.66-4.65,16.63,16.63,0,0,0-.71-2.63,73,73,0,0,0-3.36-7.1c-1.66-2.79-3.48-5.47-5.32-8.12s-4.1-5.34-6.14-8S99.88,77,97.64,74.25A2,2,0,0,1,97.05,73l.08-.07h.45c1.14,1.24,2.35,2.43,3.41,3.74,2.92,3.6,5.88,7.18,8.57,11a123.32,123.32,0,0,1,7.38,11.27,42.47,42.47,0,0,1,4.12,10.1c.14.54-.13,1.13.24,1.62a16.71,16.71,0,0,1,.39,3.3c.13,1.29.25,2.58.38,3.87-.06,1.24-.6,2.44-.32,3.93l-.12,1.85"/><path class="f5e98df8-28f2-48f6-9b1f-9da20d596cc0" d="M79.61,55.34l-.24-1.15A27.33,27.33,0,0,1,83.59,58c2.64,2.57,5.2,5.22,7.76,7.86.92.95,1.74,2,2.6,3-.32,0-.43.19-.44.48C92.34,68.14,91.14,67,90,65.79c-1-1-1.71-2.38-3.11-3a13.11,13.11,0,0,0-4-3.92,2.1,2.1,0,0,0-1-1.5A12,12,0,0,1,79.61,55.34Z"/><path class="ef3a1046-e9af-4693-958d-bafa85074222" d="M93.51,69.33c0-.29.12-.48.44-.48.81,1,2,1.58,2.46,2.82.08.41.16.82.23,1.23C95.27,72,94.58,70.5,93.51,69.33Z"/><path class="f8b59c9d-8180-4cc8-a425-15c696e9dbfb" d="M121.69,113.91a16.71,16.71,0,0,0-.39-3.3l.57.22C122.1,111.88,122.44,112.92,121.69,113.91Z"/><path class="ef3a1046-e9af-4693-958d-bafa85074222" d="M96.64,72.9c-.07-.41-.15-.82-.23-1.23.24.26.47.52.71.77v.47l-.08.07Z"/><path class="ef3a1046-e9af-4693-958d-bafa85074222" d="M97.13,72.91v-.47a.46.46,0,0,1,.46.48Z"/><path class="f5e98df8-28f2-48f6-9b1f-9da20d596cc0" d="M106,102l-3.11-1.69c-.54-.71-1.45-.83-2.11-1.36a27.89,27.89,0,0,0-4.86-2.65,43,43,0,0,0-5.73-2.21,36.05,36.05,0,0,0-5.31-1.87c-1.83-.37-3.62-.94-5.37-1.47a65.7,65.7,0,0,0-9.87-2.2,1.17,1.17,0,0,1-1-.59c-.21-.41.1-.66.33-.93,1-1.21,2.12-2.38,3.07-3.65a49.24,49.24,0,0,1,4.25-4.87c1.07-1.1,2.51-1.82,3.32-3.18.15,0,.36,0,.46.09,1.65,1.48,3.57,2.61,5.32,3.94s3.21,2.55,4.92,3.65a39.43,39.43,0,0,1,3.09,2.48c2.09,1.64,3.91,3.62,5.84,5.45,1.69,1.61,3.32,3.28,4.91,5,.76.82,1.16,2,2.31,2.45,0,.35,0,.69.48.72,0,.51.55.41.71.73l2.18,3.34a3.71,3.71,0,0,1-1.13-.22C107.79,102.65,107.06,101.81,106,102Z"/><path class="bfe62aa4-61b0-46ea-9bd8-f6bb13c30286" d="M79.63,75.29c-.81,1.36-2.25,2.08-3.32,3.18a49.24,49.24,0,0,0-4.25,4.87c-1,1.27-2,2.44-3.07,3.65-.23.27-.54.52-.33.93a1.17,1.17,0,0,0,1,.59,65.7,65.7,0,0,1,9.87,2.2c1.75.53,3.54,1.1,5.37,1.47a36.05,36.05,0,0,1,5.31,1.87,43,43,0,0,1,5.73,2.21,27.89,27.89,0,0,1,4.86,2.65c.66.53,1.57.65,2.11,1.36a2.47,2.47,0,0,1-2.35-.87.81.81,0,0,0-.72-.33c-1.83.07-3.36-1-5.08-1.35s-3.2-.75-4.81-1.09c-1.43-.31-2.93-.24-4.32-.82a4.94,4.94,0,0,0-1.89-.2,48.07,48.07,0,0,1-5.35-.72,20.54,20.54,0,0,1-5-.75A8.2,8.2,0,0,0,70.92,94c-2.21-.09-4.35-.71-6.58-.69-1.36,0-2.76.27-4.1-.4-.48-.25-1.19,0-1.78-.08s-1.23.59-1.51-.1.5-1.27.85-1.68c1-1.14,1.92-2.3,2.92-3.42,1.54-1.73,3.09-3.44,4.77-5a38.36,38.36,0,0,0,2.71-3c1.18-1.38,2.73-2.36,4-3.68a30.48,30.48,0,0,1,3.14-2.53,1.15,1.15,0,0,0,.5-.76l3.81,2.43A1.79,1.79,0,0,0,79.63,75.29Z"/><path class="ef3a1046-e9af-4693-958d-bafa85074222" d="M120.82,122.94l.09.68c-.73.23-1.43-.15-2.15-.07a10,10,0,0,0-1.17-4.83l-.09-.46c0-.14,0-.29,0-.44.1-.54,0-.93-.64-1h0c0-.38.14-.87-.49-1h0c.09-1.45-1.13-2.23-1.7-3.34a.7.7,0,0,0-.48-.72l-.08-.47.37,0,.67.26c.63,1.16.73-.46,1.19-.22,1.17,1.4,1.6,3.16,2.34,4.77a21.74,21.74,0,0,1,1.74,6.49C120.42,122.85,120.47,123.07,120.82,122.94Z"/><path class="ef3a1046-e9af-4693-958d-bafa85074222" d="M116.31,111.32c-.46-.24-.56,1.38-1.19.22.17-1.15-1-1.64-1.25-2.61,0-.32-.1-.49-.42-.51h0a18.87,18.87,0,0,0-3.6-5.28c-.72-1.12-1.45-2.23-2.18-3.34.35,0,.49-.22.52-.53a20.46,20.46,0,0,1,3.21,4,80.7,80.7,0,0,1,4.85,7.55A1.41,1.41,0,0,1,116.31,111.32Z"/><path class="f5e98df8-28f2-48f6-9b1f-9da20d596cc0" d="M109.85,103.14a18.87,18.87,0,0,1,3.6,5.28c-1.21-.58-2-1.7-3-2.54a41.17,41.17,0,0,0-4.28-3.51c-.11-.08-.14-.27-.21-.41,1.07-.15,1.8.69,2.73,1A3.71,3.71,0,0,0,109.85,103.14Z"/><path class="ef3a1046-e9af-4693-958d-bafa85074222" d="M113.45,108.42c.32,0,.47.19.42.51A.45.45,0,0,1,113.45,108.42Z"/><path class="f5e98df8-28f2-48f6-9b1f-9da20d596cc0" d="M114.64,112.51c.57,1.11,1.79,1.89,1.7,3.34h-.72l0-.46a4.29,4.29,0,0,0-2.15-2.17h0c.08-.56-.28-.88-.63-1.22a33.38,33.38,0,0,0-4.23-3c-1.1-.77-2.62-.74-3.7-1.43a19,19,0,0,0-5.4-1.87,54.45,54.45,0,0,0-8.65-1.23,80.35,80.35,0,0,0-9.31-.24c-5.55.1-11.11-.08-16.64.62-1.21.16-2.44.15-3.66.39-1.65.33-3.34.36-5,.79-1.12.29-2.38-.15-3.51.47a.63.63,0,0,1-.86-.17c-.2-.33,0-.57.25-.83,1-1.21,2-2.47,3-3.67A30.84,30.84,0,0,0,58,97.86c3.4.52,6.88.26,10.25,1.13a5.11,5.11,0,0,0,1.3.07c3.48,0,6.89.8,10.36,1a15.18,15.18,0,0,0,2,.16,6.15,6.15,0,0,1,2.27.44,58.92,58.92,0,0,0,7,1.24c1.08.2,2.11.6,3.21.82a49,49,0,0,1,5.75,1.48c4.39,1.42,8.65,3,12.16,6.14a2.48,2.48,0,0,0,1.72.93c0,.16,0,.31.08.47a.47.47,0,0,0-.14.7C114.11,112.59,114.43,112.51,114.64,112.51Z"/><path class="bfe62aa4-61b0-46ea-9bd8-f6bb13c30286" d="M58,97.86a30.84,30.84,0,0,1-2.91,3.92c-1,1.2-2,2.46-3,3.67-.22.26-.45.5-.25.83a.63.63,0,0,0,.86.17c1.13-.62,2.39-.18,3.51-.47,1.66-.43,3.35-.46,5-.79,1.22-.24,2.45-.23,3.66-.39,5.53-.7,11.09-.52,16.64-.62a80.35,80.35,0,0,1,9.31.24,54.45,54.45,0,0,1,8.65,1.23,19,19,0,0,1,5.4,1.87c1.08.69,2.6.66,3.7,1.43a33.38,33.38,0,0,1,4.23,3c.35.34.71.66.63,1.22-.66.09-1.11-.36-1.62-.65a37.81,37.81,0,0,0-8.49-3.93c-1.12-.33-2.25-.69-3.4-1-3-.69-6.15-.65-9.19-1.07a59.66,59.66,0,0,0-9.62-.28,79,79,0,0,0-9.63.55c-1.91.28-3.91-.08-5.8.73-1,.43-2.27.1-3.43.29-2.86.49-5.73.94-8.6,1.45-2.24.4-4.44,1-6.64,1.53a9.42,9.42,0,0,0-3,.82,2,2,0,0,1-1.53,0c1.26-1.89,2.53-3.72,4-5.45,1-1.25,1.93-2.64,3-3.82s1.72-2.34,2.76-3.34A1.87,1.87,0,0,0,53,97.4Z"/><path class="f8b59c9d-8180-4cc8-a425-15c696e9dbfb" d="M113.45,113.22a4.29,4.29,0,0,1,2.15,2.17C114,115.53,114,114.12,113.45,113.22Z"/><path class="f5e98df8-28f2-48f6-9b1f-9da20d596cc0" d="M116.84,116.8c.62.09.74.48.64,1l-.66,0C116.83,117.45,116.84,117.12,116.84,116.8Z"/><path class="f5e98df8-28f2-48f6-9b1f-9da20d596cc0" d="M116.84,116.8c0,.32,0,.65,0,1-.8-.11-.38-.76-.51-1.17l0,0,.5.22Z"/><path class="f5e98df8-28f2-48f6-9b1f-9da20d596cc0" d="M115.62,115.85h.72c0,.25,0,.49,0,.73l0,0A.66.66,0,0,1,115.62,115.85Z"/><path class="f8b59c9d-8180-4cc8-a425-15c696e9dbfb" d="M117.5,118.26l.09.46c-.18,0-.43,0-.43-.23C117.16,118.41,117.38,118.34,117.5,118.26Z"/><path class="bfe62aa4-61b0-46ea-9bd8-f6bb13c30286" d="M82.82,58.88a13.11,13.11,0,0,1,4,3.92c-1,.88-2,1.77-3,2.64s-1.08,1.34.16,2.17a25.11,25.11,0,0,1,4.1,3c1.67,1.72,3.71,3,5.34,4.73s3.9,3.23,5.55,5.2a26.34,26.34,0,0,0,2.17,2.19,20.68,20.68,0,0,1,2.78,2.75c.94,1.32,2.21,2.31,3.12,3.64,1.55,2.28,3.43,4.33,4.94,6.63a51.4,51.4,0,0,1,4.57,8c1.07,2.49,2.23,5,3.1,7.52-1.31-.17-1.16-1.43-1.48-2.21a33.37,33.37,0,0,0-3.48-6.58c-1.44-2.06-2.85-4.15-4.42-6.1-1.85-2.31-3.76-4.58-5.73-6.76a45.2,45.2,0,0,0-5.34-5.38,14.74,14.74,0,0,1-2.92-2.88c-1-1.37-2.51-2.18-3.75-3.3-2.65-2.4-5.46-4.6-8.33-6.73-2.62-2-5.27-3.88-8-5.64-.36-.23-.87-.49-.79-1s.71-.88,1.19-1.24C78.63,62,80.94,60.71,82.82,58.88Z"/><path class="f5e98df8-28f2-48f6-9b1f-9da20d596cc0" d="M119.65,111.32c-.87-2.57-2-5-3.1-7.52a51.4,51.4,0,0,0-4.57-8c-1.51-2.3-3.39-4.35-4.94-6.63-.91-1.33-2.18-2.32-3.12-3.64a20.68,20.68,0,0,0-2.78-2.75A26.34,26.34,0,0,1,99,80.54c-1.65-2-3.83-3.34-5.55-5.2s-3.67-3-5.34-4.73a25.11,25.11,0,0,0-4.1-3c-1.24-.83-1.29-1.2-.16-2.17s2-1.76,3-2.64c1.4.61,2.1,2,3.11,3,1.18,1.18,2.38,2.35,3.55,3.54S95.27,72,96.64,72.9l.41.08a2,2,0,0,0,.59,1.27c2.24,2.7,4.45,5.42,6.58,8.22s4.21,5.26,6.14,8,3.66,5.33,5.32,8.12a73,73,0,0,1,3.36,7.1,16.63,16.63,0,0,1,.71,2.63,12.23,12.23,0,0,1,.66,4.65l-.71,0Z"/><path class="ef3a1046-e9af-4693-958d-bafa85074222" d="M108.19,99.27c0,.31-.17.52-.52.53-.16-.32-.75-.22-.71-.73a.7.7,0,0,0-.48-.72c-1.15-.45-1.55-1.63-2.31-2.45-1.59-1.72-3.22-3.39-4.91-5-1.93-1.83-3.75-3.81-5.84-5.45A39.43,39.43,0,0,0,90.33,83c-1.71-1.1-3.29-2.41-4.92-3.65s-3.67-2.46-5.32-3.94c-.1-.09-.31-.07-.46-.09a1.79,1.79,0,0,1,0-.23c0-.35.23-.47.53-.51a.43.43,0,0,1,.18.06c.1.56.54.63,1,.68a62.76,62.76,0,0,1,6.94,4.83A98.47,98.47,0,0,1,97.93,88c3,2.94,6.18,5.82,8.6,9.33,0,.36.08.56.47.54h0c0,.49.22.72.69.74h0a.42.42,0,0,0,.43.5A.4.4,0,0,1,108.19,99.27Z"/><path class="f5e98df8-28f2-48f6-9b1f-9da20d596cc0" d="M119.7,113l.71,0c0,.38,0,.77,0,1.15,0,.18,0,.36-.07.55C119.6,114.33,120,113.51,119.7,113Z"/><path class="f5e98df8-28f2-48f6-9b1f-9da20d596cc0" d="M120.39,114.68c0-.19,0-.37.07-.55.77.56.31,1.33.35,2C120.11,115.82,120.53,115.17,120.39,114.68Z"/><path class="ef3a1046-e9af-4693-958d-bafa85074222" d="M81.31,75.29c-.45-.05-.89-.12-1-.68C80.75,74.68,81.18,74.78,81.31,75.29Z"/><path class="ef3a1046-e9af-4693-958d-bafa85074222" d="M107.69,98.58c-.47,0-.73-.25-.69-.74A.76.76,0,0,1,107.69,98.58Z"/><path class="ef3a1046-e9af-4693-958d-bafa85074222" d="M108.12,99.08a.42.42,0,0,1-.43-.5A.43.43,0,0,1,108.12,99.08Z"/><path class="ef3a1046-e9af-4693-958d-bafa85074222" d="M107,97.84c-.39,0-.52-.18-.47-.54C106.79,97.39,107,97.53,107,97.84Z"/><path class="ff61fccd-9ea9-4173-8c47-f096264b9e93" d="M125.38,118.47c.86-1.75,2.39-3.28,3.4-4.93.25-.41-.59-.36,0-.58a9.43,9.43,0,0,0,1-1.72c1.31-2.4,3.27-3.5,4.92-5.63a44.87,44.87,0,0,1,4.62-4.63,4.33,4.33,0,0,0,2.56-1c1.23-.82,2.86-.87,3.82-2.1.05-.07.23,0,.34,0,2.05-.18,3.9-1.26,6-1.24.23,0,.3-.23.33-.44,3.5-.68,7-.44,10.57-.49a.48.48,0,0,0,.56.48,16.44,16.44,0,0,1,4.57.46c1.55.4,3.18.58,4.75.9a66.52,66.52,0,0,1,6.58,2.16A2.31,2.31,0,0,1,180.8,101c.81,1.93,1.34,4,2.23,5.89.74,1.58,1.3,3.25,1.93,4.88-2,.33-4-.34-6-.59-2.55-.31-5.08-.83-7.63-1.18-2.26-.3-4.51-.66-6.77-1a2.72,2.72,0,0,0-.46-.1c-3.62.19-7.21-1-10.79-.45-3.28.54-6.65.24-9.85,1.18-2.17.64-4.31,1.39-6.48,2a23.2,23.2,0,0,0-5.22,2.23c-1.34.72-2.88,1.32-3.86,2.75A4.59,4.59,0,0,1,125.38,118.47Z"/><path class="fcfded2e-fade-453b-9f74-afc61ea9120c" d="M179.73,110.84s-8.24-.23-10.17-1.07c-2.75-.4-2.75-.4-7.71-.88-.25-.58,1.18-5.13.44-5.36-2.2-.69,2.75-3.28.5-3.73-1.57-.32,1.57-1.83,0-2.23s2.19-1.43.65-1.39a.48.48,0,0,1-.56-.48.78.78,0,0,1,.76-.23c2.59.22,5.15-.1,7.8.56,2.47.62,5.12.84,7.64,1.4,2.82.62,5.75.75,8.43,2,.71.34,1.65.08,2.33.74a11.27,11.27,0,0,1,2,2.75c.79,1.44,1.48,2.93,2.33,4.34a27.08,27.08,0,0,1,3.09,5.64,2.2,2.2,0,0,0,.58.73c.26.25.42.53.21.84s-.58.22-.88.14a71.5,71.5,0,0,0-7.93-1.64,8.74,8.74,0,0,0-2.65-.48,3.06,3.06,0,0,0-1.15.26C184.7,112.35,180,111.11,179.73,110.84Z"/><path class="acb891aa-37aa-404f-9c33-94c38f1b6939" d="M152.32,96.19c0,.21-.1.44-.33.44-2.09,0-3.94,1.06-6,1.24-.11,0-.29,0-.34,0-1,1.23-2.59,1.28-3.82,2.1-.67.45-4.11,2.85-5.1,2.8.38-.89,3.84-3.07,4.49-3.75.13,0,.55-.47.68-.49.85-.72,1.19-.54,2.19-.69,1.53-.23,3-.91,4.49-1.28A14.83,14.83,0,0,1,152.32,96.19Z"/><path class="ac268a8f-ca5e-40f2-970e-35e5f3670b37" d="M186.16,114.67c-.63-.39-.62-1.06-.72-1.68A1.64,1.64,0,0,1,186.16,114.67Z"/><path class="b4bf140f-063f-4429-a4de-8411fe20c1cb" d="M106.65,133.77a1.44,1.44,0,0,1,.43-.91c.66,0,.65.67,1,1.08C107.53,134.12,107.05,134.26,106.65,133.77Z"/><path class="fe7399df-aab2-4484-a1d2-630047eaa96e" d="M121.08,123.59l.55,0-.09.55A.5.5,0,0,1,121.08,123.59Z"/><path class="f1242dc7-198d-4b7c-8766-16e568e79830" d="M98.35,126.68c-.6.58-1.21,0-1.8,0-1-.1-2-.28-3-.44C95,124.39,96.6,124.54,98.35,126.68Z"/><path class="ef3a1046-e9af-4693-958d-bafa85074222" d="M106.48,98.35a.7.7,0,0,1,.48.72C106.48,99,106.48,98.7,106.48,98.35Z"/><path class="f5e98df8-28f2-48f6-9b1f-9da20d596cc0" d="M114.64,112.51c-.21,0-.53.08-.62,0a.47.47,0,0,1,.14-.7A.7.7,0,0,1,114.64,112.51Z"/><path class="f5e98df8-28f2-48f6-9b1f-9da20d596cc0" d="M116.33,116.58c0-.24,0-.48,0-.73.63.08.45.57.49,1Z"/><path class="f8b59c9d-8180-4cc8-a425-15c696e9dbfb" d="M185,112.6l-5.26-1.76-5.9-.34-4.12-.67-7.86-.94-.24,2.28,11.4,1.41,6.68,1.2,3.56.74,2.9.4.21.48,1,0,.27-.23-1.87-2.05A1.9,1.9,0,0,0,185,112.6Z"/></g><g id="a8a43cf7-e8d7-475a-8f31-3c8d7b45c20e" data-name="Main"><path class="a46c03eb-11d8-4b48-b24f-7e1789fec289" d="M210.83,140.85a35.7,35.7,0,0,0,4-.19c6.21-.67,5.83-10.12-.41-10.13a7.36,7.36,0,0,0-1.16.1c-.41.07-.6-.2-.91-.13v1.17c.46.1,1,0,1.4.26a1.64,1.64,0,0,1-.69,3,19.46,19.46,0,0,1-2.16,0H133.05c-.65,0-1.07,0-1.31.81a1.89,1.89,0,0,1-1.88,1.26c-8,0-16.06.13-24.09-.07l-1.21,0a1.39,1.39,0,0,1-1.58-1l-.09-.25a1.52,1.52,0,0,0-1.52-.8q-38.13,0-76.25,0h-2c-1.23,0-2-.61-2-1.6s.63-1.65,1.72-1.68a2,2,0,0,0,.35-.05l.07-.69,0-.47h-.13c-1.52,0-3,0-4.56,0a7.16,7.16,0,0,0-3.26.89,4.58,4.58,0,0,0-2.75,4.35,5,5,0,0,0,3.59,4.57,13,13,0,0,0,3.73.5q8.28,0,16.56,0a8.34,8.34,0,0,1,2.12.29,3.45,3.45,0,0,1,2.23,1.72,3.07,3.07,0,0,1-.31,3.32,4.58,4.58,0,0,1-3.44,1.65,60.37,60.37,0,0,1-8.61.22,5,5,0,0,0-5,3.1,4.9,4.9,0,0,0,0,4.07A5,5,0,0,0,28,157.9q36.71-.08,73.42,0a2.93,2.93,0,0,1,1.07,0c.76.33,1.81.16,2.23,1.07a1.81,1.81,0,0,1-1.56,2.48,11.66,11.66,0,0,0-2.34.45c-1.21.34-2.07,1.3-2,2.21a2.34,2.34,0,0,0,2.47,1.93c14.44,0,28.88,0,43.31,0a2,2,0,0,0,2-2.52c-.18-1.31-1.89-2.26-3.65-2a44.09,44.09,0,0,1-9.54-.06,1.75,1.75,0,0,1-1.5-1.28,1.28,1.28,0,0,1,.82-1.65,7.18,7.18,0,0,1,2.47-.68q15.24.07,30.47,0a10.2,10.2,0,0,0,3.49-.4,4.2,4.2,0,0,0,2.74-2.56c.36-1,.19-1.49-.25-1.87a2.76,2.76,0,0,1,1.67-5l29.63.19a2.76,2.76,0,0,0,2.77-2.59h0C205.76,139.85,208.13,140.86,210.83,140.85Z"/><path class="f83f46eb-6f24-4996-80b7-5938d7d11eff" d="M109,153.53q-27.78,0-55.56,0A3.75,3.75,0,0,1,50,151.31,4.32,4.32,0,0,1,50,148a3.73,3.73,0,0,1,3.79-2.55,42.89,42.89,0,0,0,6.51-.19,3.32,3.32,0,0,0,2.6-1.36,2.71,2.71,0,0,0,.24-2.73,2.68,2.68,0,0,0-1.69-1.43,6.12,6.12,0,0,0-1.6-.23q-6.27,0-12.53,0a9,9,0,0,1-2.83-.42,4.07,4.07,0,0,1-2.71-3.76,3.81,3.81,0,0,1,2.08-3.59,5.19,5.19,0,0,1,2.47-.73h3.54v.39l-.05.57a2.51,2.51,0,0,1-.27,0,1.21,1.21,0,0,0-1.3,1.38c0,.82.56,1.3,1.49,1.32.52,0,1,0,1.54,0q28.86,0,57.7,0a1.13,1.13,0,0,1,1.15.67l.07.2a1,1,0,0,0,1.19.78l.92,0c6.07.16,12.15.05,18.23.05a1.43,1.43,0,0,0,1.42-1c.18-.64.5-.67,1-.67h58.9a12.79,12.79,0,0,0,1.64,0,1.21,1.21,0,0,0,1.07-1,1.34,1.34,0,0,0-.55-1.45c-.33-.22-.71-.13-1.06-.21v-1c.24-.05.38.16.69.11a5.14,5.14,0,0,1,.88-.08c4.72,0,5,7.8.31,8.35a25.62,25.62,0,0,1-3,.15c-2,0-3.84-.82-3.84,4h0a2.16,2.16,0,0,1-2.09,2.13l-22.42-.16c-2,0-2.79,2.67-1.26,4.09.33.31.46.76.19,1.54a3.33,3.33,0,0,1-2.08,2.11,7.06,7.06,0,0,1-2.64.33c-7.68,0-15.37,0-23,0Z"/><path class="a33f4064-6333-4ea1-9383-7b8d722cc053" d="M212.35,130.5v1.17c-.76,0-1.51.07-2.27.05-9.24-.21-18.5.47-27.73-.37a1.76,1.76,0,0,0-.57.14,11.36,11.36,0,0,0-3.08-.2,1.1,1.1,0,0,0-1.21-.2c-2.74-.49-5.53-.66-8.29-.9-4.55-.39-9.1-1-13.7-.95-6.93,0-13.85-.15-20.67,1.42-.29-.13-.46,0-.58.26l-1.1.15a.34.34,0,0,0-.49.2,2.11,2.11,0,0,0-1.18.26l-2.28.25a7.38,7.38,0,0,1-.66-1.11c-.86-2.3-2.69-3.78-4.47-5.3-.45-.39-1.25-.26-1.52-1a1.68,1.68,0,0,1,.9-1.64,1.77,1.77,0,0,0,1-1.6h0a1.05,1.05,0,0,0,1.2-1l.48-.72c.35,0,.69,0,.72-.48a.54.54,0,0,1,.47-.24.46.46,0,0,0,.5-.47,1.44,1.44,0,0,0,.73-.36,40.37,40.37,0,0,1,12.13-5.34c1.5-.37,3.08-.52,4.54-.92a21.44,21.44,0,0,1,4.94-.72,76.39,76.39,0,0,1,11.41.23c3.13.37,6.29.62,9.41,1.11,2.9.45,5.82.81,8.67,1.5a47.49,47.49,0,0,0,6.46,1.14h0c.18.75.78.38,1.22.46,1-.12,1.86.39,2.8.46,1.9.14,3.77.58,5.63.9,3.26.54,6.57.79,9.8,1.53a4.29,4.29,0,0,0,1.45,1.91h0c0,.51-.06,1,.68,1a2.56,2.56,0,0,0,1.13,1.82c.93.67,1.24,1.9,1.8,2.89a20.81,20.81,0,0,1,1.17,2.93l-4.05,0c-.12-.56-.58-.44-1-.44-3.7,0-7.41,0-11.11,0-.26,0-.66-.18-.78.45,4-.13,7.9.77,11.87.5,1.7.12,3.41-.24,5.09.24A1.88,1.88,0,0,1,212.35,130.5Zm-75.62-13.42h0l1.65-.06c.31,0,.46-.13.54-.4a7.37,7.37,0,0,0,2.23-.35,33.92,33.92,0,0,1,6.45-1.34c3.65-.53,7.33-.26,11-.25a28.65,28.65,0,0,1,4.63.4c2.56.42,5.16.62,7.7,1.22a59.15,59.15,0,0,0,6.21,1,57.82,57.82,0,0,0,6.11.94c.14.55.59.46,1,.45a17.94,17.94,0,0,1,4.91.86c2.63.68,5.36.77,8,1.52a.74.74,0,0,0,1-.27c-1.6-.77-3.37-.78-5-1.32a54.91,54.91,0,0,0-5.48-1.16c-.86-.18-1.67-.75-2.61-.56a4.21,4.21,0,0,1-.95-.07,73,73,0,0,0-7.44-1.61c-2.73-.59-5.5-1-8.27-1.42a74.49,74.49,0,0,0-9.06-1c-2.94,0-5.87-.3-8.83-.07-1.74.13-3.46.46-5.16.69a29.59,29.59,0,0,0-4.14.92A29.72,29.72,0,0,1,137,116.6c-.35,0-.67,0-.77.42l-.21,0c-1.53,0-2.72,1-4.07,1.5-.44.17-1.21.1-1.22.92a3.63,3.63,0,0,0-3.17,1.59,7.9,7.9,0,0,0,3.44-1.58,3.15,3.15,0,0,0,2-.59c1-.48,2.35-.44,3.09-1.5C136.28,117.32,136.59,117.4,136.73,117.08Zm-.74,9.35c-.42,0-.88-.14-1.26.14-.13.09-.06.29.09.41.46.37.9,0,1.35-.06s.53-.14.56-.48c2.43-.25,4.72-1.3,7.2-1.31.09,0,.17-.23.26-.36l1.65,0c.56-.06,1.17.22,1.68-.23H158.8c1.44.47,3,.14,4.44.54a7.83,7.83,0,0,0,3.57,0c-2.3-.2-4.47-1.16-6.81-1l-2.6,0c-.12-.47-.49-.44-.85-.44h-8.93c-.36,0-.73,0-.86.43-1.47-.22-2.84.41-4.27.52s-2.89.73-4.36.93A4.31,4.31,0,0,0,136,126.43Zm-2.15-3.59c.66.2,1.1-.36,1.65-.52a67.52,67.52,0,0,1,8.21-1.81,66.42,66.42,0,0,1,9.65-1.07c4.23-.08,8.43.24,12.64.52.07.41.36.46.71.47a14.66,14.66,0,0,1,4.78.67,1.58,1.58,0,0,0,1.65-.24c-2.19-.91-4.46-.94-6.65-1.38l-1.18,0c-.29-.82-1-.33-1.47-.44-1.43-.06-2.86-.15-4.29-.21a91.37,91.37,0,0,0-16.61.69c-.19,0-.37.13-.57.17-1.33.34-2.68.63-4,1a15.64,15.64,0,0,0-4.53,1.67c-1.28,0-2.25.91-3.41,1.29a.29.29,0,0,0-.1.42c0,.08.22.19.28.16C131.71,123.82,133,123.76,133.84,122.84Zm67.73,3c2.59-.09,5.13.43,7.7.56.31,0,.82.17.82-.39s-.47-.52-.88-.56-.89.22-1.4.16A16.6,16.6,0,0,0,201.57,125.86Z"/><path class="a33f4064-6333-4ea1-9383-7b8d722cc053" d="M23.18,131.66c0-.23.05-.46.07-.69a63.46,63.46,0,0,0,6.47-.38c3.38-.27,6.79-.08,10.18-.1a1.43,1.43,0,0,0,1.36-.4H23.74l-.08-.08a2.39,2.39,0,0,1,.59-1.84,4.34,4.34,0,0,0,.63-1.76,6.48,6.48,0,0,1,1.78-3.07c1.12-1.07,1.71-2.72,2.52-4.12.18-.3.35-.62.52-.93.83.13,1.52-.41,2.31-.48,3.14-.27,6.21-.93,9.29-1.48,3.46-.61,6.88-1.41,10.32-2.12,3.06-.64,6.13-1.25,9.19-1.9,2.2-.47,4.37-1,6.59-1.43s4.63-.86,6.95-1.16a64.18,64.18,0,0,1,8.19-.82c5.3,0,10.61-.28,15.85.75a33.07,33.07,0,0,1,5.43,1.31,26,26,0,0,1,6.2,3.3,23.5,23.5,0,0,1,7.75,9.26,12.74,12.74,0,0,0-8,2.54c-2.08,1.43-3.08,3.7-4.43,5.7-.23-.24-.44-.53-.84-.34a33.4,33.4,0,0,0-6.09-1.48,99,99,0,0,0-14.17-.89c-2.77-.06-5.58.15-8.37.29-4.86.26-9.71.63-14.55,1q-5,.44-10,.68l-.25,0-2,.15c-1.54.15-3.11-.1-4.64.31a4.84,4.84,0,0,0-1.78,0C36.12,131.92,29.65,131.7,23.18,131.66Zm89.06-12.19a.44.44,0,0,0-.47-.49,20.5,20.5,0,0,0-7.53-4.82c-.85-.31-1.48-1.23-2.55-.94a41.47,41.47,0,0,0-11.47-1.43c-2.5-.52-5,.11-7.49,0a37.46,37.46,0,0,0-6.17.47c-4.45.53-8.85,1.31-13.24,2.16-1.39.27-2.67,1-4.11,1-2.08.32-4.09.92-6.13,1.44s-3.87,1-5.81,1.44c-.28.07-.76-.1-.7.4s.5.32.79.28c1-.16,2-.55,3-.79,2.75-.65,5.51-1.28,8.29-1.81.3-.06.55-.09.6-.44a23,23,0,0,0,3.24-.47c3-.3,5.91-1,8.87-1.42,2.67-.4,5.35-.79,8-1,3.34-.22,6.71,0,10.07,0v4.09c-.4,0-.79,0-1.19,0-4.26-.15-8.47.51-12.71.72a26.68,26.68,0,0,1-5.5.5.56.56,0,0,0-.12,0,33.27,33.27,0,0,1-7.08,1.12c-.8,0-1.37.49-2.38.8a6.08,6.08,0,0,0,2.34.07c1.75-.26,3.42-.93,5.22-.86a12.3,12.3,0,0,0,3.07-.34,10.46,10.46,0,0,1,2.93-.29c.75,0,1.83.38,2.48-.54l10.55,0c2,0,1.91,0,2.24,2,.19,1.16-.29,1.23-1.16,1.06a3.86,3.86,0,0,0-.57-.12c-4.11-.23-8.21.19-12.31.21-.2,0-.39.06-.59.08l-8,.88c-.39,0-.86-.17-1,.42l-1.66,0a61.18,61.18,0,0,0-7.92,1.33c.42.15.9.4,1.23.27,1.2-.48,2.49-.15,3.64-.46a22.54,22.54,0,0,0,3.29-.66c3.05-.54,6.16-.35,9.23-.86,2.45-.4,5-.09,7.51-.31,2.87-.25,5.73.28,8.6.24l.12,2.88c-.29.43-.57.91-1.21.66a5.3,5.3,0,0,0-2.13-.19c-4.3.07-8.61.2-12.92.22-2.18,0-4.32.45-6.48.63a39,39,0,0,0-6.1,1,24.59,24.59,0,0,0,7.38-.26c3.28-.55,6.57-.27,9.85-.71a36.85,36.85,0,0,1,10.68.33c.41.07.68.16.69.63s-.07,1,.46.94,1-.14,1.15-.81l.26-.08c.31.06.48,0,.5-.38l.41-.13c1.28.15,2.57.2,3.85.46a4.35,4.35,0,0,0,3-.12c.93.2,1.34,1.14,2.15,1.49,0,.34,0,.66.5.65a.69.69,0,0,0,.67-.56c.09-.24-.27-.88.46-.65.19.07.36.22.46,0s0-.54-.25-.58c-.86-.14-.55-.8-.67-1.3-.17-.69.65-1.24.37-1.75-.56-1-.27-2-.33-3,0-.78.21-1,1.11-.73s1.75,1,2.92.56l-4.11-2V119c.62-.78.14-1.67.28-2.5.08-.44-.18-1,.52-1.15a18.9,18.9,0,0,1,5.74,2.57,10.08,10.08,0,0,0,2.85,1.58l0,.45,2.18,2.17c.19.19.43.28.6,0s0-.45-.28-.51c-.49-.11-.55-.48-.73-.89a2,2,0,0,0-1.28-1.28ZM24.13,129c2.81.64,5.53-.05,8.27-.47C29.64,128.61,26.84,128.23,24.13,129Z"/><path class="f5e98df8-28f2-48f6-9b1f-9da20d596cc0" d="M122.08,88.51c.28,3.11,1,6.2.72,9.36a21.16,21.16,0,0,0-.25,4.07,25.64,25.64,0,0,1-.49,5.3c-.58-.11-.45-.58-.45-.95a11.72,11.72,0,0,0-.28-1.87c-.31-1.77-1.54-3.22-1.6-5a2.89,2.89,0,0,0-.34-1.25c-1.08-2.07-2-4.22-3.16-6.26a31,31,0,0,0-3.69-5.6c-1.52-1.72-2.72-3.69-4.24-5.44s-2.67-3.5-4.17-5.11c-1.13-1.2-2.22-2.47-3.21-3.74a42.32,42.32,0,0,0-3.38-4.08c-2.05-2-3.63-4.48-5.69-6.5-1.61-1.58-3-3.41-4.63-5s-1.4-2,.34-3.18c1.92-1.25,3.87-2.43,5.78-3.7s3.92-2.7,5.9-4c.17-.11.33-.62.74-.16,1.18,1.32,2.12,2.83,3.25,4.19,1.34,1.62,2.26,3.59,3.53,5.3,1,1.31,1.56,2.89,2.76,4.05a1.14,1.14,0,0,1,.28.38,22.26,22.26,0,0,0,2.78,5c1.77,2.82,3.12,5.83,4.65,8.75.85,1.62,1,3.5,2,5.09a7,7,0,0,1,.54,1.88c.31,1.09.51,2.22.86,3.28a15.25,15.25,0,0,1,1,4.24C121.62,88,121.48,88.42,122.08,88.51Z"/><path class="f8b59c9d-8180-4cc8-a425-15c696e9dbfb" d="M44.57,95.74c-.22-.73.52-.83.84-1.15,1.07-1.1,2.29-2.12,3.24-3.28s2.43-2.15,3.3-3.55a2.15,2.15,0,0,1,.86-.81c1.14-.46,1.57-1.6,2.36-2.39,1-1,2.11-1.9,3.17-2.85A14.76,14.76,0,0,0,61,79.1c.45-.68,1.47-1,2.17-1.61,1.45-1.22,2.9-2.45,4.39-3.62.79-.62,1.7-1.08,2.5-1.7s2-.82,2.12-2.11l3.65,2.57a1.15,1.15,0,0,1-.5.76,30.48,30.48,0,0,0-3.14,2.53c-1.23,1.32-2.78,2.3-4,3.68a38.36,38.36,0,0,1-2.71,3c-1.68,1.61-3.23,3.32-4.77,5-1,1.12-1.95,2.28-2.92,3.42-.35.41-1.1,1-.85,1.68s1,0,1.51.1,1.3-.17,1.78.08c1.34.67,2.74.4,4.1.4,2.23,0,4.37.6,6.58.69a8.2,8.2,0,0,1,2.49.16,20.54,20.54,0,0,0,5,.75,48.07,48.07,0,0,0,5.35.72,4.94,4.94,0,0,1,1.89.2c1.39.58,2.89.51,4.32.82,1.61.34,3.19.79,4.81,1.09s3.25,1.42,5.08,1.35a.81.81,0,0,1,.72.33,2.47,2.47,0,0,0,2.35.87L106,102c.07.14.1.33.21.41a41.17,41.17,0,0,1,4.28,3.51c1,.84,1.76,2,3,2.54h0a.45.45,0,0,0,.42.51c.22,1,1.42,1.46,1.25,2.61l-.67-.26a2.32,2.32,0,0,0-.78-1.18,20.53,20.53,0,0,0-5.77-3.94,51.37,51.37,0,0,0-10.84-3.7c-2.68-.64-5.39-1.16-8.09-1.72a30.83,30.83,0,0,0-4.52-.88c-2.51-.11-5-.61-7.45-.91-3-.37-6-.74-9.08-1.06-3.75-.39-7.53-.56-11.28-1C52.63,96.35,48.56,96.41,44.57,95.74Z"/><path class="f8b59c9d-8180-4cc8-a425-15c696e9dbfb" d="M117.77,123.52a23.5,23.5,0,0,0-7.75-9.26,26,26,0,0,0-6.2-3.3,33.07,33.07,0,0,0-5.43-1.31c-5.24-1-10.55-.75-15.85-.75a64.18,64.18,0,0,0-8.19.82c-2.32.3-4.64.76-6.95,1.16s-4.39,1-6.59,1.43c-3.06.65-6.13,1.26-9.19,1.9-3.44.71-6.86,1.51-10.32,2.12-3.08.55-6.15,1.21-9.29,1.48-.79.07-1.48.61-2.31.48L33,114.65s.1,0,.11,0c.67-1.81,2.4-2.7,3.53-4.12a32,32,0,0,1,4.23-4.57,17.81,17.81,0,0,0,1.66-2.15c1.44-1.74,3.15-3.24,4.57-5,.66-.81.7-1.3.12-2L53,97.4a1.87,1.87,0,0,1-.75,1.65c-1,1-1.77,2.27-2.76,3.34s-2,2.57-3,3.82c-1.42,1.73-2.69,3.56-4,5.45a2,2,0,0,0,1.53,0,9.42,9.42,0,0,1,3-.82c2.2-.55,4.4-1.13,6.64-1.53,2.87-.51,5.74-1,8.6-1.45,1.16-.19,2.43.14,3.43-.29,1.89-.81,3.89-.45,5.8-.73a79,79,0,0,1,9.63-.55,59.66,59.66,0,0,1,9.62.28c3,.42,6.15.38,9.19,1.07,1.15.26,2.28.62,3.4,1a37.81,37.81,0,0,1,8.49,3.93c.51.29,1,.74,1.62.65h0c.54.9.56,2.31,2.15,2.17l0,.46a.66.66,0,0,0,.69.75c.13.41-.29,1.06.51,1.17l.66,0,0,.44c-.12.08-.34.15-.34.23,0,.27.25.22.43.23a10,10,0,0,1,1.17,4.83Z"/><path class="f8b59c9d-8180-4cc8-a425-15c696e9dbfb" d="M66.13,64.85c0-.56.25-.81.8-1.12,1.29-.72,2.41-1.75,3.66-2.57,1.49-1,2.89-2.08,4.47-3s3.16-1.48,4.32-2.84l.23,0a12,12,0,0,0,2.18,2,2.1,2.1,0,0,1,1,1.5c-1.88,1.83-4.19,3.07-6.25,4.66-.48.36-1.08.63-1.19,1.24s.43.73.79,1c2.76,1.76,5.41,3.68,8,5.64,2.87,2.13,5.68,4.33,8.33,6.73,1.24,1.12,2.78,1.93,3.75,3.3a14.74,14.74,0,0,0,2.92,2.88,45.2,45.2,0,0,1,5.34,5.38c2,2.18,3.88,4.45,5.73,6.76,1.57,1.95,3,4,4.42,6.1a33.37,33.37,0,0,1,3.48,6.58c.32.78.17,2,1.48,2.21l0,1.64c.28.55-.1,1.37.69,1.72.14.49-.28,1.14.42,1.47v6.79c-.35.13-.4-.09-.43-.36a21.74,21.74,0,0,0-1.74-6.49c-.74-1.61-1.17-3.37-2.34-4.77a1.41,1.41,0,0,0-.06-.47,80.7,80.7,0,0,0-4.85-7.55,20.46,20.46,0,0,0-3.21-4,.4.4,0,0,0-.07-.19.43.43,0,0,0-.43-.5h0a.76.76,0,0,0-.69-.74h0c0-.31-.21-.45-.47-.54-2.42-3.51-5.55-6.39-8.6-9.33a98.47,98.47,0,0,0-9.68-7.85,62.76,62.76,0,0,0-6.94-4.83c-.13-.51-.56-.61-1-.68a.43.43,0,0,0-.18-.06c-.07-.25-.27-.36-.47-.5Q73.55,69.88,67.28,66C66.82,65.66,66.28,65.46,66.13,64.85Z"/><path class="f8b59c9d-8180-4cc8-a425-15c696e9dbfb" d="M185.44,112.75a3.06,3.06,0,0,1,1.15-.26,8.74,8.74,0,0,1,2.65.48,71.5,71.5,0,0,1,7.93,1.64c.3.08.67.16.88-.14s0-.59-.21-.84a2.2,2.2,0,0,1-.58-.73,27.08,27.08,0,0,0-3.09-5.64c-.85-1.41-1.54-2.9-2.33-4.34a11.27,11.27,0,0,0-2-2.75c-.68-.66-1.62-.4-2.33-.74-2.68-1.25-5.61-1.38-8.43-2-2.52-.56-5.17-.78-7.64-1.4-2.65-.66-5.21-.34-7.8-.56a.78.78,0,0,0-.76.23c-3.53,0-7.07-.19-10.57.49a14.83,14.83,0,0,0-3.73.42c-1.52.37-3,1-4.49,1.28-1,.15-2.94,1.21-4,.94a10.75,10.75,0,0,1,2.93-2,4.79,4.79,0,0,0,1.17-.49,8.16,8.16,0,0,1,2.57-.61,4.94,4.94,0,0,0,2.32-.5A16.09,16.09,0,0,1,153.84,94a44.55,44.55,0,0,0,5.49-.54,12.91,12.91,0,0,1,6.34.28c1.05.38,2.28.11,3.43.26,1.33.16,2.7.14,4,.3.78.09,1.57-.2,2.28.59.32.35,1.31.2,2,.11,1.64-.22,3,.71,4.5,1,.19,0,.38.19.56.17,1.94-.16,3.69.74,5.55,1,1.41.17,2.6,1.12,4.06,1a.55.55,0,0,1,.41.21c1,1.94,2.49,3.58,3.66,5.43.75,1.2,1.64,2.42,2.45,3.6s1.62,2.59,2.45,3.87c1.53,2.38,3.21,4.66,4.83,7l-.26,0c-3.23-.74-6.54-1-9.8-1.53-1.86-.32-3.73-.76-5.63-.9-.94-.07-1.82-.58-2.8-.46-1.74.2-.78-.38-1.22-.46h0"/><path class="ef3a1046-e9af-4693-958d-bafa85074222" d="M53,97.4l-5.77-.66c-.69,0-1.39-.07-2.09-.07-.54,0-.83-.16-.76-.73l.06-.19a.5.5,0,0,0,.17,0c4,.67,8.06.61,12.07,1.12,3.75.47,7.53.64,11.28,1,3,.32,6,.69,9.08,1.06,2.48.3,4.94.8,7.45.91a30.83,30.83,0,0,1,4.52.88c2.7.56,5.41,1.08,8.09,1.72a51.37,51.37,0,0,1,10.84,3.7,20.53,20.53,0,0,1,5.77,3.94,2.32,2.32,0,0,1,.78,1.18l-.37,0a2.48,2.48,0,0,1-1.72-.93c-3.51-3.16-7.77-4.72-12.16-6.14a49,49,0,0,0-5.75-1.48c-1.1-.22-2.13-.62-3.21-.82a58.92,58.92,0,0,1-7-1.24,6.15,6.15,0,0,0-2.27-.44,15.18,15.18,0,0,1-2-.16c-3.47-.25-6.88-1-10.36-1a5.11,5.11,0,0,1-1.3-.07c-3.37-.87-6.85-.61-10.25-1.13Z"/><path class="f5e98df8-28f2-48f6-9b1f-9da20d596cc0" d="M66.13,64.85c.15.61.69.81,1.15,1.1q6.28,3.92,12.39,8.1c.2.14.4.25.47.5-.3,0-.53.16-.53.51L75.8,72.63l-3.65-2.57c-2.14-1.31-4.29-2.61-6.43-3.94-.32-.19-.67-.48-.5-1S65.78,64.82,66.13,64.85Z"/><path class="f5e98df8-28f2-48f6-9b1f-9da20d596cc0" d="M79.61,55.34l-.23,0A15.86,15.86,0,0,0,76.62,53c-.43-.24-.07-.33.12-.43,1.33-.16,1.92.86,2.63,1.67Z"/><path class="e6bc4d0c-782c-45e2-94ba-baba52ee0ec2" d="M211.89,129.55c-1.68-.48-3.39-.12-5.09-.24.07-.66.62-.42,1-.51l4.05,0Z"/><path class="e6bc4d0c-782c-45e2-94ba-baba52ee0ec2" d="M23.14,130.51c.09-.26.21-.48.52-.5l.08.08c-.07.24-.19.42-.47.41Z"/><path class="b6ca3e58-3a04-4606-a10c-7953855d5d5a" d="M44.4,95.75l-.06.19-.12-.13Z"/><path class="b4bf140f-063f-4429-a4de-8411fe20c1cb" d="M181.78,131.49a1.76,1.76,0,0,1,.57-.14c9.23.84,18.49.16,27.73.37.76,0,1.51,0,2.27-.05.46.1,1,0,1.4.26a1.64,1.64,0,0,1-.69,3,19.46,19.46,0,0,1-2.16,0H133.05c-.65,0-1.07,0-1.31.81a1.89,1.89,0,0,1-1.88,1.26c-8,0-16.06.13-24.09-.07.4-.41.9-.22,1.36-.22h21.92a2.64,2.64,0,0,0,2-.6c.24-.23.45-.47.33-.83s-.45-.26-.71-.26a1.84,1.84,0,0,1-1.63-.93c.84-.74.26-1.56.16-2.36l2.28-.25a2,2,0,0,0,1.28.19l47.78,0C181,131.7,181.42,131.88,181.78,131.49Z"/><path class="b4bf140f-063f-4429-a4de-8411fe20c1cb" d="M104.51,131.42c.4-.19.61.1.84.34,0,.31-.06.62-.11.92-.14.93,0,1.56,1.19,1.37.28,1-.47,1.2-1.12,1.2a15.24,15.24,0,0,1-2.36-.38c0,.27,0,.59-.06.89a1.52,1.52,0,0,0-1.52-.8q-38.13,0-76.25,0h-2c-1.23,0-2-.61-2-1.6s.63-1.65,1.72-1.68a2,2,0,0,0,.35-.05c6.47,0,12.94.26,19.41-.13a4.84,4.84,0,0,1,1.78,0,2,2,0,0,0,1.18.14c3.54-.1,7.08.12,10.62.09,15.68-.13,31.36-.06,47-.07C103.64,131.71,104.19,132,104.51,131.42Z"/><path class="f6967412-ff8a-47b9-aeb6-65342efc7bc5" d="M102.89,135.76c0-.3,0-.62.06-.89a16.58,16.58,0,0,0,2.37.36c.65,0,1.39-.17,1.11-1.18l.22-.28a1.36,1.36,0,0,1,.43-.91,8.61,8.61,0,0,1,3.28-5.24,11.44,11.44,0,0,1,8.6-2.46,8.52,8.52,0,0,1,4.66,1.87,13.82,13.82,0,0,1,4.24,5.92c.24.58.45,1.14,1.18,1.19a1.84,1.84,0,0,0,1.65.9c.25,0,.59-.1.71.27s-.1.59-.34.82a2.57,2.57,0,0,1-2,.6H107.15c-.46,0-1-.17-1.38.24l-1.21,0L103,136Z"/><path class="e6bc4d0c-782c-45e2-94ba-baba52ee0ec2" d="M23.27,130.5c.28,0,.4-.17.47-.41H41.26a1.43,1.43,0,0,1-1.36.4c-3.39,0-6.8-.17-10.18.1a63.46,63.46,0,0,1-6.47.38C23.26,130.81,23.26,130.66,23.27,130.5Z"/><path class="b4bf140f-063f-4429-a4de-8411fe20c1cb" d="M103,136l1.58,1A1.39,1.39,0,0,1,103,136Z"/><path class="acb891aa-37aa-404f-9c33-94c38f1b6939" d="M186.16,114.67v.25a47.49,47.49,0,0,1-6.46-1.14c-2.85-.69-5.77-1-8.67-1.5-3.12-.49-6.28-.74-9.41-1.11a76.39,76.39,0,0,0-11.41-.23,21.44,21.44,0,0,0-4.94.72c-1.46.4-3,.55-4.54.92a40.37,40.37,0,0,0-12.13,5.34,1.44,1.44,0,0,1-.73.36.43.43,0,0,0-.5.47.54.54,0,0,0-.47.24c-.35,0-.7,0-.72.48l-.48.72c-.7,0-1.28,0-1.2,1h0c-.35,0-.49-.23-.53-.55a6.56,6.56,0,0,1,1.42-2.14,4.59,4.59,0,0,0,2.53-1.88c1-1.43,2.52-2,3.86-2.75a23.2,23.2,0,0,1,5.22-2.23c2.17-.56,4.31-1.31,6.48-2,3.2-.94,6.57-.64,9.85-1.18,3.58-.58,7.17.64,10.79.45a2.72,2.72,0,0,1,.46.1c2.26.33,4.51.69,6.77,1,2.55.35,5.08.87,7.63,1.18,2,.25,3.95.92,6,.59.26.27.58.51.48,1V113C185.54,113.61,185.53,114.28,186.16,114.67Z"/><path class="af24bf01-e3ec-49d4-b453-7903e3e543ee" d="M181.78,131.49c-.36.39-.83.21-1.24.21l-47.78,0a2,2,0,0,1-1.28-.19,2.11,2.11,0,0,1,1.18-.26c.31.31.42.1.49-.2l1.1-.15c.27.08.5.07.58-.26,6.82-1.57,13.74-1.41,20.67-1.42,4.6,0,9.15.56,13.7.95,2.76.24,5.55.41,8.29.9.32.58.76.44,1.21.2A11.36,11.36,0,0,1,181.78,131.49Z"/><path class="f704638a-efcd-4680-bd08-748743379fd8" d="M106.65,133.77l-.22.28c-1.15.19-1.33-.44-1.19-1.37.05-.3.07-.61.11-.92,1.35-2,2.35-4.27,4.43-5.7a12.74,12.74,0,0,1,8-2.54l1,0c.72-.08,1.42.3,2.15.07H121l.08,0a.5.5,0,0,0,.46.52,1.32,1.32,0,0,0,1,.29c.27.71,1.07.58,1.52,1,1.78,1.52,3.61,3,4.47,5.3a7.38,7.38,0,0,0,.66,1.11c.1.8.68,1.62-.16,2.36-.73,0-1-.59-1.19-1.16a13.93,13.93,0,0,0-4.24-5.92,8.49,8.49,0,0,0-4.67-1.88,11.41,11.41,0,0,0-8.59,2.46,8.51,8.51,0,0,0-3.27,5.22A1.44,1.44,0,0,0,106.65,133.77Z"/><path class="e6bc4d0c-782c-45e2-94ba-baba52ee0ec2" d="M137,116.6a29.72,29.72,0,0,0,4.13-1.35,29.59,29.59,0,0,1,4.14-.92c1.7-.23,3.42-.56,5.16-.69,3-.23,5.89,0,8.83.07a74.49,74.49,0,0,1,9.06,1c2.77.4,5.54.83,8.27,1.42a73,73,0,0,1,7.44,1.61,4.21,4.21,0,0,0,.95.07c-.37.86-1.14.27-1.7.48a57.82,57.82,0,0,1-6.11-.94,59.15,59.15,0,0,1-6.21-1c-2.54-.6-5.14-.8-7.7-1.22a28.65,28.65,0,0,0-4.63-.4c-3.66,0-7.34-.28-11,.25a33.92,33.92,0,0,0-6.45,1.34,7.37,7.37,0,0,1-2.23.35.41.41,0,0,0-.54.4l-1.65.06C136.81,116.92,136.89,116.76,137,116.6Z"/><path class="e6bc4d0c-782c-45e2-94ba-baba52ee0ec2" d="M165.3,119.45l1.18,0c0,.32-.19.45-.49.48-4.21-.28-8.41-.6-12.64-.52a66.42,66.42,0,0,0-9.65,1.07,67.52,67.52,0,0,0-8.21,1.81c-.55.16-1,.72-1.65.52v-.49a15.64,15.64,0,0,1,4.53-1.67c1.31-.39,2.66-.68,4-1,.2,0,.38-.14.57-.17a91.37,91.37,0,0,1,16.61-.69c1.43.06,2.86.15,4.29.21C164.12,119.83,164.8,119.33,165.3,119.45Z"/><path class="b7fa0a92-058b-4a0b-9541-2a32d649da17" d="M183.25,118.29c.56-.21,1.33.38,1.7-.48.94-.19,1.75.38,2.61.56a54.91,54.91,0,0,1,5.48,1.16c1.65.54,3.42.55,5,1.32a.74.74,0,0,1-1,.27c-2.6-.75-5.33-.84-8-1.52a17.94,17.94,0,0,0-4.91-.86C183.84,118.75,183.39,118.84,183.25,118.29Z"/><path class="b7fa0a92-058b-4a0b-9541-2a32d649da17" d="M207.78,128.8c-.36.09-.91-.15-1,.51-4,.27-7.88-.63-11.87-.5.12-.63.52-.45.78-.45,3.7,0,7.41,0,11.11,0C207.2,128.36,207.66,128.24,207.78,128.8Z"/><path class="e6bc4d0c-782c-45e2-94ba-baba52ee0ec2" d="M142.49,124.51c1.43-.11,2.8-.74,4.27-.52H157.4l2.6,0c-.27.46-.92,0-1.2.48H147.52c-.61-.3-1.21-.54-1.68.23l-1.65,0C143.63,124.64,143,125,142.49,124.51Z"/><path class="b7fa0a92-058b-4a0b-9541-2a32d649da17" d="M201.57,125.86a16.6,16.6,0,0,1,6.24-.23c.51.06.92-.22,1.4-.16s.89,0,.88.56-.51.4-.82.39C206.7,126.29,204.16,125.77,201.57,125.86Z"/><path class="b7fa0a92-058b-4a0b-9541-2a32d649da17" d="M142.49,124.51c.51.47,1.14.13,1.7.26-.09.13-.17.36-.26.36-2.48,0-4.77,1.06-7.2,1.31H136a4.31,4.31,0,0,1,2.14-1C139.6,125.24,141,124.53,142.49,124.51Z"/><path class="e6bc4d0c-782c-45e2-94ba-baba52ee0ec2" d="M158.8,124.51c.28-.46.93,0,1.2-.48,2.34-.19,4.51.77,6.81,1a7.83,7.83,0,0,1-3.57,0C161.78,124.65,160.24,125,158.8,124.51Z"/><path class="e6bc4d0c-782c-45e2-94ba-baba52ee0ec2" d="M157.4,124H146.76c.13-.46.5-.43.86-.43h8.93C156.91,123.56,157.28,123.53,157.4,124Z"/><path class="b7fa0a92-058b-4a0b-9541-2a32d649da17" d="M166,120c.3,0,.49-.16.49-.48,2.19.44,4.46.47,6.65,1.38a1.58,1.58,0,0,1-1.65.24,14.66,14.66,0,0,0-4.78-.67C166.35,120.42,166.06,120.37,166,120Z"/><path class="e6bc4d0c-782c-45e2-94ba-baba52ee0ec2" d="M130.7,119.47c0-.82.78-.75,1.22-.92,1.35-.51,2.54-1.47,4.07-1.5,0,.11,0,.22,0,.34-.74,1.06-2.06,1-3.09,1.5a3.15,3.15,0,0,1-2,.59Z"/><path class="acb891aa-37aa-404f-9c33-94c38f1b6939" d="M122.55,124.4a1.32,1.32,0,0,1-1-.29l.09-.55c.92-.87,1.17-2.27,2.33-3,0,.32.18.53.53.55a1.77,1.77,0,0,1-1,1.6A1.68,1.68,0,0,0,122.55,124.4Z"/><path class="b7fa0a92-058b-4a0b-9541-2a32d649da17" d="M133.84,122.35v.49c-.88.92-2.13,1-3.23,1.38-.06,0-.23-.08-.28-.16a.29.29,0,0,1,.1-.42C131.59,123.26,132.56,122.39,133.84,122.35Z"/><path class="b7fa0a92-058b-4a0b-9541-2a32d649da17" d="M130.7,119.47H131a7.9,7.9,0,0,1-3.44,1.58A3.63,3.63,0,0,1,130.7,119.47Z"/><path class="b7fa0a92-058b-4a0b-9541-2a32d649da17" d="M136,126.43h.74c0,.34-.25.45-.56.48s-.89.43-1.35.06c-.15-.12-.22-.32-.09-.41C135.11,126.29,135.57,126.47,136,126.43Z"/><path class="acb891aa-37aa-404f-9c33-94c38f1b6939" d="M124.49,121.16c-.08-.92.5-1,1.2-1A1.05,1.05,0,0,1,124.49,121.16Z"/><path class="e6bc4d0c-782c-45e2-94ba-baba52ee0ec2" d="M145.84,124.73c.47-.77,1.07-.53,1.68-.23C147,125,146.4,124.67,145.84,124.73Z"/><path class="e6bc4d0c-782c-45e2-94ba-baba52ee0ec2" d="M165.3,119.45c-.5-.12-1.18.38-1.47-.44C164.33,119.12,165,118.63,165.3,119.45Z"/><path class="af24bf01-e3ec-49d4-b453-7903e3e543ee" d="M178.7,131.29c-.45.24-.89.38-1.21-.2A1.1,1.1,0,0,1,178.7,131.29Z"/><path class="b5ef217c-099a-4a46-88bd-4d6e7dee99f0" d="M186.15,114.92c.44.08,1-.29,1.22.46C186.93,115.3,186.33,115.67,186.15,114.92Z"/><path class="acb891aa-37aa-404f-9c33-94c38f1b6939" d="M126.17,119.47c0-.49.37-.48.72-.48C126.86,119.48,126.52,119.48,126.17,119.47Z"/><path class="e6bc4d0c-782c-45e2-94ba-baba52ee0ec2" d="M137,116.6c-.08.16-.16.32-.23.49h0l-.53-.06C136.3,116.59,136.62,116.58,137,116.6Z"/><path class="acb891aa-37aa-404f-9c33-94c38f1b6939" d="M127.36,118.75a.43.43,0,0,1,.5-.47A.46.46,0,0,1,127.36,118.75Z"/><path class="b4bf140f-063f-4429-a4de-8411fe20c1cb" d="M134.83,130.66c-.08.33-.31.34-.58.26C134.37,130.66,134.54,130.53,134.83,130.66Z"/><path class="e6bc4d0c-782c-45e2-94ba-baba52ee0ec2" d="M138.39,117a.41.41,0,0,1,.54-.4C138.85,116.9,138.7,117.07,138.39,117Z"/><path class="b4bf140f-063f-4429-a4de-8411fe20c1cb" d="M133.15,131.07c-.07.3-.18.51-.49.2A.34.34,0,0,1,133.15,131.07Z"/><path class="e6bc4d0c-782c-45e2-94ba-baba52ee0ec2" d="M136.2,117l.53.06c-.14.32-.45.24-.7.31,0-.12,0-.23,0-.34Z"/><path class="f704638a-efcd-4680-bd08-748743379fd8" d="M90.22,111.79a41.47,41.47,0,0,1,11.47,1.43,1.48,1.48,0,0,1,.82,1.47,8.86,8.86,0,0,0-.17,4.31c0,.15,0,.31,0,.46-.67,2.67-.3,5.38-.3,8.07,0,.66.09,1.3-.84,1.35-.81-.35-1.22-1.29-2.15-1.49,0-.43-.25-.71-.71-.71-1.75-2.14-3.35-2.29-4.82-.46a1.55,1.55,0,0,0-1.29.83l-.41.13a.41.41,0,0,0-.5.38l-.26.08c-1.19.25-1.36-.5-1.34-1.41,0-.32.3-.66,0-1l-.12-2.88a20.67,20.67,0,0,0-.15-5.27c0-1.37,0-2.73,0-4.09C89.51,112.49,90.33,112.45,90.22,111.79Z"/><path class="af24bf01-e3ec-49d4-b453-7903e3e543ee" d="M104.51,131.42c-.32.56-.87.29-1.3.29-15.68,0-31.36-.06-47,.07-3.54,0-7.08-.19-10.62-.09a2,2,0,0,1-1.18-.14c1.53-.41,3.1-.16,4.64-.31l2-.15c.1.11.18.08.25,0q5-.24,10-.68c4.84-.41,9.69-.78,14.55-1,2.79-.14,5.6-.35,8.37-.29a99,99,0,0,1,14.17.89A33.4,33.4,0,0,1,104.51,131.42Z"/><path class="e6bc4d0c-782c-45e2-94ba-baba52ee0ec2" d="M89.43,117.1a20.67,20.67,0,0,1,.15,5.27c-2.87,0-5.73-.49-8.6-.24-2.51.22-5.06-.09-7.51.31-3.07.51-6.18.32-9.23.86l-.24-.48,1.66,0c.39,0,.87.21,1-.42l8-.88c.2,0,.39-.08.59-.08,4.1,0,8.2-.44,12.31-.21a3.86,3.86,0,0,1,.57.12c.87.17,1.35.1,1.16-1.06-.33-2-.24-2-2.24-2l-10.55,0a7.16,7.16,0,0,1-.93,0c-.66-.11,0-.31,0-.46,4.24-.21,8.45-.87,12.71-.72C88.64,117.1,89,117.09,89.43,117.1Z"/><path class="e6bc4d0c-782c-45e2-94ba-baba52ee0ec2" d="M90.22,111.79c.11.66-.71.7-.8,1.22-3.36,0-6.73-.18-10.07,0-2.68.18-5.36.57-8,1-3,.44-5.88,1.12-8.87,1.42a23,23,0,0,1-3.24.47v-.52c1.44,0,2.72-.71,4.11-1,4.39-.85,8.79-1.63,13.24-2.16a37.46,37.46,0,0,1,6.17-.47C85.23,111.9,87.72,111.27,90.22,111.79Z"/><path class="e6bc4d0c-782c-45e2-94ba-baba52ee0ec2" d="M89.7,125.25c.33.32,0,.66,0,1,0,.91.15,1.66,1.34,1.41-.1.67-.7.79-1.15.81s-.45-.56-.46-.94-.28-.56-.69-.63a36.85,36.85,0,0,0-10.68-.33c-3.28.44-6.57.16-9.85.71a24.59,24.59,0,0,1-7.38.26,39,39,0,0,1,6.1-1c2.16-.18,4.3-.61,6.48-.63,4.31,0,8.62-.15,12.92-.22a5.3,5.3,0,0,1,2.13.19C89.13,126.16,89.41,125.68,89.7,125.25Z"/><path class="e6bc4d0c-782c-45e2-94ba-baba52ee0ec2" d="M102.51,114.69a1.48,1.48,0,0,0-.82-1.47c1.07-.29,1.7.63,2.55.94a20.5,20.5,0,0,1,7.53,4.82v.48l0,0a10.08,10.08,0,0,1-2.85-1.58,18.9,18.9,0,0,0-5.74-2.57A.66.66,0,0,0,102.51,114.69Z"/><path class="b7fa0a92-058b-4a0b-9541-2a32d649da17" d="M75.53,117.8c0,.15-.63.35,0,.46a7.16,7.16,0,0,0,.93,0c-.65.92-1.73.58-2.48.54a10.46,10.46,0,0,0-2.93.29,12.3,12.3,0,0,1-3.07.34c-1.8-.07-3.47.6-5.22.86a6.08,6.08,0,0,1-2.34-.07c1-.31,1.58-.8,2.38-.8a33.27,33.27,0,0,0,7.08-1.12.56.56,0,0,1,.12,0A26.68,26.68,0,0,0,75.53,117.8Z"/><path class="b7fa0a92-058b-4a0b-9541-2a32d649da17" d="M101.21,128.88c.93,0,.84-.69.84-1.35,0-2.69-.37-5.4.3-8.07l4.1,2c-1.17.48-2-.26-2.92-.56s-1.15,0-1.11.73c.06,1-.23,2,.33,3,.28.51-.54,1.06-.37,1.75.12.5-.19,1.16.67,1.3.28,0,.34.34.25.58s-.27.11-.46,0c-.73-.23-.37.41-.46.65a.69.69,0,0,1-.67.56C101.25,129.54,101.21,129.22,101.21,128.88Z"/><path class="b7fa0a92-058b-4a0b-9541-2a32d649da17" d="M59.21,115.39v.52c-.05.35-.3.38-.6.44-2.78.53-5.54,1.16-8.29,1.81-1,.24-2,.63-3,.79-.29,0-.73.17-.79-.28s.42-.33.7-.4q2.91-.7,5.81-1.44C55.12,116.31,57.13,115.71,59.21,115.39Z"/><path class="b7fa0a92-058b-4a0b-9541-2a32d649da17" d="M92.24,127.05a1.55,1.55,0,0,1,1.29-.83c1,.16,2,.34,3,.44.59.06,1.2.6,1.8,0,.46,0,.67.28.71.71a4.35,4.35,0,0,1-3,.12C94.81,127.25,93.52,127.2,92.24,127.05Z"/><path class="b7fa0a92-058b-4a0b-9541-2a32d649da17" d="M24.13,129c2.71-.8,5.51-.42,8.27-.47C29.66,129,26.94,129.67,24.13,129Z"/><path class="b7fa0a92-058b-4a0b-9541-2a32d649da17" d="M64,122.82l.24.48A22.54,22.54,0,0,1,61,124c-1.15.31-2.44,0-3.64.46-.33.13-.81-.12-1.23-.27A61.18,61.18,0,0,1,64,122.82Z"/><path class="b7fa0a92-058b-4a0b-9541-2a32d649da17" d="M112.25,119.47a2,2,0,0,1,1.28,1.28c.18.41.24.78.73.89.28.06.44.26.28.51s-.41.16-.6,0L111.76,120A.44.44,0,0,0,112.25,119.47Z"/><path class="b7fa0a92-058b-4a0b-9541-2a32d649da17" d="M102.51,114.69a.66.66,0,0,1,.63.66c-.7.15-.44.71-.52,1.15-.14.83.34,1.72-.28,2.5A8.86,8.86,0,0,1,102.51,114.69Z"/><path class="b7fa0a92-058b-4a0b-9541-2a32d649da17" d="M66.66,122.37c-.13.63-.61.42-1,.42C65.8,122.2,66.27,122.38,66.66,122.37Z"/><path class="bd3338cf-d20e-4878-9ab3-5d41de45aa5c" d="M91.33,127.56a.41.41,0,0,1,.5-.38C91.81,127.51,91.64,127.62,91.33,127.56Z"/><path class="b7fa0a92-058b-4a0b-9541-2a32d649da17" d="M112.25,119.47a.44.44,0,0,1-.49.48l0-.45,0,0h.48Z"/><path class="b7fa0a92-058b-4a0b-9541-2a32d649da17" d="M112.24,119.47h-.47V119A.44.44,0,0,1,112.24,119.47Z"/><path class="b4bf140f-063f-4429-a4de-8411fe20c1cb" d="M51.29,131.06c-.07.11-.15.14-.25,0Z"/><path class="f5e98df8-28f2-48f6-9b1f-9da20d596cc0" d="M79.61,55.34l-.24-1.15A27.33,27.33,0,0,1,83.59,58c2.64,2.57,5.2,5.22,7.76,7.86.92.95,1.74,2,2.6,3-.32,0-.43.19-.44.48C92.34,68.14,91.14,67,90,65.79c-1-1-1.71-2.38-3.11-3a13.11,13.11,0,0,0-4-3.92,2.1,2.1,0,0,0-1-1.5A12,12,0,0,1,79.61,55.34Z"/><path class="ef3a1046-e9af-4693-958d-bafa85074222" d="M93.51,69.33c0-.29.12-.48.44-.48.81,1,2,1.58,2.46,2.82.08.41.16.82.23,1.23C95.27,72,94.58,70.5,93.51,69.33Z"/><path class="f8b59c9d-8180-4cc8-a425-15c696e9dbfb" d="M121.88,115.91a42.94,42.94,0,0,0-.58-5.3l.57.22A13.88,13.88,0,0,1,121.88,115.91Z"/><path class="ef3a1046-e9af-4693-958d-bafa85074222" d="M96.64,72.9c-.07-.41-.15-.82-.23-1.23.24.26.47.52.71.77v.47l-.08.07Z"/><path class="ef3a1046-e9af-4693-958d-bafa85074222" d="M97.13,72.91v-.47a.46.46,0,0,1,.46.48Z"/><path class="f5e98df8-28f2-48f6-9b1f-9da20d596cc0" d="M106,102l-3.11-1.69c-.54-.71-1.45-.83-2.11-1.36a27.89,27.89,0,0,0-4.86-2.65,43,43,0,0,0-5.73-2.21,36.05,36.05,0,0,0-5.31-1.87c-1.83-.37-3.62-.94-5.37-1.47a65.7,65.7,0,0,0-9.87-2.2,1.17,1.17,0,0,1-1-.59c-.21-.41.1-.66.33-.93,1-1.21,2.12-2.38,3.07-3.65a49.24,49.24,0,0,1,4.25-4.87c1.07-1.1,2.51-1.82,3.32-3.18.15,0,.36,0,.46.09,1.65,1.48,3.57,2.61,5.32,3.94s3.21,2.55,4.92,3.65a39.43,39.43,0,0,1,3.09,2.48c2.09,1.64,3.91,3.62,5.84,5.45,1.69,1.61,3.32,3.28,4.91,5,.76.82,1.16,2,2.31,2.45,0,.35,0,.69.48.72,0,.51.55.41.71.73l2.18,3.34a3.71,3.71,0,0,1-1.13-.22C107.79,102.65,107.06,101.81,106,102Z"/><path class="bfe62aa4-61b0-46ea-9bd8-f6bb13c30286" d="M79.63,75.29c-.81,1.36-2.25,2.08-3.32,3.18a49.24,49.24,0,0,0-4.25,4.87c-1,1.27-2,2.44-3.07,3.65-.23.27-.54.52-.33.93a1.17,1.17,0,0,0,1,.59,65.7,65.7,0,0,1,9.87,2.2c1.75.53,3.54,1.1,5.37,1.47a36.05,36.05,0,0,1,5.31,1.87,43,43,0,0,1,5.73,2.21,27.89,27.89,0,0,1,4.86,2.65c.66.53,1.57.65,2.11,1.36a2.47,2.47,0,0,1-2.35-.87.81.81,0,0,0-.72-.33c-1.83.07-3.36-1-5.08-1.35s-3.2-.75-4.81-1.09c-1.43-.31-2.93-.24-4.32-.82a4.94,4.94,0,0,0-1.89-.2,48.07,48.07,0,0,1-5.35-.72,20.54,20.54,0,0,1-5-.75A8.2,8.2,0,0,0,70.92,94c-2.21-.09-4.35-.71-6.58-.69-1.36,0-2.76.27-4.1-.4-.48-.25-1.19,0-1.78-.08s-1.23.59-1.51-.1.5-1.27.85-1.68c1-1.14,1.92-2.3,2.92-3.42,1.54-1.73,3.09-3.44,4.77-5a38.36,38.36,0,0,0,2.71-3c1.18-1.38,2.73-2.36,4-3.68a30.48,30.48,0,0,1,3.14-2.53,1.15,1.15,0,0,0,.5-.76l3.81,2.43A1.79,1.79,0,0,0,79.63,75.29Z"/><path class="ef3a1046-e9af-4693-958d-bafa85074222" d="M120.82,122.94l.09.68c-.73.23-1.43-.15-2.15-.07a10,10,0,0,0-1.17-4.83l-.09-.46c0-.14,0-.29,0-.44.1-.54,0-.93-.64-1h0c0-.38.14-.87-.49-1h0c.09-1.45-1.13-2.23-1.7-3.34a.7.7,0,0,0-.48-.72l-.08-.47.37,0,.67.26c.63,1.16.73-.46,1.19-.22,1.17,1.4,1.6,3.16,2.34,4.77a21.74,21.74,0,0,1,1.74,6.49C120.42,122.85,120.47,123.07,120.82,122.94Z"/><path class="ef3a1046-e9af-4693-958d-bafa85074222" d="M116.31,111.32c-.46-.24-.56,1.38-1.19.22.17-1.15-1-1.64-1.25-2.61,0-.32-.1-.49-.42-.51h0a18.87,18.87,0,0,0-3.6-5.28c-.72-1.12-1.45-2.23-2.18-3.34.35,0,.49-.22.52-.53a20.46,20.46,0,0,1,3.21,4,80.7,80.7,0,0,1,4.85,7.55A1.41,1.41,0,0,1,116.31,111.32Z"/><path class="f5e98df8-28f2-48f6-9b1f-9da20d596cc0" d="M109.85,103.14a18.87,18.87,0,0,1,3.6,5.28c-1.21-.58-2-1.7-3-2.54a41.17,41.17,0,0,0-4.28-3.51c-.11-.08-.14-.27-.21-.41,1.07-.15,1.8.69,2.73,1A3.71,3.71,0,0,0,109.85,103.14Z"/><path class="ef3a1046-e9af-4693-958d-bafa85074222" d="M113.45,108.42c.32,0,.47.19.42.51A.45.45,0,0,1,113.45,108.42Z"/><path class="f5e98df8-28f2-48f6-9b1f-9da20d596cc0" d="M114.64,112.51c.57,1.11,1.79,1.89,1.7,3.34h-.72l0-.46a4.29,4.29,0,0,0-2.15-2.17h0c.08-.56-.28-.88-.63-1.22a33.38,33.38,0,0,0-4.23-3c-1.1-.77-2.62-.74-3.7-1.43a19,19,0,0,0-5.4-1.87,54.45,54.45,0,0,0-8.65-1.23,80.35,80.35,0,0,0-9.31-.24c-5.55.1-11.11-.08-16.64.62-1.21.16-2.44.15-3.66.39-1.65.33-3.34.36-5,.79-1.12.29-2.38-.15-3.51.47a.63.63,0,0,1-.86-.17c-.2-.33,0-.57.25-.83,1-1.21,2-2.47,3-3.67A30.84,30.84,0,0,0,58,97.86c3.4.52,6.88.26,10.25,1.13a5.11,5.11,0,0,0,1.3.07c3.48,0,6.89.8,10.36,1a15.18,15.18,0,0,0,2,.16,6.15,6.15,0,0,1,2.27.44,58.92,58.92,0,0,0,7,1.24c1.08.2,2.11.6,3.21.82a49,49,0,0,1,5.75,1.48c4.39,1.42,8.65,3,12.16,6.14a2.48,2.48,0,0,0,1.72.93c0,.16,0,.31.08.47a.47.47,0,0,0-.14.7C114.11,112.59,114.43,112.51,114.64,112.51Z"/><path class="bfe62aa4-61b0-46ea-9bd8-f6bb13c30286" d="M58,97.86a30.84,30.84,0,0,1-2.91,3.92c-1,1.2-2,2.46-3,3.67-.22.26-.45.5-.25.83a.63.63,0,0,0,.86.17c1.13-.62,2.39-.18,3.51-.47,1.66-.43,3.35-.46,5-.79,1.22-.24,2.45-.23,3.66-.39,5.53-.7,11.09-.52,16.64-.62a80.35,80.35,0,0,1,9.31.24,54.45,54.45,0,0,1,8.65,1.23,19,19,0,0,1,5.4,1.87c1.08.69,2.6.66,3.7,1.43a33.38,33.38,0,0,1,4.23,3c.35.34.71.66.63,1.22-.66.09-1.11-.36-1.62-.65a37.81,37.81,0,0,0-8.49-3.93c-1.12-.33-2.25-.69-3.4-1-3-.69-6.15-.65-9.19-1.07a59.66,59.66,0,0,0-9.62-.28,79,79,0,0,0-9.63.55c-1.91.28-3.91-.08-5.8.73-1,.43-2.27.1-3.43.29-2.86.49-5.73.94-8.6,1.45-2.24.4-4.44,1-6.64,1.53a9.42,9.42,0,0,0-3,.82,2,2,0,0,1-1.53,0c1.26-1.89,2.53-3.72,4-5.45,1-1.25,1.93-2.64,3-3.82s1.72-2.34,2.76-3.34A1.87,1.87,0,0,0,53,97.4Z"/><path class="f8b59c9d-8180-4cc8-a425-15c696e9dbfb" d="M113.45,113.22a4.29,4.29,0,0,1,2.15,2.17C114,115.53,114,114.12,113.45,113.22Z"/><path class="f5e98df8-28f2-48f6-9b1f-9da20d596cc0" d="M116.84,116.8c.62.09.74.48.64,1l-.66,0C116.83,117.45,116.84,117.12,116.84,116.8Z"/><path class="f5e98df8-28f2-48f6-9b1f-9da20d596cc0" d="M116.84,116.8c0,.32,0,.65,0,1-.8-.11-.38-.76-.51-1.17l0,0,.5.22Z"/><path class="f5e98df8-28f2-48f6-9b1f-9da20d596cc0" d="M115.62,115.85h.72c0,.25,0,.49,0,.73l0,0A.66.66,0,0,1,115.62,115.85Z"/><path class="f8b59c9d-8180-4cc8-a425-15c696e9dbfb" d="M117.5,118.26l.09.46c-.18,0-.43,0-.43-.23C117.16,118.41,117.38,118.34,117.5,118.26Z"/><path class="bfe62aa4-61b0-46ea-9bd8-f6bb13c30286" d="M82.82,58.88a13.11,13.11,0,0,1,4,3.92c-1,.88-2,1.77-3,2.64s-1.08,1.34.16,2.17a25.11,25.11,0,0,1,4.1,3c1.67,1.72,3.71,3,5.34,4.73s3.9,3.23,5.55,5.2a26.34,26.34,0,0,0,2.17,2.19,20.68,20.68,0,0,1,2.78,2.75c.94,1.32,2.21,2.31,3.12,3.64,1.55,2.28,3.43,4.33,4.94,6.63a51.4,51.4,0,0,1,4.57,8c1.07,2.49,2.23,5,3.1,7.52-1.31-.17-1.16-1.43-1.48-2.21a33.37,33.37,0,0,0-3.48-6.58c-1.44-2.06-2.85-4.15-4.42-6.1-1.85-2.31-3.76-4.58-5.73-6.76a45.2,45.2,0,0,0-5.34-5.38,14.74,14.74,0,0,1-2.92-2.88c-1-1.37-2.51-2.18-3.75-3.3-2.65-2.4-5.46-4.6-8.33-6.73-2.62-2-5.27-3.88-8-5.64-.36-.23-.87-.49-.79-1s.71-.88,1.19-1.24C78.63,62,80.94,60.71,82.82,58.88Z"/><path class="f5e98df8-28f2-48f6-9b1f-9da20d596cc0" d="M119.65,111.32c-.87-2.57-2-5-3.1-7.52a51.4,51.4,0,0,0-4.57-8c-1.51-2.3-3.39-4.35-4.94-6.63-.91-1.33-2.18-2.32-3.12-3.64a20.68,20.68,0,0,0-2.78-2.75A26.34,26.34,0,0,1,99,80.54c-1.65-2-3.83-3.34-5.55-5.2s-3.67-3-5.34-4.73a25.11,25.11,0,0,0-4.1-3c-1.24-.83-1.29-1.2-.16-2.17s2-1.76,3-2.64c1.4.61,2.1,2,3.11,3,1.18,1.18,2.38,2.35,3.55,3.54S95.27,72,96.64,72.9l.41.08a2,2,0,0,0,.59,1.27c2.24,2.7,4.45,5.42,6.58,8.22s4.21,5.26,6.14,8,3.66,5.33,5.32,8.12a73,73,0,0,1,3.36,7.1,16.63,16.63,0,0,1,.71,2.63,12.23,12.23,0,0,1,.66,4.65l-.71,0Z"/><path class="ef3a1046-e9af-4693-958d-bafa85074222" d="M108.19,99.27c0,.31-.17.52-.52.53-.16-.32-.75-.22-.71-.73a.7.7,0,0,0-.48-.72c-1.15-.45-1.55-1.63-2.31-2.45-1.59-1.72-3.22-3.39-4.91-5-1.93-1.83-3.75-3.81-5.84-5.45A39.43,39.43,0,0,0,90.33,83c-1.71-1.1-3.29-2.41-4.92-3.65s-3.67-2.46-5.32-3.94c-.1-.09-.31-.07-.46-.09a1.79,1.79,0,0,1,0-.23c0-.35.23-.47.53-.51a.43.43,0,0,1,.18.06c.1.56.54.63,1,.68a62.76,62.76,0,0,1,6.94,4.83A98.47,98.47,0,0,1,97.93,88c3,2.94,6.18,5.82,8.6,9.33,0,.36.08.56.47.54h0c0,.49.22.72.69.74h0a.42.42,0,0,0,.43.5A.4.4,0,0,1,108.19,99.27Z"/><path class="f5e98df8-28f2-48f6-9b1f-9da20d596cc0" d="M119.7,113l.71,0c0,.38,0,.77,0,1.15,0,.18,0,.36-.07.55C119.6,114.33,120,113.51,119.7,113Z"/><path class="f5e98df8-28f2-48f6-9b1f-9da20d596cc0" d="M120.39,114.68c0-.19,0-.37.07-.55.77.56.31,1.33.35,2C120.11,115.82,120.53,115.17,120.39,114.68Z"/><path class="ef3a1046-e9af-4693-958d-bafa85074222" d="M81.31,75.29c-.45-.05-.89-.12-1-.68C80.75,74.68,81.18,74.78,81.31,75.29Z"/><path class="ef3a1046-e9af-4693-958d-bafa85074222" d="M107.69,98.58c-.47,0-.73-.25-.69-.74A.76.76,0,0,1,107.69,98.58Z"/><path class="ef3a1046-e9af-4693-958d-bafa85074222" d="M108.12,99.08a.42.42,0,0,1-.43-.5A.43.43,0,0,1,108.12,99.08Z"/><path class="ef3a1046-e9af-4693-958d-bafa85074222" d="M107,97.84c-.39,0-.52-.18-.47-.54C106.79,97.39,107,97.53,107,97.84Z"/><path class="ff61fccd-9ea9-4173-8c47-f096264b9e93" d="M121.63,123.56c.86-1.75,3.53-8,4.54-9.65a5.24,5.24,0,0,1,1.69-1.76,19.14,19.14,0,0,0,1.63-2.22c1.31-2.39,3.1-3,4.76-5.14,1.35-1.73,3.75-2.29,5.34-3.8a3.5,3.5,0,0,0,2.25-1c1.23-.82,2.86-.87,3.82-2.1.05-.07.23,0,.34,0,2.05-.18,3.9-1.26,6-1.24.23,0,.3-.23.33-.44,3.5-.68,7-.44,10.57-.49a.48.48,0,0,0,.56.48,16.44,16.44,0,0,1,4.57.46c1.55.4,3.18.58,4.75.9a66.52,66.52,0,0,1,6.58,2.16A2.31,2.31,0,0,1,180.8,101c.81,1.93,1.34,4,2.23,5.89.74,1.58,1.3,3.25,1.93,4.88-2,.33-4-.34-6-.59-2.55-.31-5.08-.83-7.63-1.18-2.26-.3-4.51-.66-6.77-1a2.72,2.72,0,0,0-.46-.1c-3.62.19-7.21-1-10.79-.45-3.28.54-6.65.24-9.85,1.18-2.17.64-4.31,1.39-6.48,2a23.2,23.2,0,0,0-5.22,2.23c-1.34.72-2.88,1.32-3.86,2.75C127.06,115.92,122.72,123.27,121.63,123.56Z"/><path class="fcfded2e-fade-453b-9f74-afc61ea9120c" d="M179.73,110.84s-8.24-.23-10.17-1.07c-2.75-.4-2.75-.4-7.71-.88-.25-.58,1.18-5.13.44-5.36-2.2-.69,2.75-3.28.5-3.73-1.57-.32,1.57-1.83,0-2.23s2.19-1.43.65-1.39a.48.48,0,0,1-.56-.48.78.78,0,0,1,.76-.23c2.59.22,5.15-.1,7.8.56,2.47.62,5.12.84,7.64,1.4,2.82.62,5.75.75,8.43,2,.71.34,1.65.08,2.33.74a11.27,11.27,0,0,1,2,2.75c.79,1.44,1.48,2.93,2.33,4.34a27.08,27.08,0,0,1,3.09,5.64,2.2,2.2,0,0,0,.58.73c.26.25.42.53.21.84s-.58.22-.88.14a71.5,71.5,0,0,0-7.93-1.64,8.74,8.74,0,0,0-2.65-.48,3.06,3.06,0,0,0-1.15.26C184.7,112.35,180,111.11,179.73,110.84Z"/><path class="acb891aa-37aa-404f-9c33-94c38f1b6939" d="M146,97.87c2.05-.18,3.9-1.26,6-1.24.23,0,.3-.23.33-.44a14.83,14.83,0,0,0-3.73.42c-1.52.37-3,1-4.49,1.28-1,.15-2.94,1.21-4,.94-.13,0-2.86,2.13-3,2.15a16.74,16.74,0,0,0-2.44,3.34c1,.05,4.69-4.77,7.6-5Z"/><path class="ac268a8f-ca5e-40f2-970e-35e5f3670b37" d="M186.16,114.67c-.63-.39-.62-1.06-.72-1.68A1.64,1.64,0,0,1,186.16,114.67Z"/><path class="fe7399df-aab2-4484-a1d2-630047eaa96e" d="M121.08,123.59l.55,0-.09.55A.5.5,0,0,1,121.08,123.59Z"/><path class="f1242dc7-198d-4b7c-8766-16e568e79830" d="M98.35,126.68c-.6.58-1.21,0-1.8,0-1-.1-2-.28-3-.44C95,124.39,96.6,124.54,98.35,126.68Z"/><path class="ef3a1046-e9af-4693-958d-bafa85074222" d="M106.48,98.35a.7.7,0,0,1,.48.72C106.48,99,106.48,98.7,106.48,98.35Z"/><path class="f5e98df8-28f2-48f6-9b1f-9da20d596cc0" d="M114.64,112.51c-.21,0-.53.08-.62,0a.47.47,0,0,1,.14-.7A.7.7,0,0,1,114.64,112.51Z"/><path class="f5e98df8-28f2-48f6-9b1f-9da20d596cc0" d="M116.33,116.58c0-.24,0-.48,0-.73.63.08.45.57.49,1Z"/><path class="f8b59c9d-8180-4cc8-a425-15c696e9dbfb" d="M185,112.6l-5.26-1.76-5.9-.34-4.12-.67-7.86-.94-.24,2.28,11.4,1.41,6.68,1.2,3.56.74,2.9.4.21.48,1,0,.27-.23-1.87-2.05A1.9,1.9,0,0,0,185,112.6Z"/><text class="f71bf174-2c57-43c6-9b4e-49f9587724a5" transform="translate(123.51 82.33)">?</text><text class="f75b4efe-0348-44ad-9840-6223d8fa1e8b" transform="translate(11.44 188.37)">No bookmar<tspan class="aebfdd1b-f376-4e86-bf9b-422df84592c4" x="124.24" y="0">k</tspan><tspan x="135.56" y="0">s </tspan><tspan class="e5fe6994-22b1-4fcb-9102-19d8310ad5be" x="150.56" y="0">f</tspan><tspan x="157.79" y="0">ound</tspan></text><path class="f8b59c9d-8180-4cc8-a425-15c696e9dbfb" d="M118,69.24s4.49,9.67,4,19.27c-.6-.09-.46-.55-.47-.93a15.25,15.25,0,0,0-1-4.24c-.35-1.06-.55-2.19-.86-3.28a7,7,0,0,0-.54-1.88c-.94-1.59-1.12-3.47-2-5.09-1.53-2.92-2.88-5.93-4.65-8.75a22.26,22.26,0,0,1-2.78-5,1.14,1.14,0,0,0-.28-.38c-1.2-1.16-1.78-2.74-2.76-4.05-1.27-1.71-2.19-3.68-3.53-5.3-1.13-1.36-2.07-2.87-3.25-4.19-.41-.46-.57,0-.74.16-2,1.32-3.92,2.71-5.9,4s-3.86,2.45-5.78,3.7c-1.74,1.13-2,1.62-.34,3.18s3,3.37,4.63,5c2.06,2,3.64,4.45,5.69,6.5A42.32,42.32,0,0,1,100.92,72c1,1.27,2.08,2.54,3.21,3.74,1.5,1.61,2.73,3.47,4.17,5.11s2.72,3.72,4.24,5.44a31,31,0,0,1,3.69,5.6c1.14,2,2.08,4.19,3.16,6.26a2.89,2.89,0,0,1,.34,1.25c.06,1.83,1.29,3.28,1.6,5a11.72,11.72,0,0,1,.28,1.87c0,.37-.13.84.45.95-.06,1.2-.13,2.4-.19,3.59l-.57-.22c-.37-.49-.1-1.08-.24-1.62a42.47,42.47,0,0,0-4.12-10.1,123.32,123.32,0,0,0-7.38-11.27c-2.69-3.78-5.65-7.36-8.57-11-1.06-1.31-2.27-2.5-3.41-3.74a.46.46,0,0,0-.46-.48l-.71-.77c-.48-1.24-1.65-1.87-2.46-2.82s-1.68-2-2.6-3c-2.56-2.64-5.12-5.29-7.76-7.86a27.33,27.33,0,0,0-4.22-3.82c-.71-.81-1.3-1.83-2.63-1.67,1.16-.8,2.28-1.67,3.5-2.36a4.41,4.41,0,0,0,1.26-.8,7,7,0,0,1,2.23-1.24c2.21-1.19,4.24-2.71,6.43-3.93a27,27,0,0,0,6-4c1-.93,2.21-.6,3-1.5.28-.31.82-.06.75.5-.09.73.4,1,.85,1.37a21.55,21.55,0,0,1,3.31,4.1c.92,1.42,2.15,2.68,3,4.07s1.62,2.5,2.44,3.71c1.52,2.23,2.66,4.68,4.16,6.93a20.74,20.74,0,0,1,1.87,3.81c.79,2,1.53,4.07,2.39,6.06"/></g><g id="f5fb8128-297a-487c-978e-858334efc5f9" data-name="Layer 4"><path class="fcfded2e-fade-453b-9f74-afc61ea9120c" d="M121.63,123.56s8.06-18.54,18.46-24.73,25.58-5.12,25.58-5.12S176,94.2,181,95.46s11.45,2.9,11.45,2.9l13.39,19.88s-21-3.28-24.08-4-17.95-2.83-20.17-3.08a50.23,50.23,0,0,0-18,.85C134.4,114.2,127.19,117.43,121.63,123.56Z"/><path class="f8b59c9d-8180-4cc8-a425-15c696e9dbfb" d="M121.63,123.56s10.39-10.73,22.9-13.41c14.27-3.07,18-1.55,18-1.55s21.6,3.23,35.43,6c0,0-5.56-11.53-8.2-15.1,0,0-17.87-4.5-26.83-3.8s-10.32-2.44-28.78,8.15c0,0,7.56-9.08,19.19-10.21s22.51-1.11,39.52,4.22l14,21.13s-35.2-6.65-45.19-7.41C161.61,111.58,142,108,121.63,123.56Z"/><path class="ba962f61-f50a-445e-b644-1d6a596e2f0a" d="M121.75,123.28s11.33-25.65,37.6-25.66c.45,0,1.44.51,1.5,1l-.7,3.36-.06,3.8-.89,4.14c.48.73-.11,1.35-.86,1.34C153.5,111.13,136.73,111.75,121.75,123.28Z"/></g></svg>