<svg xmlns="http://www.w3.org/2000/svg" xmlns:xlink="http://www.w3.org/1999/xlink" x="0px" y="0px" viewBox="0 0 763.3 683.1" style="enable-background:new 0 0 763.3 683.1;" xml:space="preserve">
<style type="text/css">
	.st0{fill:#323131;}
	.st1{fill:#111111;}
	.st2{fill:#3A3A3A;}
	.st3{font-family:'Calibri-Bold';}
	.st4{font-size:112px;}
	.st5{letter-spacing:-1;}
</style>
<path class="st0" d="M663.6,115.3c-1.9,13.7-4.2,29.5-6.4,45.4c-6.1,43.7-12.3,87.4-18.5,131.1c-0.6,4.3-0.4,8.6,0.4,12.9
	c3.3,16.5,6.4,33,9.5,49.6c2.6,13.8-4.1,25-17.5,28.9c-4.2,1.2-6,3.5-6.5,7.6c-1.6,12.4-3.4,24.8-5.2,37.1
	c-2.5,17.3-12.3,24.6-29.5,22.2c-55.9-7.9-111.8-15.8-167.8-23.7c-6.3-0.8-12.7-0.6-18.8,0.7c-79.8,15.4-159.7,30.8-239.5,46.1
	c-1.6,0.3-3.3,0.7-4.9,0.9c-16,2.7-27.2-4.9-30.3-20.8c-5-25.8-10-51.7-15-77.5c-16.3-84.6-32.6-169.2-48.9-253.7
	c-3.3-17.3,4.4-28.4,21.8-31.7c25.7-4.9,51.3-10,77.1-14.7c5.3-1,7.8-3.3,8.3-8.7c0.6-6.6,1.7-13.2,2.8-19.8
	c2.4-13.6,12.5-21.4,26.1-19.5c38.6,5.3,77.2,10.7,115.8,16.2c4.9,0.7,10,0.5,14.8-0.5c74.1-14.3,148.2-28.5,222.4-42.8
	c10-1.9,18.4,0.3,25.3,8.1c3.1,3.5,4.5,7.7,5.4,12.2c3.4,17.7,6.9,35.3,10.3,53c1.8,9.4,1.7,9.4,11.2,10.7
	c12.7,1.8,25.4,3.4,38.1,5.3C656.2,91.9,663.7,100.9,663.6,115.3z"/>
<path class="st1" d="M578.5,403.2c-22.3-3.2-44.5-6.3-66.8-9.5C401,378.1,290.3,362.5,179.6,347c-7.2-1-7.5-1.5-6.5-8.6
	c11.7-82.8,23.5-165.6,35.2-248.5c0.7-5,1.5-9.9,2-14.9c0.4-4.7,2.5-6.2,7.2-5.5c25.4,3.7,50.8,7.2,76.2,10.8l321.2,45.3
	c6.8,1,7.2,1.4,6.3,8.3c-7.7,54.3-15.4,108.5-23.1,162.8c-4.7,33.3-9.4,66.7-14.1,100C583.6,399.9,583.8,403.9,578.5,403.2z"/>
<path class="st1" d="M139.6,287.5c-3.7-18.9-7.1-36.3-10.5-53.8c-6.1-31.7-12.2-63.5-18.3-95.2c-1.8-9.1-1.4-9.6,7.4-11.3
	c12.6-2.4,25.2-4.8,37.8-7.2c7.7-1.5,8.3-1,7.2,6.6c-7.1,49.8-14.1,99.6-21.2,149.4C141.6,279.4,141.8,283,139.6,287.5z"/>
<path class="st1" d="M263.1,405c-16.7,3.2-32.3,6.3-48,9.3c-14.2,2.7-28.4,5.5-42.7,8.2c-5.9,1.1-6.6,0.7-7.8-5.2
	c-1.5-7.3-2.8-14.7-4.3-22.1c-0.7-3.6,0.5-5.5,4.5-4.9c32.1,4.5,64.2,9.1,96.3,13.6C261.6,404,261.8,404.2,263.1,405z"/>
<path class="st1" d="M456.1,63.5c2.8-2.2,5-2.1,7.1-2.5c25.3-4.9,50.7-9.8,76.1-14.6c6.2-1.2,6.7-0.9,8,5.4
	c1.3,6.5,2.5,13.1,3.7,19.6c0.6,3.4-0.5,5.3-4.2,4.8C516.9,72.1,487.1,67.9,456.1,63.5z"/>
<path class="st0" d="M552.7,369.6c0.4,4.2-2.3,4-5.2,3.7c-21-2.7-42-5.3-63-8l-266.2-33.5c-5.1-0.6-10.2-1.3-15.4-2
	c-3.3-0.4-3.6-2-1.4-4.2c3.6-3.7,7.3-7.3,10.9-11c19.4-19.4,38.9-38.8,58.2-58.4c3.5-3.5,6.4-4.1,10.8-1.6
	c21.3,11.6,42.9,23,64.4,34.3c6.6,3.5,7.4,3.3,12.3-2.3c25.8-29.2,51.5-58.5,77.2-87.8c6.9-7.9,7.5-7.9,12.3,1.3
	c13.5,25.5,26.9,51,40.3,76.5c2.5,4.8,3.2,4.9,7.1,1.1c10.4-10.1,20.9-20.1,31.2-30.2c2.8-2.8,4.4-2.6,5.1,1.5
	c7,39.7,14,79.4,21,119.1C552.6,368.6,552.6,369.1,552.7,369.6z"/>
<path class="st0" d="M301.5,201.9c-22.9,0-41.6-18.4-41.7-41c-0.1-23.2,18.5-42,41.7-42.2s42,18.5,42.2,41.7l0,0
	C343.6,183.9,325.2,201.9,301.5,201.9z"/>
<text transform="matrix(1 0 0 1 1.831055e-04 643.9929)" class="st2 st3 st4">Ima</text>
<text transform="matrix(1 0 0 1 176.2602 643.9929)" class="st2 st3 st4 st5">g</text>
<text transform="matrix(1 0 0 1 228.1602 643.9929)" class="st2 st3 st4">e Loading...</text>
</svg>
