<svg xmlns="http://www.w3.org/2000/svg" viewBox="0 0 206.73 127.51"><defs><style>.e093496a-2173-4e82-99f7-c5989c3f5970{fill:#d6d6d6;}.a3c22e10-c538-42f6-a774-dc4f01675a63{fill:#a09f9f;}.aab301e3-399a-4d89-8450-0fc4f23adcc6{fill:#c2c1c0;}.b705438e-a9d4-4949-8fd2-a4a20d559914{fill:#c9c9c9;}.f117cd0c-5fc0-451e-ad24-4466127a50c8{fill:#f4f4f5;}.a0778d86-1471-4569-8577-ff4fe67e9835{fill:#b5b5b6;}.f3608ae9-5772-4f83-8032-42da58ee8983{fill:#d8d8d8;}.f9aee9c7-1667-4183-a84b-357821e40a3a{fill:#9b9a9a;}.bd1dfbf4-93a2-48bb-be0b-fc3d7973dfef{fill:#e6e4cf;}.ab6453de-fecc-41a2-a71d-8680e4c59d7c{fill:#e3e2e2;}.b6d09f8c-e925-41d4-ac05-3ddbdac07cd7{fill:#f6f3e0;}.a5414a27-3b09-455e-bbba-2990aefa98db{fill:#4b515d;}.a8f7dd21-6cb0-4d4e-b6bc-27625417f78d{fill:#353332;}.a7f1d548-cf7b-41a0-9053-b853b147e0bd{fill:#2b2f34;}.f3d717bc-da79-4c0c-a191-3626395d726a{fill:#d34c38;}.e710b796-c982-453b-ab43-b12fb7378fc9{fill:#b3b3b3;}.bdecfdf5-aae3-4f8b-be42-1436033fa46b{fill:#dad8c4;}.aad68216-729e-4078-a3bf-6439b7892cb4{fill:#9f8c76;}.a77e8998-1e8a-4ac7-99fc-3f77cf53aab4{fill:#c6c6c5;}.b8a5b3a7-3960-4a5f-b773-9554ac588764{fill:#e5e5e5;}.a0bae2fa-b70d-4ffb-b7da-85311074bbe0{fill:#e2e2e2;}.e1cfb4f7-b11b-45fe-b971-82565db6ff3f{fill:#af9c85;}.f26b21cb-3d8e-46fb-9cdb-98b06f174d59{fill:#b7b6b6;}</style></defs><title>page-not-found</title><g id="bdaded17-ba24-4539-926f-b46d469dccb5" data-name="Backing"><path class="e093496a-2173-4e82-99f7-c5989c3f5970" d="M198.26,102.3c1.33,0,2.67,0,4-.19,6.21-.67,5.83-10.13-.41-10.13a7.36,7.36,0,0,0-1.16.09c-.41.07-.6-.19-.91-.13v1.18c.46.1,1,0,1.4.25a1.65,1.65,0,0,1-.69,3,19.46,19.46,0,0,1-2.16,0H120.48c-.65,0-1.07,0-1.31.81a1.88,1.88,0,0,1-1.88,1.26c-8,0-16.06.13-24.09-.07L92,98.4a1.38,1.38,0,0,1-1.58-1l-.09-.24a1.51,1.51,0,0,0-1.52-.81q-38.13,0-76.25,0c-.68,0-1.36,0-2,0-1.23,0-2-.61-2-1.6s.63-1.64,1.72-1.68c.12,0,.24,0,.35,0l.07-.7,0-.47a.28.28,0,0,1-.13,0c-1.52,0-3,0-4.56,0a7.15,7.15,0,0,0-3.26.88A4.59,4.59,0,0,0,0,97.2a5,5,0,0,0,3.59,4.56,12.35,12.35,0,0,0,3.73.5q8.28,0,16.56,0a8.81,8.81,0,0,1,2.12.29,3.43,3.43,0,0,1,2.23,1.73,3.05,3.05,0,0,1-.31,3.31,4.55,4.55,0,0,1-3.44,1.65,61.88,61.88,0,0,1-8.61.23,5,5,0,0,0-5,3.09,4.9,4.9,0,0,0,0,4.07,5,5,0,0,0,4.55,2.72q36.71-.06,73.42,0a2.92,2.92,0,0,1,1.07,0c.76.32,1.81.15,2.23,1.06a1.83,1.83,0,0,1-1.56,2.49,11.64,11.64,0,0,0-2.34.44c-1.21.35-2.07,1.3-2,2.21a2.33,2.33,0,0,0,2.47,1.93c14.44,0,28.88,0,43.31,0a2,2,0,0,0,2-2.52c-.18-1.31-1.89-2.26-3.65-2a45.4,45.4,0,0,1-9.54-.06,1.76,1.76,0,0,1-1.5-1.29,1.28,1.28,0,0,1,.82-1.65,7,7,0,0,1,2.47-.67q15.24.06,30.47,0a10.46,10.46,0,0,0,3.49-.41,4.2,4.2,0,0,0,2.74-2.56c.36-1,.19-1.49-.25-1.86a2.77,2.77,0,0,1,1.67-5l29.63.19a2.76,2.76,0,0,0,2.77-2.59h0C193.19,101.29,195.56,102.3,198.26,102.3Z"/><path class="a3c22e10-c538-42f6-a774-dc4f01675a63" d="M96.38,115q-27.78,0-55.56,0a3.71,3.71,0,0,1-3.44-2.24,4.32,4.32,0,0,1,0-3.35,3.73,3.73,0,0,1,3.79-2.55,41.63,41.63,0,0,0,6.51-.19,3.32,3.32,0,0,0,2.6-1.36,2.71,2.71,0,0,0,.24-2.73,2.67,2.67,0,0,0-1.69-1.42,6.13,6.13,0,0,0-1.6-.24q-6.27,0-12.53,0a8.49,8.49,0,0,1-2.83-.42,4.06,4.06,0,0,1-2.71-3.75,3.82,3.82,0,0,1,2.08-3.6,5.07,5.07,0,0,1,2.47-.72c1.15,0,2.3,0,3.45,0a.27.27,0,0,0,.09,0v.38l-.05.57a1.26,1.26,0,0,1-.27,0,1.21,1.21,0,0,0-1.3,1.39c0,.81.56,1.29,1.49,1.31.52,0,1,0,1.54,0q28.86,0,57.7,0a1.14,1.14,0,0,1,1.15.67l.07.2a1,1,0,0,0,1.19.79h.92c6.07.16,12.15.06,18.23,0a1.43,1.43,0,0,0,1.42-1c.18-.64.5-.67,1-.67h58.9a14.93,14.93,0,0,0,1.64,0,1.23,1.23,0,0,0,1.07-1,1.33,1.33,0,0,0-.55-1.45c-.33-.22-.71-.13-1.06-.21v-1c.24,0,.38.17.69.11a5.14,5.14,0,0,1,.88-.08c4.72,0,5,7.8.31,8.35a28,28,0,0,1-3,.16c-2,0-3.84-.83-3.84,4h0a2.16,2.16,0,0,1-2.09,2.13l-22.42-.15c-2,0-2.79,2.66-1.26,4.09.33.31.46.75.19,1.54a3.32,3.32,0,0,1-2.08,2.1A7.07,7.07,0,0,1,145,115c-7.68,0-15.37,0-23,0Z"/><path class="aab301e3-399a-4d89-8450-0fc4f23adcc6" d="M199.78,91.94v1.18c-.76,0-1.51.06-2.27,0-9.24-.21-18.5.47-27.73-.37a1.56,1.56,0,0,0-.57.15,11,11,0,0,0-3.08-.21,1.12,1.12,0,0,0-1.21-.2c-2.74-.49-5.53-.66-8.29-.9-4.55-.39-9.1-1-13.7-.95-6.93,0-13.85-.15-20.67,1.42-.29-.13-.46,0-.58.26l-1.1.15a.34.34,0,0,0-.49.2,2.2,2.2,0,0,0-1.18.26l-2.28.25a7.38,7.38,0,0,1-.66-1.11c-.86-2.3-2.69-3.78-4.47-5.3-.45-.38-1.25-.26-1.52-1a1.69,1.69,0,0,1,.9-1.65,1.77,1.77,0,0,0,1-1.6h0a1,1,0,0,0,1.2-1l.48-.72c.35,0,.69,0,.72-.47a.53.53,0,0,1,.47-.25.45.45,0,0,0,.5-.47c.3,0,.5-.21.73-.36A40.63,40.63,0,0,1,128.15,74c1.5-.37,3.08-.52,4.54-.92a22,22,0,0,1,4.94-.72,79.17,79.17,0,0,1,11.41.23c3.13.37,6.29.63,9.41,1.11,2.9.45,5.82.81,8.67,1.5a47.49,47.49,0,0,0,6.46,1.14h0c.18.75.78.39,1.22.46,1-.11,1.86.4,2.8.47,1.9.14,3.77.57,5.63.89,3.26.55,6.57.79,9.8,1.53a4.29,4.29,0,0,0,1.45,1.91h0c0,.5-.06,1,.68,1a2.54,2.54,0,0,0,1.13,1.82c.93.67,1.24,1.9,1.8,2.89a20.93,20.93,0,0,1,1.17,2.94l-4,0c-.12-.56-.58-.44-1-.44H183.14c-.26,0-.66-.18-.78.45,4-.13,7.9.77,11.87.5,1.7.12,3.41-.24,5.09.24A1.92,1.92,0,0,1,199.78,91.94ZM124.16,78.52h0l1.65-.06c.31,0,.46-.12.54-.4a6.8,6.8,0,0,0,2.23-.35A33.92,33.92,0,0,1,135,76.38a76.09,76.09,0,0,1,11-.25,29.83,29.83,0,0,1,4.63.4c2.56.42,5.16.62,7.7,1.22a59.15,59.15,0,0,0,6.21,1,57.82,57.82,0,0,0,6.11.94c.14.56.59.46,1,.45a18.32,18.32,0,0,1,4.91.86c2.63.68,5.36.77,8,1.52.28.08.71.2,1-.27-1.6-.77-3.37-.78-5-1.31A52.26,52.26,0,0,0,175,79.81c-.86-.18-1.67-.74-2.61-.56a4.21,4.21,0,0,1-.95-.07c-2.43-.78-5-1.07-7.44-1.61-2.73-.58-5.5-1-8.27-1.42a74.47,74.47,0,0,0-9.06-1c-2.94,0-5.87-.31-8.83-.08-1.74.14-3.46.47-5.16.69a29.59,29.59,0,0,0-4.14.92,31.16,31.16,0,0,1-4.13,1.36c-.35,0-.67,0-.77.41l-.21,0c-1.53,0-2.72,1-4.07,1.51-.44.17-1.21.09-1.22.91A3.65,3.65,0,0,0,115,82.5a7.79,7.79,0,0,0,3.44-1.58,3.15,3.15,0,0,0,2-.59c1-.48,2.35-.43,3.09-1.5C123.71,78.76,124,78.85,124.16,78.52Zm-.74,9.35c-.42,0-.88-.13-1.26.15-.13.09-.06.29.09.4.46.37.9,0,1.35-.06s.53-.13.56-.48c2.43-.24,4.72-1.3,7.2-1.3.09,0,.17-.24.26-.37l1.65,0c.56-.06,1.17.23,1.68-.22h11.28c1.44.46,3,.13,4.44.53a7.7,7.7,0,0,0,3.57,0c-2.3-.2-4.47-1.15-6.81-1l-2.6,0c-.12-.47-.49-.44-.85-.44h-8.93c-.36,0-.73,0-.86.44-1.47-.23-2.84.4-4.27.52s-2.89.73-4.36.92A4.4,4.4,0,0,0,123.42,87.87Zm-2.15-3.58c.66.19,1.1-.37,1.65-.53A67.52,67.52,0,0,1,131.13,82a67.84,67.84,0,0,1,9.65-1.07c4.23-.08,8.43.24,12.64.52.07.42.36.47.71.47a14.94,14.94,0,0,1,4.78.67,1.57,1.57,0,0,0,1.65-.23c-2.19-.92-4.46-.94-6.65-1.39l-1.18,0c-.29-.82-1-.32-1.47-.43L147,80.24a90.48,90.48,0,0,0-16.61.7,4.56,4.56,0,0,0-.57.17c-1.33.33-2.68.62-4,1a15.64,15.64,0,0,0-4.53,1.67c-1.28,0-2.25.91-3.41,1.3a.28.28,0,0,0-.1.41c0,.08.22.19.28.16C119.14,85.26,120.39,85.2,121.27,84.29Zm67.73,3c2.59-.09,5.13.44,7.7.56.31,0,.82.17.82-.38s-.47-.52-.88-.57-.89.23-1.4.16A16.6,16.6,0,0,0,189,87.3Z"/><path class="aab301e3-399a-4d89-8450-0fc4f23adcc6" d="M10.61,93.11c0-.24.05-.47.07-.7A60.72,60.72,0,0,0,17.15,92c3.38-.27,6.79-.08,10.18-.09a1.47,1.47,0,0,0,1.36-.41H11.17l-.08-.08a2.39,2.39,0,0,1,.59-1.84,4.24,4.24,0,0,0,.63-1.75,6.46,6.46,0,0,1,1.78-3.08c1.12-1.07,1.71-2.71,2.52-4.11.18-.31.35-.62.52-.94.83.13,1.52-.41,2.31-.48,3.14-.27,6.21-.93,9.29-1.47,3.46-.62,6.88-1.42,10.32-2.13,3.06-.64,6.13-1.25,9.19-1.9,2.2-.46,4.37-1,6.59-1.43s4.63-.85,7-1.16A64.18,64.18,0,0,1,70,70.34c5.3,0,10.61-.28,15.85.75a33.07,33.07,0,0,1,5.43,1.31,26,26,0,0,1,6.2,3.3A23.46,23.46,0,0,1,105.2,85a12.68,12.68,0,0,0-8,2.53c-2.08,1.43-3.08,3.7-4.43,5.7-.23-.24-.44-.53-.84-.34a32.57,32.57,0,0,0-6.09-1.47,97.54,97.54,0,0,0-14.17-.9c-2.77-.06-5.58.15-8.37.29-4.86.26-9.71.64-14.55,1-3.34.28-6.69.51-10,.67l-.25,0-2,.15A28.87,28.87,0,0,0,31.8,93,4.84,4.84,0,0,0,30,93C23.55,93.36,17.08,93.14,10.61,93.11Zm89.06-12.2a.44.44,0,0,0-.47-.49,20.48,20.48,0,0,0-7.53-4.81c-.85-.31-1.48-1.24-2.55-1a42.24,42.24,0,0,0-11.47-1.43c-2.5-.52-5,.11-7.49,0a37.45,37.45,0,0,0-6.17.46c-4.45.53-8.85,1.31-13.24,2.16-1.39.27-2.67,1-4.11,1-2.08.31-4.09.92-6.13,1.43L34.7,79.72c-.28.07-.76-.1-.7.39s.5.32.79.28c1-.15,2-.55,3-.79C40.5,79,43.26,78.33,46,77.79c.3-.05.55-.09.6-.44a20.4,20.4,0,0,0,3.24-.47c3-.3,5.91-1,8.87-1.42,2.67-.4,5.35-.78,8-1,3.34-.22,6.71,0,10.07,0v4.09H75.67c-4.26-.16-8.47.5-12.71.71a27.4,27.4,0,0,1-5.5.51s-.08,0-.12,0a33.27,33.27,0,0,1-7.08,1.12c-.8,0-1.37.49-2.38.81a6,6,0,0,0,2.34.06c1.75-.25,3.42-.92,5.22-.86a12.3,12.3,0,0,0,3.07-.34,10.85,10.85,0,0,1,2.93-.29c.75,0,1.83.39,2.48-.54l10.55,0c2,0,1.91,0,2.24,2,.19,1.16-.29,1.24-1.16,1.06a3.86,3.86,0,0,0-.57-.12c-4.11-.23-8.21.2-12.31.21-.2,0-.39.06-.59.08l-8,.88c-.39,0-.86-.17-1,.42l-1.66,0a59.48,59.48,0,0,0-7.92,1.32c.42.15.9.41,1.23.27,1.2-.48,2.49-.15,3.64-.46a21.3,21.3,0,0,0,3.29-.66c3-.53,6.16-.35,9.23-.85,2.45-.41,5-.09,7.51-.32,2.87-.25,5.73.28,8.6.25l.12,2.87c-.29.44-.57.92-1.21.66a5.3,5.3,0,0,0-2.13-.19c-4.3.07-8.61.2-12.92.23-2.18,0-4.32.44-6.48.63a38,38,0,0,0-6.1.94,24.59,24.59,0,0,0,7.38-.26c3.28-.55,6.57-.27,9.85-.7a36.5,36.5,0,0,1,10.68.32c.41.07.68.16.69.63s-.07,1,.46.94,1.05-.14,1.15-.81l.26-.08c.31.07.48,0,.5-.38l.41-.13c1.28.15,2.57.21,3.85.46a4.35,4.35,0,0,0,3-.12c.93.2,1.34,1.14,2.15,1.49,0,.35,0,.66.5.65a.69.69,0,0,0,.67-.56c.09-.24-.27-.88.46-.64.19.06.36.22.46,0a.4.4,0,0,0-.25-.58c-.86-.13-.55-.79-.67-1.29-.17-.69.65-1.25.37-1.76-.56-1-.27-2-.33-3,0-.77.21-1,1.11-.73s1.75,1,2.92.56l-4.11-2v-.46c.62-.77.14-1.67.28-2.5.08-.43-.18-1,.52-1.15a18.9,18.9,0,0,1,5.74,2.57,10.08,10.08,0,0,0,2.85,1.58l0,.45,2.18,2.17c.19.2.43.29.6,0s0-.46-.28-.52c-.49-.1-.55-.48-.73-.88a2,2,0,0,0-1.28-1.29ZM11.56,90.48c2.81.63,5.53-.06,8.27-.48C17.07,90.05,14.27,89.67,11.56,90.48Z"/><path class="b705438e-a9d4-4949-8fd2-a4a20d559914" d="M109.51,50c.28,3.12,1,6.2.72,9.36a10.9,10.9,0,0,0-.46,2.89,37.92,37.92,0,0,1-.28,6.48c-.58-.11-.45-.57-.45-1a11.72,11.72,0,0,0-.28-1.87c-.31-1.76-1.54-3.22-1.6-5a2.82,2.82,0,0,0-.34-1.24c-1.08-2.08-2-4.23-3.16-6.27A31.69,31.69,0,0,0,100,47.7C98.45,46,97.25,44,95.73,42.27s-2.67-3.51-4.17-5.11c-1.13-1.21-2.22-2.48-3.21-3.75A43.57,43.57,0,0,0,85,29.33c-2-2-3.63-4.48-5.69-6.5-1.61-1.58-3-3.41-4.63-4.95s-1.4-2,.34-3.18c1.92-1.25,3.87-2.43,5.78-3.69s3.92-2.7,5.9-4c.17-.12.33-.63.74-.17,1.18,1.32,2.12,2.83,3.25,4.19,1.34,1.62,2.26,3.59,3.53,5.3,1,1.31,1.56,2.89,2.76,4.06a1,1,0,0,1,.28.37,22.26,22.26,0,0,0,2.78,5c1.77,2.82,3.12,5.83,4.65,8.76.85,1.61,1,3.5,2,5.08a6.93,6.93,0,0,1,.54,1.89c.31,1.09.51,2.22.86,3.27A15.25,15.25,0,0,1,109,49C109.05,49.4,108.91,49.87,109.51,50Z"/><path class="f117cd0c-5fc0-451e-ad24-4466127a50c8" d="M109.51,50c-.6-.08-.46-.55-.47-.93a15.25,15.25,0,0,0-1-4.24c-.35-1.05-.55-2.18-.86-3.27a6.93,6.93,0,0,0-.54-1.89c-.94-1.58-1.12-3.47-2-5.08-1.53-2.93-2.88-5.94-4.65-8.76a22.26,22.26,0,0,1-2.78-5,1,1,0,0,0-.28-.37c-1.2-1.17-1.78-2.75-2.76-4.06C92.92,14.6,92,12.63,90.66,11c-1.13-1.36-2.07-2.87-3.25-4.19-.41-.46-.57,0-.74.17-2,1.32-3.92,2.7-5.9,4S76.91,13.45,75,14.7c-1.74,1.13-2,1.63-.34,3.18s3,3.37,4.63,4.95c2.06,2,3.64,4.45,5.69,6.5a43.57,43.57,0,0,1,3.38,4.08c1,1.27,2.08,2.54,3.21,3.75,1.5,1.6,2.73,3.46,4.17,5.11S98.45,46,100,47.7a31.69,31.69,0,0,1,3.69,5.6c1.14,2,2.08,4.19,3.16,6.27a2.82,2.82,0,0,1,.34,1.24c.06,1.83,1.29,3.29,1.6,5a11.72,11.72,0,0,1,.28,1.87c0,.38-.13.84.45,1-.06,1.2-.13,2.4-.19,3.6l-.57-.22c-.37-.5-.1-1.09-.24-1.62a42.54,42.54,0,0,0-4.12-10.11A123.32,123.32,0,0,0,97,49.06c-2.69-3.78-5.65-7.35-8.57-11-1.06-1.31-2.27-2.5-3.41-3.74a.45.45,0,0,0-.46-.47l-.71-.77c-.48-1.24-1.65-1.88-2.46-2.83s-1.68-2-2.6-3C76.22,24.67,73.66,22,71,19.46a26.84,26.84,0,0,0-4.22-3.82c-.71-.82-1.3-1.84-2.63-1.68,1.16-.8,2.28-1.67,3.5-2.36a4.41,4.41,0,0,0,1.26-.8,7,7,0,0,1,2.23-1.24c2.21-1.19,4.24-2.71,6.43-3.93a27,27,0,0,0,6-4c.95-.93,2.21-.6,3-1.49.28-.31.82-.07.75.49-.09.73.4,1,.85,1.37a21.55,21.55,0,0,1,3.31,4.1c.92,1.42,2.15,2.68,3,4.08.78,1.24,1.62,2.49,2.44,3.7,1.52,2.24,2.66,4.68,4.16,6.93a21.06,21.06,0,0,1,1.87,3.81c.79,2,1.53,4.07,2.39,6.06a25.61,25.61,0,0,1,1.46,4.58,51.22,51.22,0,0,0,1.36,5.18,4.46,4.46,0,0,1,0,1.32c0,.65-.18,1.38.57,1.83A.56.56,0,0,1,109,44C108.79,46,109.79,47.94,109.51,50Z"/><path class="f117cd0c-5fc0-451e-ad24-4466127a50c8" d="M32,57.18c-.22-.73.52-.82.84-1.14,1.07-1.11,2.29-2.13,3.24-3.28s2.43-2.16,3.3-3.55a2.11,2.11,0,0,1,.86-.82c1.14-.46,1.57-1.59,2.36-2.38,1-1,2.11-1.91,3.17-2.86a14.12,14.12,0,0,0,2.63-2.61c.45-.68,1.47-1,2.17-1.61,1.45-1.22,2.9-2.45,4.39-3.62.79-.62,1.7-1.08,2.5-1.69s2-.83,2.12-2.11l3.65,2.56a1.17,1.17,0,0,1-.5.77,29.11,29.11,0,0,0-3.14,2.52c-1.23,1.32-2.78,2.3-4,3.68-.87,1-1.76,2.06-2.71,3-1.68,1.6-3.23,3.31-4.77,5-1,1.13-1.95,2.28-2.92,3.42-.35.42-1.1,1-.85,1.68s1,0,1.51.1,1.3-.16,1.78.08c1.34.67,2.74.41,4.1.4,2.23,0,4.37.6,6.58.69a8.2,8.2,0,0,1,2.49.16,20.54,20.54,0,0,0,5,.75,43.79,43.79,0,0,0,5.35.72,4.94,4.94,0,0,1,1.89.2c1.39.58,2.89.51,4.32.82,1.61.34,3.19.79,4.81,1.1s3.25,1.42,5.08,1.34a.81.81,0,0,1,.72.33,2.47,2.47,0,0,0,2.35.87l3.11,1.69c.07.14.1.34.21.41a42.49,42.49,0,0,1,4.28,3.51c1,.84,1.76,2,3,2.54h0a.45.45,0,0,0,.42.52c.22,1,1.42,1.46,1.25,2.6l-.67-.26a2.3,2.3,0,0,0-.78-1.17,20.56,20.56,0,0,0-5.77-4,51.37,51.37,0,0,0-10.84-3.7c-2.68-.64-5.39-1.15-8.09-1.72a29.54,29.54,0,0,0-4.52-.87c-2.51-.12-5-.61-7.45-.92-3-.37-6.05-.74-9.08-1.06-3.75-.39-7.53-.56-11.28-1C40.06,57.8,36,57.86,32,57.18Z"/><path class="f117cd0c-5fc0-451e-ad24-4466127a50c8" d="M105.2,85a23.46,23.46,0,0,0-7.75-9.27,26,26,0,0,0-6.2-3.3,33.07,33.07,0,0,0-5.43-1.31c-5.24-1-10.55-.75-15.85-.75a64.18,64.18,0,0,0-8.19.82c-2.32.31-4.64.76-7,1.16s-4.39,1-6.59,1.43c-3.06.65-6.13,1.26-9.19,1.9-3.44.71-6.86,1.51-10.32,2.13-3.08.54-6.15,1.2-9.29,1.47-.79.07-1.48.61-2.31.48l3.27-3.64s.1,0,.11,0c.67-1.8,2.4-2.7,3.53-4.12a31.42,31.42,0,0,1,4.23-4.56,19.54,19.54,0,0,0,1.66-2.15c1.44-1.75,3.15-3.25,4.57-5,.66-.82.7-1.3.12-2l5.77.66a1.86,1.86,0,0,1-.75,1.65c-1,1-1.77,2.27-2.76,3.34s-2,2.57-3,3.83a64.25,64.25,0,0,0-4,5.45,1.94,1.94,0,0,0,1.53,0,9.41,9.41,0,0,1,3-.81c2.2-.55,4.4-1.13,6.64-1.53,2.87-.51,5.74-1,8.6-1.45,1.16-.2,2.43.14,3.43-.29,1.89-.82,3.89-.46,5.8-.74a81.09,81.09,0,0,1,9.63-.55,59.66,59.66,0,0,1,9.62.28c3,.42,6.15.39,9.19,1.07,1.15.26,2.28.63,3.4,1A38.26,38.26,0,0,1,99.26,74c.51.29,1,.74,1.62.65h0c.54.9.56,2.32,2.15,2.17l0,.46a.66.66,0,0,0,.69.75c.13.41-.29,1.06.51,1.18l.66,0,0,.45c-.12.07-.34.15-.34.22,0,.28.25.22.43.23A10.05,10.05,0,0,1,106.19,85Z"/><path class="f117cd0c-5fc0-451e-ad24-4466127a50c8" d="M53.56,26.29c0-.55.25-.81.8-1.11,1.29-.73,2.41-1.76,3.66-2.58,1.49-1,2.89-2.08,4.47-3s3.16-1.48,4.32-2.84H67a12.8,12.8,0,0,0,2.18,2,2.08,2.08,0,0,1,1,1.49C68.37,22.15,66.06,23.4,64,25c-.48.36-1.08.63-1.19,1.24s.43.73.79,1c2.76,1.76,5.41,3.68,8,5.64C74.5,35,77.31,37.16,80,39.55c1.24,1.12,2.78,1.93,3.75,3.3a14.47,14.47,0,0,0,2.92,2.88A45.2,45.2,0,0,1,92,51.11c2,2.19,3.88,4.46,5.73,6.76,1.57,2,3,4.05,4.42,6.1a33.65,33.65,0,0,1,3.48,6.58c.32.78.17,2,1.48,2.21l0,1.65c.28.55-.1,1.36.69,1.71.14.49-.28,1.14.42,1.47v6.79c-.35.13-.4-.09-.43-.35a21.8,21.8,0,0,0-1.74-6.5c-.74-1.6-1.17-3.37-2.34-4.77a1.41,1.41,0,0,0-.06-.47,80.7,80.7,0,0,0-4.85-7.55,20.46,20.46,0,0,0-3.21-4,1.22,1.22,0,0,0-.5-.69h0a.77.77,0,0,0-.69-.75h0a.56.56,0,0,0-.47-.53c-2.42-3.52-5.55-6.4-8.6-9.33a97.14,97.14,0,0,0-9.68-7.86,61.36,61.36,0,0,0-6.94-4.82c-.13-.52-.56-.61-1-.69L67.57,36c-.07-.25-.27-.36-.47-.5Q61,31.32,54.71,27.39C54.25,27.1,53.71,26.9,53.56,26.29Z"/><path class="f117cd0c-5fc0-451e-ad24-4466127a50c8" d="M172.87,74.19a3.06,3.06,0,0,1,1.15-.26,8.75,8.75,0,0,1,2.65.49,69.25,69.25,0,0,1,7.93,1.63c.3.09.67.17.88-.14s.05-.59-.21-.84a2.11,2.11,0,0,1-.58-.73,27.6,27.6,0,0,0-3.09-5.64c-.85-1.41-1.54-2.9-2.33-4.34a11.46,11.46,0,0,0-2-2.75c-.68-.65-1.62-.4-2.33-.73-2.68-1.26-5.61-1.39-8.43-2-2.52-.56-5.17-.78-7.64-1.4-2.65-.66-5.21-.34-7.8-.56a.78.78,0,0,0-.76.23c-3.53,0-7.07-.19-10.57.49a14.83,14.83,0,0,0-3.73.42c-1.52.37-3,1.05-4.49,1.28-1,.15-1.8,1-2.87.69a5.42,5.42,0,0,1,1.79-1.74c.28,0,.53-.27.63-.31a3.89,3.89,0,0,1,2-.27c1.29,0,2.29-.66,3.42-1,1.54-.48,3-1.25,4.76-1.27a46.55,46.55,0,0,0,5.49-.53,12.79,12.79,0,0,1,6.34.27c1.05.39,2.28.11,3.43.26,1.33.17,2.7.14,4,.3.78.09,1.57-.2,2.28.59.32.35,1.31.2,2,.11,1.64-.22,3,.71,4.5,1,.19,0,.38.19.56.17,1.94-.15,3.69.74,5.55,1,1.41.17,2.6,1.12,4.06,1a.53.53,0,0,1,.41.22c1,1.94,2.49,3.57,3.66,5.42.75,1.2,1.64,2.42,2.45,3.6s1.62,2.59,2.45,3.87c1.53,2.38,3.21,4.66,4.83,7l-.26,0c-3.23-.74-6.54-1-9.8-1.53-1.86-.32-3.73-.75-5.63-.89-.94-.07-1.82-.58-2.8-.47-1.74.2-.78-.38-1.22-.46h0"/><path class="a0778d86-1471-4569-8577-ff4fe67e9835" d="M40.39,58.84l-5.77-.66c-.69,0-1.39-.07-2.09-.06-.54,0-.83-.16-.76-.74l.06-.19a.33.33,0,0,0,.17,0c4,.68,8.06.62,12.07,1.12,3.75.47,7.53.64,11.28,1,3,.32,6,.69,9.08,1.06,2.48.31,4.94.8,7.45.92a29.54,29.54,0,0,1,4.52.87c2.7.57,5.41,1.08,8.09,1.72a51.37,51.37,0,0,1,10.84,3.7,20.56,20.56,0,0,1,5.77,4,2.3,2.3,0,0,1,.78,1.17l-.37,0a2.49,2.49,0,0,1-1.72-.94c-3.51-3.16-7.77-4.72-12.16-6.14a51.09,51.09,0,0,0-5.75-1.48c-1.1-.22-2.13-.62-3.21-.82a58.92,58.92,0,0,1-7-1.24,6.15,6.15,0,0,0-2.27-.44,15.18,15.18,0,0,1-2-.16c-3.47-.24-6.88-1-10.36-1a5.11,5.11,0,0,1-1.3-.07c-3.37-.87-6.85-.61-10.25-1.13Z"/><path class="b705438e-a9d4-4949-8fd2-a4a20d559914" d="M53.56,26.29c.15.61.69.81,1.15,1.1Q61,31.31,67.1,35.49c.2.14.4.25.47.5-.3,0-.53.16-.53.51l-3.81-2.43-3.65-2.56c-2.14-1.31-4.29-2.61-6.43-3.94-.32-.2-.67-.48-.5-1S53.21,26.26,53.56,26.29Z"/><path class="f3608ae9-5772-4f83-8032-42da58ee8983" d="M116.73,55.7l0,.73c-.19,0-.44,0-.56.12-1.24,1.08-2.45,2.18-3.67,3.27l-2.71,2.38a10.9,10.9,0,0,1,.46-2.89c1.36-.55,2.07-1.93,3.33-2.63a1.88,1.88,0,0,1,.74-.26.42.42,0,0,0,.49-.47h0c.71-.06.86-.44,1.69-.2C116.48,55.91,116.72,55.54,116.73,55.7Z"/><path class="b705438e-a9d4-4949-8fd2-a4a20d559914" d="M67,16.79h-.23a16.29,16.29,0,0,0-2.76-2.41c-.43-.24-.07-.32.12-.43,1.33-.16,1.92.86,2.63,1.68Z"/><path class="f9aee9c7-1667-4183-a84b-357821e40a3a" d="M199.32,91c-1.68-.48-3.39-.12-5.09-.24.07-.66.62-.41,1-.51l4,0Z"/><path class="bd1dfbf4-93a2-48bb-be0b-fc3d7973dfef" d="M194.48,81.63"/><path class="bd1dfbf4-93a2-48bb-be0b-fc3d7973dfef" d="M195.16,82.63"/><path class="ab6453de-fecc-41a2-a71d-8680e4c59d7c" d="M114.79,56a.42.42,0,0,1-.49.47A.44.44,0,0,1,114.79,56Z"/><path class="f9aee9c7-1667-4183-a84b-357821e40a3a" d="M10.57,92c.09-.26.21-.48.52-.5l.08.08c-.07.24-.19.42-.47.41A.28.28,0,0,1,10.57,92Z"/><path class="b6d09f8c-e925-41d4-ac05-3ddbdac07cd7" d="M31.83,57.19l-.06.19-.12-.13Z"/><path class="a5414a27-3b09-455e-bbba-2990aefa98db" d="M169.21,92.94a1.56,1.56,0,0,1,.57-.15c9.23.84,18.49.16,27.73.37.76,0,1.51,0,2.27,0,.46.1,1,0,1.4.25a1.65,1.65,0,0,1-.69,3,19.46,19.46,0,0,1-2.16,0H120.48c-.65,0-1.07,0-1.31.81a1.88,1.88,0,0,1-1.88,1.26c-8,0-16.06.13-24.09-.07.4-.41.9-.21,1.36-.21,7.31,0,14.62,0,21.92,0a2.64,2.64,0,0,0,2-.6c.24-.23.45-.46.33-.82s-.45-.27-.71-.27a1.82,1.82,0,0,1-1.63-.93c.84-.74.26-1.56.16-2.36l2.28-.25a2,2,0,0,0,1.28.19q23.88,0,47.78,0C168.38,93.14,168.85,93.32,169.21,92.94Z"/><path class="a5414a27-3b09-455e-bbba-2990aefa98db" d="M91.94,92.86c.4-.19.61.1.84.34,0,.31-.06.62-.11.93-.14.92,0,1.55,1.19,1.37.28,1-.47,1.19-1.12,1.19a14.13,14.13,0,0,1-2.36-.38c0,.28,0,.59-.06.9a1.51,1.51,0,0,0-1.52-.81q-38.13,0-76.25,0c-.68,0-1.36,0-2,0-1.23,0-2-.61-2-1.6s.63-1.64,1.72-1.68c.12,0,.24,0,.35,0,6.47,0,12.94.25,19.41-.14a4.84,4.84,0,0,1,1.78,0,2,2,0,0,0,1.18.14c3.54-.1,7.08.12,10.62.09,15.68-.13,31.36,0,47-.07C91.07,93.15,91.62,93.42,91.94,92.86Z"/><path class="a8f7dd21-6cb0-4d4e-b6bc-27625417f78d" d="M90.32,97.21c0-.31.05-.62.06-.9a14.17,14.17,0,0,0,2.37.36c.65,0,1.39-.17,1.11-1.17l.22-.29c.4.49.88.35,1.48.17-.4-.41-.39-1-1-1.08a8.61,8.61,0,0,1,3.28-5.24,11.44,11.44,0,0,1,8.6-2.46,8.46,8.46,0,0,1,4.66,1.88,13.7,13.7,0,0,1,4.24,5.92c.24.57.45,1.13,1.18,1.18a1.84,1.84,0,0,0,1.65.9c.25,0,.59-.1.71.27s-.1.59-.34.83a2.61,2.61,0,0,1-2,.6q-11,0-21.92,0c-.46,0-1-.17-1.38.24L92,98.4l-1.58-1Z"/><path class="f9aee9c7-1667-4183-a84b-357821e40a3a" d="M10.7,91.94c.28,0,.4-.17.47-.41H28.69a1.47,1.47,0,0,1-1.36.41c-3.39,0-6.8-.18-10.18.09a60.72,60.72,0,0,1-6.47.38C10.69,92.26,10.69,92.1,10.7,91.94Z"/><path class="a5414a27-3b09-455e-bbba-2990aefa98db" d="M90.41,97.45l1.58,1A1.38,1.38,0,0,1,90.41,97.45Z"/><path class="f3608ae9-5772-4f83-8032-42da58ee8983" d="M173.59,76.11v.25a47.49,47.49,0,0,1-6.46-1.14c-2.85-.69-5.77-1-8.67-1.5-3.12-.48-6.28-.74-9.41-1.11a79.17,79.17,0,0,0-11.41-.23,22,22,0,0,0-4.94.72c-1.46.4-3,.55-4.54.92A40.63,40.63,0,0,0,116,79.36c-.23.15-.43.36-.73.36a.43.43,0,0,0-.5.47.53.53,0,0,0-.47.25c-.35,0-.7,0-.72.47l-.48.72c-.7,0-1.28.05-1.2,1h0c-.35,0-.49-.23-.53-.54a6.6,6.6,0,0,1,1.42-2.15A4.58,4.58,0,0,0,115.34,78c1-1.44,2.52-2,3.86-2.76a23.2,23.2,0,0,1,5.22-2.23c2.17-.56,4.31-1.31,6.48-2,3.2-.94,6.57-.64,9.85-1.17,3.58-.59,7.17.64,10.79.44a2.72,2.72,0,0,1,.46.1c2.26.34,4.51.69,6.77,1,2.55.35,5.08.86,7.63,1.18,2,.24,3.95.91,6,.58.25.27.57.51.47,1v.24C173,75.05,173,75.72,173.59,76.11Z"/><path class="a7f1d548-cf7b-41a0-9053-b853b147e0bd" d="M169.21,92.94c-.36.38-.83.2-1.24.2q-23.9,0-47.78,0a2,2,0,0,1-1.28-.19,2.2,2.2,0,0,1,1.18-.26c.31.32.42.1.49-.2l1.1-.15c.27.08.5.07.58-.26,6.82-1.57,13.74-1.4,20.67-1.42,4.6,0,9.15.56,13.7.95,2.76.24,5.55.41,8.29.9.32.59.76.44,1.21.2A11,11,0,0,1,169.21,92.94Z"/><path class="f3d717bc-da79-4c0c-a191-3626395d726a" d="M94.08,95.21l-.22.29c-1.15.18-1.33-.45-1.19-1.37,0-.31.07-.62.11-.93,1.35-2,2.35-4.27,4.43-5.7a12.68,12.68,0,0,1,8-2.53l1,0c.72-.08,1.42.3,2.15.07h.09l.08,0a.49.49,0,0,0,.46.52,1.33,1.33,0,0,0,1,.3c.27.7,1.07.58,1.52,1,1.78,1.52,3.61,3,4.47,5.3a7.38,7.38,0,0,0,.66,1.11c.1.8.68,1.62-.16,2.36-.73,0-1-.59-1.19-1.16A14,14,0,0,0,111,88.5a8.49,8.49,0,0,0-4.67-1.88,11.41,11.41,0,0,0-8.59,2.46,8.51,8.51,0,0,0-3.27,5.22A1.44,1.44,0,0,0,94.08,95.21Z"/><path class="f9aee9c7-1667-4183-a84b-357821e40a3a" d="M124.4,78.05a31.16,31.16,0,0,0,4.13-1.36,29.59,29.59,0,0,1,4.14-.92c1.7-.22,3.42-.55,5.16-.69,3-.23,5.89,0,8.83.08a74.47,74.47,0,0,1,9.06,1c2.77.4,5.54.84,8.27,1.42,2.48.54,5,.83,7.44,1.61a4.21,4.21,0,0,0,.95.07c-.37.86-1.14.28-1.7.48a57.82,57.82,0,0,1-6.11-.94,59.15,59.15,0,0,1-6.21-1c-2.54-.6-5.14-.8-7.7-1.22a29.83,29.83,0,0,0-4.63-.4,76.09,76.09,0,0,0-11,.25,33.92,33.92,0,0,0-6.45,1.34,6.8,6.8,0,0,1-2.23.35.41.41,0,0,0-.54.4l-1.65.06C124.24,78.37,124.32,78.21,124.4,78.05Z"/><path class="f9aee9c7-1667-4183-a84b-357821e40a3a" d="M152.73,80.89l1.18,0c0,.33-.19.46-.49.48-4.21-.28-8.41-.6-12.64-.52A67.84,67.84,0,0,0,131.13,82a67.52,67.52,0,0,0-8.21,1.81c-.55.16-1,.72-1.65.53v-.5a15.64,15.64,0,0,1,4.53-1.67c1.31-.39,2.66-.68,4-1a4.56,4.56,0,0,1,.57-.17,90.48,90.48,0,0,1,16.61-.7l4.29.22C151.55,81.27,152.23,80.77,152.73,80.89Z"/><path class="e710b796-c982-453b-ab43-b12fb7378fc9" d="M170.68,79.73c.56-.2,1.33.38,1.7-.48.94-.18,1.75.38,2.61.56A52.26,52.26,0,0,1,180.47,81c1.65.53,3.42.54,5,1.31-.26.47-.69.35-1,.27-2.6-.75-5.33-.84-8-1.52a18.32,18.32,0,0,0-4.91-.86C171.27,80.19,170.82,80.29,170.68,79.73Z"/><path class="e710b796-c982-453b-ab43-b12fb7378fc9" d="M195.21,90.24c-.36.1-.91-.15-1,.51-4,.27-7.88-.63-11.87-.5.12-.63.52-.45.78-.45h11.11C194.63,89.8,195.09,89.68,195.21,90.24Z"/><path class="f9aee9c7-1667-4183-a84b-357821e40a3a" d="M129.92,86c1.43-.12,2.8-.75,4.27-.52h10.64l2.6,0c-.27.46-.92,0-1.2.49H135c-.61-.31-1.21-.55-1.68.22l-1.65,0C131.06,86.08,130.43,86.42,129.92,86Z"/><path class="e710b796-c982-453b-ab43-b12fb7378fc9" d="M189,87.3a16.6,16.6,0,0,1,6.24-.23c.51.07.92-.21,1.4-.16s.89,0,.88.57-.51.39-.82.38C194.13,87.74,191.59,87.21,189,87.3Z"/><path class="e710b796-c982-453b-ab43-b12fb7378fc9" d="M129.92,86c.51.46,1.14.12,1.7.25-.09.13-.17.37-.26.37-2.48,0-4.77,1.06-7.2,1.3h-.74a4.4,4.4,0,0,1,2.14-1C127,86.69,128.4,86,129.92,86Z"/><path class="f9aee9c7-1667-4183-a84b-357821e40a3a" d="M146.23,86c.28-.47.93,0,1.2-.49,2.34-.18,4.51.77,6.81,1a7.7,7.7,0,0,1-3.57,0C149.21,86.09,147.67,86.42,146.23,86Z"/><path class="f9aee9c7-1667-4183-a84b-357821e40a3a" d="M144.83,85.44H134.19c.13-.47.5-.44.86-.44H144C144.34,85,144.71,85,144.83,85.44Z"/><path class="e710b796-c982-453b-ab43-b12fb7378fc9" d="M153.42,81.4c.3,0,.49-.15.49-.48,2.19.45,4.46.47,6.65,1.39a1.57,1.57,0,0,1-1.65.23,14.94,14.94,0,0,0-4.78-.67C153.78,81.87,153.49,81.82,153.42,81.4Z"/><path class="f9aee9c7-1667-4183-a84b-357821e40a3a" d="M118.13,80.91c0-.82.78-.74,1.22-.91,1.35-.52,2.54-1.48,4.07-1.51,0,.11,0,.23,0,.34-.74,1.07-2.06,1-3.09,1.5a3.15,3.15,0,0,1-2,.59Z"/><path class="f3608ae9-5772-4f83-8032-42da58ee8983" d="M110,85.85a1.33,1.33,0,0,1-1-.3l.09-.54c.92-.88,1.17-2.28,2.33-3,0,.32.18.53.53.55a1.77,1.77,0,0,1-1,1.6A1.69,1.69,0,0,0,110,85.85Z"/><path class="e710b796-c982-453b-ab43-b12fb7378fc9" d="M121.27,83.79v.5c-.88.91-2.13,1-3.23,1.37-.06,0-.23-.08-.28-.16a.28.28,0,0,1,.1-.41C119,84.7,120,83.83,121.27,83.79Z"/><path class="e710b796-c982-453b-ab43-b12fb7378fc9" d="M118.13,80.91h.27A7.79,7.79,0,0,1,115,82.5,3.65,3.65,0,0,1,118.13,80.91Z"/><path class="e710b796-c982-453b-ab43-b12fb7378fc9" d="M123.42,87.87h.74c0,.35-.25.45-.56.48s-.89.43-1.35.06c-.15-.11-.22-.31-.09-.4C122.54,87.74,123,87.91,123.42,87.87Z"/><path class="f3608ae9-5772-4f83-8032-42da58ee8983" d="M111.92,82.6c-.08-.92.5-1,1.2-1A1,1,0,0,1,111.92,82.6Z"/><path class="f9aee9c7-1667-4183-a84b-357821e40a3a" d="M133.27,86.17c.47-.77,1.07-.53,1.68-.22C134.44,86.4,133.83,86.11,133.27,86.17Z"/><path class="f9aee9c7-1667-4183-a84b-357821e40a3a" d="M152.73,80.89c-.5-.12-1.18.38-1.47-.43C151.76,80.57,152.44,80.07,152.73,80.89Z"/><path class="a7f1d548-cf7b-41a0-9053-b853b147e0bd" d="M166.13,92.73c-.45.24-.89.39-1.21-.2A1.12,1.12,0,0,1,166.13,92.73Z"/><path class="bdecfdf5-aae3-4f8b-be42-1436033fa46b" d="M173.58,76.36c.44.08,1-.29,1.22.46C174.36,76.75,173.76,77.11,173.58,76.36Z"/><path class="f3608ae9-5772-4f83-8032-42da58ee8983" d="M113.6,80.91c0-.49.37-.48.72-.47C114.29,80.92,114,80.92,113.6,80.91Z"/><path class="f9aee9c7-1667-4183-a84b-357821e40a3a" d="M124.4,78.05c-.08.16-.16.32-.23.48h0l-.53-.06C123.73,78,124.05,78,124.4,78.05Z"/><path class="f3608ae9-5772-4f83-8032-42da58ee8983" d="M114.79,80.19a.43.43,0,0,1,.5-.47A.45.45,0,0,1,114.79,80.19Z"/><path class="a5414a27-3b09-455e-bbba-2990aefa98db" d="M122.26,92.1c-.08.33-.31.34-.58.26C121.8,92.1,122,92,122.26,92.1Z"/><path class="f9aee9c7-1667-4183-a84b-357821e40a3a" d="M125.82,78.47a.41.41,0,0,1,.54-.4C126.28,78.35,126.13,78.52,125.82,78.47Z"/><path class="a5414a27-3b09-455e-bbba-2990aefa98db" d="M120.58,92.51c-.07.3-.18.52-.49.2A.34.34,0,0,1,120.58,92.51Z"/><path class="f9aee9c7-1667-4183-a84b-357821e40a3a" d="M123.63,78.46l.53.06c-.14.33-.45.24-.7.31,0-.11,0-.23,0-.34Z"/><path class="f3d717bc-da79-4c0c-a191-3626395d726a" d="M77.65,73.23a42.24,42.24,0,0,1,11.47,1.43,1.48,1.48,0,0,1,.82,1.47,8.86,8.86,0,0,0-.17,4.31c0,.16,0,.31,0,.46-.67,2.67-.3,5.38-.3,8.07,0,.66.09,1.31-.84,1.35-.81-.35-1.22-1.29-2.15-1.49a.68.68,0,0,0-.71-.71C84,86,82.43,85.83,81,87.67a1.52,1.52,0,0,0-1.29.82l-.41.13a.41.41,0,0,0-.5.38l-.26.08c-1.19.25-1.36-.49-1.34-1.4,0-.33.3-.67,0-1L77,83.82a20.73,20.73,0,0,0-.15-5.28c0-1.36,0-2.73,0-4.09C76.94,73.93,77.76,73.89,77.65,73.23Z"/><path class="a7f1d548-cf7b-41a0-9053-b853b147e0bd" d="M91.94,92.86c-.32.56-.87.29-1.3.29-15.68,0-31.36-.06-47,.07-3.54,0-7.08-.19-10.62-.09A2,2,0,0,1,31.8,93a28.87,28.87,0,0,1,4.64-.31l2-.15c.1.11.18.09.25,0,3.35-.16,6.7-.39,10-.67,4.84-.41,9.69-.79,14.55-1,2.79-.14,5.6-.35,8.37-.29a97.54,97.54,0,0,1,14.17.9A32.57,32.57,0,0,1,91.94,92.86Z"/><path class="f9aee9c7-1667-4183-a84b-357821e40a3a" d="M76.86,78.54A20.73,20.73,0,0,1,77,83.82c-2.87,0-5.73-.5-8.6-.25-2.51.23-5.06-.09-7.51.32-3.07.5-6.18.32-9.23.85l-.24-.47,1.66,0c.39,0,.87.21,1-.42l8-.88c.2,0,.39-.07.59-.08,4.1,0,8.2-.44,12.31-.21a3.86,3.86,0,0,1,.57.12c.87.18,1.35.1,1.16-1.06-.33-2-.24-2-2.24-2l-10.55,0a7.16,7.16,0,0,1-.93,0c-.66-.1,0-.3,0-.46,4.24-.21,8.45-.87,12.71-.71Z"/><path class="f9aee9c7-1667-4183-a84b-357821e40a3a" d="M77.65,73.23c.11.66-.71.7-.8,1.22-3.36,0-6.73-.18-10.07,0-2.68.19-5.36.57-8,1-3,.44-5.88,1.12-8.87,1.42a20.4,20.4,0,0,1-3.24.47v-.51c1.44,0,2.72-.72,4.11-1C55.14,75,59.54,74.22,64,73.69a37.45,37.45,0,0,1,6.17-.46C72.66,73.34,75.15,72.71,77.65,73.23Z"/><path class="f9aee9c7-1667-4183-a84b-357821e40a3a" d="M77.13,86.69c.33.32,0,.66,0,1,0,.91.15,1.65,1.34,1.4-.1.67-.7.79-1.15.81s-.45-.55-.46-.94-.28-.56-.69-.63A36.5,36.5,0,0,0,65.52,88c-3.28.43-6.57.15-9.85.7a24.59,24.59,0,0,1-7.38.26,38,38,0,0,1,6.1-.94c2.16-.19,4.3-.62,6.48-.63,4.31,0,8.62-.16,12.92-.23a5.3,5.3,0,0,1,2.13.19C76.56,87.61,76.84,87.13,77.13,86.69Z"/><path class="f9aee9c7-1667-4183-a84b-357821e40a3a" d="M89.94,76.13a1.48,1.48,0,0,0-.82-1.47c1.07-.29,1.7.64,2.55,1a20.48,20.48,0,0,1,7.53,4.81v.49l0,0a10.08,10.08,0,0,1-2.85-1.58,18.9,18.9,0,0,0-5.74-2.57A.66.66,0,0,0,89.94,76.13Z"/><path class="e710b796-c982-453b-ab43-b12fb7378fc9" d="M63,79.24c0,.16-.63.36,0,.46a7.16,7.16,0,0,0,.93,0c-.65.93-1.73.58-2.48.54a10.85,10.85,0,0,0-2.93.29,12.3,12.3,0,0,1-3.07.34c-1.8-.06-3.47.61-5.22.86a6,6,0,0,1-2.34-.06c1-.32,1.58-.81,2.38-.81a33.27,33.27,0,0,0,7.08-1.12s.08,0,.12,0A27.4,27.4,0,0,0,63,79.24Z"/><path class="e710b796-c982-453b-ab43-b12fb7378fc9" d="M88.64,90.32c.93,0,.84-.69.84-1.35,0-2.69-.37-5.4.3-8.07,1.32.65,2.65,1.29,4.1,2-1.17.48-2-.26-2.92-.56s-1.15,0-1.11.73c.06,1-.23,2,.33,3,.28.51-.54,1.07-.37,1.76.12.5-.19,1.16.67,1.29a.4.4,0,0,1,.25.58c-.1.27-.27.11-.46,0-.73-.24-.37.4-.46.64a.69.69,0,0,1-.67.56C88.68,91,88.64,90.67,88.64,90.32Z"/><path class="e710b796-c982-453b-ab43-b12fb7378fc9" d="M46.64,76.84v.51c0,.35-.3.39-.6.44-2.78.54-5.54,1.16-8.29,1.81-1,.24-2,.64-3,.79-.29,0-.73.17-.79-.28s.42-.32.7-.39l5.81-1.45C42.55,77.76,44.56,77.15,46.64,76.84Z"/><path class="e710b796-c982-453b-ab43-b12fb7378fc9" d="M79.67,88.49A1.52,1.52,0,0,1,81,87.67c1,.15,2,.34,3,.44.59.06,1.2.59,1.8,0a.68.68,0,0,1,.71.71,4.35,4.35,0,0,1-3,.12C82.24,88.7,81,88.64,79.67,88.49Z"/><path class="e710b796-c982-453b-ab43-b12fb7378fc9" d="M11.56,90.48c2.71-.81,5.51-.43,8.27-.48C17.09,90.42,14.37,91.11,11.56,90.48Z"/><path class="e710b796-c982-453b-ab43-b12fb7378fc9" d="M51.43,84.27l.24.47a21.3,21.3,0,0,1-3.29.66c-1.15.31-2.44,0-3.64.46-.33.14-.81-.12-1.23-.27A59.48,59.48,0,0,1,51.43,84.27Z"/><path class="e710b796-c982-453b-ab43-b12fb7378fc9" d="M99.68,80.91A2,2,0,0,1,101,82.2c.18.4.24.78.73.88.28.06.44.27.28.52s-.41.16-.6,0l-2.18-2.17A.44.44,0,0,0,99.68,80.91Z"/><path class="e710b796-c982-453b-ab43-b12fb7378fc9" d="M89.94,76.13a.66.66,0,0,1,.63.66c-.7.15-.44.72-.52,1.15-.14.83.34,1.73-.28,2.5A8.86,8.86,0,0,1,89.94,76.13Z"/><path class="e710b796-c982-453b-ab43-b12fb7378fc9" d="M54.09,83.81c-.13.63-.61.43-1,.42C53.23,83.64,53.7,83.82,54.09,83.81Z"/><path class="aad68216-729e-4078-a3bf-6439b7892cb4" d="M78.76,89a.41.41,0,0,1,.5-.38C79.24,89,79.07,89.07,78.76,89Z"/><path class="e710b796-c982-453b-ab43-b12fb7378fc9" d="M99.68,80.91a.44.44,0,0,1-.49.48l0-.45,0,0h.48Z"/><path class="e710b796-c982-453b-ab43-b12fb7378fc9" d="M99.67,80.91H99.2v-.49A.44.44,0,0,1,99.67,80.91Z"/><path class="a5414a27-3b09-455e-bbba-2990aefa98db" d="M38.72,92.5c-.07.12-.15.14-.25,0Z"/><path class="a77e8998-1e8a-4ac7-99fc-3f77cf53aab4" d="M109.77,62.2l2.71-2.38c1.22-1.09,2.43-2.19,3.67-3.27.12-.11.37-.08.56-.12v.72c-.49.59-.59.4-.69,1s.65,1.06.65,1.61-.43,1.46-.49,2,1.07,1,1,1.64-1.07,1.13-1.14,1.83,1.06,1.14,1.14,1.85c-.77.21-.49,1-.49,1.47,0,1.39-1.3,3.11-2.18,4.1s-1.15,2.1-2.3,2.62a.56.56,0,0,0-.24.4c-.11,1.35-1.1,2.23-1.75,3.29-.19.31-.44.28-.71.28l-.38-3.87c.75-1,.41-2,.18-3.07.06-1.2.13-2.4.19-3.6A37.92,37.92,0,0,0,109.77,62.2Z"/><path class="a0778d86-1471-4569-8577-ff4fe67e9835" d="M109.12,75.35c.13,1.29.25,2.58.38,3.87-.06,1.24-.6,2.44-.32,3.94l6.37-8.72s-.5-.46,0-.12c.65-.44-.72-.27,0-.62-.07.43.69.28.62.71-.57.21.24.38,0,.8-1,1.65-2.5,3-3.36,4.7a6.6,6.6,0,0,0-1.42,2.15c-1.16.67-1.41,2.07-2.33,3l-.55,0-.08,0h-.09l-.09-.68c0-2.26,0-4.53,0-6.79,0-.69.42-1.46-.35-2l0-1.14a12.26,12.26,0,0,0-.66-4.66,16.93,16.93,0,0,0-.71-2.63,73,73,0,0,0-3.36-7.1c-1.66-2.78-3.48-5.46-5.32-8.11s-4.1-5.34-6.14-8-4.34-5.52-6.58-8.22a2,2,0,0,1-.59-1.27l.08-.07H85c1.14,1.24,2.35,2.43,3.41,3.74,2.92,3.61,5.88,7.18,8.57,11a123.32,123.32,0,0,1,7.38,11.27,42.54,42.54,0,0,1,4.12,10.11c.14.53-.13,1.12.24,1.62A16.52,16.52,0,0,1,109.12,75.35Z"/><path class="b705438e-a9d4-4949-8fd2-a4a20d559914" d="M67,16.79l-.24-1.15A26.84,26.84,0,0,1,71,19.46c2.64,2.56,5.2,5.21,7.76,7.86.92.94,1.74,2,2.6,3-.32,0-.43.19-.44.48-1.17-1.19-2.37-2.35-3.55-3.53-1-1-1.71-2.38-3.11-3a13.22,13.22,0,0,0-4-3.92,2.08,2.08,0,0,0-1-1.49A12.8,12.8,0,0,1,67,16.79Z"/><path class="a0778d86-1471-4569-8577-ff4fe67e9835" d="M80.94,30.77c0-.29.12-.48.44-.48.81.95,2,1.59,2.46,2.83.08.4.16.81.23,1.22C82.7,33.44,82,31.94,80.94,30.77Z"/><path class="f117cd0c-5fc0-451e-ad24-4466127a50c8" d="M109.12,75.35a16.52,16.52,0,0,0-.39-3.29l.57.22C109.53,73.32,109.87,74.37,109.12,75.35Z"/><path class="a0778d86-1471-4569-8577-ff4fe67e9835" d="M84.07,34.34c-.07-.41-.15-.82-.23-1.22.24.25.47.51.71.77v.46l-.08.07Z"/><path class="a0778d86-1471-4569-8577-ff4fe67e9835" d="M84.56,34.35v-.46a.45.45,0,0,1,.46.47Z"/><path class="b705438e-a9d4-4949-8fd2-a4a20d559914" d="M93.42,63.4l-3.11-1.69c-.54-.71-1.45-.82-2.11-1.36a27.89,27.89,0,0,0-4.86-2.65,44.38,44.38,0,0,0-5.73-2.21,36.05,36.05,0,0,0-5.31-1.87c-1.83-.36-3.62-.94-5.37-1.47A65.67,65.67,0,0,0,57.06,50a1.19,1.19,0,0,1-1-.59c-.21-.41.1-.66.33-.94,1-1.21,2.12-2.38,3.07-3.64a49.35,49.35,0,0,1,4.25-4.88c1.07-1.1,2.51-1.81,3.32-3.18.15,0,.36,0,.46.09,1.65,1.48,3.57,2.61,5.32,4s3.21,2.55,4.92,3.64c1.13.73,2.06,1.67,3.09,2.48,2.09,1.65,3.91,3.62,5.84,5.46,1.69,1.61,3.32,3.27,4.91,5,.76.82,1.16,2,2.31,2.45,0,.35,0,.7.48.72,0,.51.55.42.71.73l2.18,3.34a3.71,3.71,0,0,1-1.13-.22C95.22,64.09,94.49,63.25,93.42,63.4Z"/><path class="b8a5b3a7-3960-4a5f-b773-9554ac588764" d="M67.06,36.73c-.81,1.37-2.25,2.08-3.32,3.18a49.35,49.35,0,0,0-4.25,4.88c-1,1.26-2,2.43-3.07,3.64-.23.28-.54.53-.33.94a1.19,1.19,0,0,0,1,.59,65.67,65.67,0,0,1,9.87,2.19c1.75.53,3.54,1.11,5.37,1.47a36.05,36.05,0,0,1,5.31,1.87,44.38,44.38,0,0,1,5.73,2.21,27.89,27.89,0,0,1,4.86,2.65c.66.54,1.57.65,2.11,1.36A2.47,2.47,0,0,1,88,60.84a.81.81,0,0,0-.72-.33c-1.83.08-3.36-1-5.08-1.34s-3.2-.76-4.81-1.1c-1.43-.31-2.93-.24-4.32-.82a4.94,4.94,0,0,0-1.89-.2,43.79,43.79,0,0,1-5.35-.72,20.54,20.54,0,0,1-5-.75,8.2,8.2,0,0,0-2.49-.16c-2.21-.09-4.35-.71-6.58-.69-1.36,0-2.76.27-4.1-.4-.48-.24-1.19,0-1.78-.08s-1.23.59-1.51-.1.5-1.26.85-1.68c1-1.14,1.92-2.29,2.92-3.42,1.54-1.73,3.09-3.44,4.77-5,.95-.91,1.84-1.95,2.71-3,1.18-1.38,2.73-2.36,4-3.68a29.11,29.11,0,0,1,3.14-2.52,1.17,1.17,0,0,0,.5-.77L67,36.5A1.79,1.79,0,0,0,67.06,36.73Z"/><path class="a0778d86-1471-4569-8577-ff4fe67e9835" d="M108.25,84.38l.09.68c-.73.23-1.43-.15-2.15-.07A10.05,10.05,0,0,0,105,80.16l-.09-.45c0-.15,0-.3,0-.45.1-.53,0-.93-.64-1h0c0-.38.14-.87-.49-.95h0c.09-1.45-1.13-2.23-1.7-3.34a.7.7,0,0,0-.48-.72l-.08-.46.37,0,.67.26c.63,1.17.73-.46,1.19-.22,1.17,1.4,1.6,3.17,2.34,4.77a21.8,21.8,0,0,1,1.74,6.5C107.85,84.29,107.9,84.51,108.25,84.38Z"/><path class="a0778d86-1471-4569-8577-ff4fe67e9835" d="M103.74,72.76c-.46-.24-.56,1.39-1.19.22.17-1.14-1-1.64-1.25-2.6,0-.33-.1-.49-.42-.52h0a18.87,18.87,0,0,0-3.6-5.28L95.1,61.24c.35,0,.49-.21.52-.53a20.46,20.46,0,0,1,3.21,4,80.7,80.7,0,0,1,4.85,7.55A1.41,1.41,0,0,1,103.74,72.76Z"/><path class="b705438e-a9d4-4949-8fd2-a4a20d559914" d="M97.28,64.58a18.87,18.87,0,0,1,3.6,5.28c-1.21-.57-2-1.7-3-2.54a42.49,42.49,0,0,0-4.28-3.51c-.11-.07-.14-.27-.21-.41,1.07-.15,1.8.69,2.73,1A3.71,3.71,0,0,0,97.28,64.58Z"/><path class="a0778d86-1471-4569-8577-ff4fe67e9835" d="M100.88,69.86c.32,0,.47.19.42.52A.45.45,0,0,1,100.88,69.86Z"/><path class="b705438e-a9d4-4949-8fd2-a4a20d559914" d="M102.07,74c.57,1.11,1.79,1.89,1.7,3.34h-.72l0-.46a4.33,4.33,0,0,0-2.15-2.17h0c.08-.56-.28-.88-.63-1.21A32.49,32.49,0,0,0,96,70.39c-1.1-.77-2.62-.74-3.7-1.42a18.45,18.45,0,0,0-5.4-1.87,54.46,54.46,0,0,0-8.65-1.24A80.35,80.35,0,0,0,69,65.62c-5.55.1-11.11-.08-16.64.62-1.21.16-2.44.15-3.66.39-1.65.33-3.34.37-5,.79-1.12.29-2.38-.15-3.51.47a.62.62,0,0,1-.86-.17c-.2-.33,0-.57.25-.83,1-1.21,2-2.47,3-3.66a30.94,30.94,0,0,0,2.91-3.93c3.4.52,6.88.26,10.25,1.13a5.11,5.11,0,0,0,1.3.07c3.48,0,6.89.81,10.36,1a15.18,15.18,0,0,0,2,.16,6.15,6.15,0,0,1,2.27.44,58.92,58.92,0,0,0,7,1.24c1.08.2,2.11.6,3.21.82a51.09,51.09,0,0,1,5.75,1.48c4.39,1.42,8.65,3,12.16,6.14a2.49,2.49,0,0,0,1.72.94c0,.15,0,.31.08.46a.47.47,0,0,0-.14.7C101.54,74,101.86,74,102.07,74Z"/><path class="b8a5b3a7-3960-4a5f-b773-9554ac588764" d="M45.45,59.3a30.94,30.94,0,0,1-2.91,3.93c-1,1.19-2,2.45-3,3.66-.22.26-.45.5-.25.83a.62.62,0,0,0,.86.17c1.13-.62,2.39-.18,3.51-.47,1.66-.42,3.35-.46,5-.79,1.22-.24,2.45-.23,3.66-.39,5.53-.7,11.09-.52,16.64-.62a80.35,80.35,0,0,1,9.31.24,54.46,54.46,0,0,1,8.65,1.24A18.45,18.45,0,0,1,92.32,69c1.08.68,2.6.65,3.7,1.42a32.49,32.49,0,0,1,4.23,3.06c.35.33.71.65.63,1.21-.66.09-1.11-.36-1.62-.65a38.26,38.26,0,0,0-8.49-3.93c-1.12-.32-2.25-.69-3.4-1-3-.68-6.15-.65-9.19-1.07a59.66,59.66,0,0,0-9.62-.28,81.09,81.09,0,0,0-9.63.55c-1.91.28-3.91-.08-5.8.74-1,.43-2.27.09-3.43.29-2.86.48-5.73.94-8.6,1.45-2.24.4-4.44,1-6.64,1.53a9.41,9.41,0,0,0-3,.81,1.94,1.94,0,0,1-1.53,0,64.25,64.25,0,0,1,4-5.45c1-1.26,1.93-2.64,3-3.83s1.72-2.34,2.76-3.34a1.86,1.86,0,0,0,.75-1.65Z"/><path class="f117cd0c-5fc0-451e-ad24-4466127a50c8" d="M100.88,74.66A4.33,4.33,0,0,1,103,76.83C101.44,77,101.42,75.56,100.88,74.66Z"/><path class="b705438e-a9d4-4949-8fd2-a4a20d559914" d="M104.27,78.24c.62.09.74.49.64,1l-.66,0C104.26,78.89,104.27,78.57,104.27,78.24Z"/><path class="b705438e-a9d4-4949-8fd2-a4a20d559914" d="M104.27,78.24c0,.33,0,.65,0,1-.8-.12-.38-.77-.51-1.18h0l.5.21Z"/><path class="b705438e-a9d4-4949-8fd2-a4a20d559914" d="M103.05,77.29h.72c0,.25,0,.49,0,.74h0A.66.66,0,0,1,103.05,77.29Z"/><path class="f117cd0c-5fc0-451e-ad24-4466127a50c8" d="M104.93,79.71l.09.45c-.18,0-.43,0-.43-.23C104.59,79.86,104.81,79.78,104.93,79.71Z"/><path class="b8a5b3a7-3960-4a5f-b773-9554ac588764" d="M70.25,20.32a13.22,13.22,0,0,1,4,3.92c-1,.88-2,1.78-3,2.65s-1.08,1.33.16,2.16a25.71,25.71,0,0,1,4.1,3c1.67,1.72,3.71,3,5.34,4.73S84.75,40,86.4,42a28.08,28.08,0,0,0,2.17,2.2,20.63,20.63,0,0,1,2.78,2.74c.94,1.32,2.21,2.31,3.12,3.64,1.55,2.28,3.43,4.34,4.94,6.63a51.4,51.4,0,0,1,4.57,8c1.07,2.49,2.23,5,3.1,7.52-1.31-.17-1.16-1.43-1.48-2.21A33.65,33.65,0,0,0,102.12,64c-1.44-2-2.85-4.14-4.42-6.1-1.85-2.3-3.76-4.57-5.73-6.76a45.2,45.2,0,0,0-5.34-5.38,14.47,14.47,0,0,1-2.92-2.88c-1-1.37-2.51-2.18-3.75-3.3-2.65-2.39-5.46-4.59-8.33-6.73-2.62-2-5.27-3.88-8-5.64-.36-.23-.87-.48-.79-1S63.52,25.34,64,25C66.06,23.4,68.37,22.15,70.25,20.32Z"/><path class="b705438e-a9d4-4949-8fd2-a4a20d559914" d="M107.08,72.76c-.87-2.57-2-5-3.1-7.52a51.4,51.4,0,0,0-4.57-8C97.9,54.9,96,52.84,94.47,50.56c-.91-1.33-2.18-2.32-3.12-3.64a20.63,20.63,0,0,0-2.78-2.74A28.08,28.08,0,0,1,86.4,42c-1.65-2-3.83-3.34-5.55-5.2s-3.67-3-5.34-4.73a25.71,25.71,0,0,0-4.1-3c-1.24-.83-1.29-1.2-.16-2.16s2-1.77,3-2.65c1.4.62,2.1,2,3.11,3,1.18,1.18,2.38,2.34,3.55,3.53s1.76,2.67,3.13,3.57l.41.08a2,2,0,0,0,.59,1.27c2.24,2.7,4.45,5.42,6.58,8.22s4.21,5.26,6.14,8,3.66,5.33,5.32,8.11a73,73,0,0,1,3.36,7.1,16.93,16.93,0,0,1,.71,2.63,12.26,12.26,0,0,1,.66,4.66l-.71,0Z"/><path class="a0778d86-1471-4569-8577-ff4fe67e9835" d="M95.62,60.71c0,.32-.17.52-.52.53-.16-.31-.75-.22-.71-.73a.7.7,0,0,0-.48-.72c-1.15-.45-1.55-1.63-2.31-2.45-1.59-1.72-3.22-3.38-4.91-5-1.93-1.84-3.75-3.81-5.84-5.46-1-.81-2-1.75-3.09-2.48-1.71-1.09-3.29-2.41-4.92-3.64s-3.67-2.47-5.32-4c-.1-.09-.31-.06-.46-.09a1.79,1.79,0,0,1,0-.23c0-.35.23-.46.53-.51l.18.06c.1.56.54.64,1,.69a61.36,61.36,0,0,1,6.94,4.82,97.14,97.14,0,0,1,9.68,7.86c3,2.93,6.18,5.81,8.6,9.33,0,.35.08.55.47.53h0c0,.49.22.72.69.75h0a.42.42,0,0,0,.43.5A.44.44,0,0,1,95.62,60.71Z"/><path class="b705438e-a9d4-4949-8fd2-a4a20d559914" d="M107.13,74.41l.71,0c0,.38,0,.76,0,1.14,0,.18,0,.37-.07.55C107,75.77,107.41,75,107.13,74.41Z"/><path class="b705438e-a9d4-4949-8fd2-a4a20d559914" d="M107.82,76.12c0-.18,0-.37.07-.55.77.56.31,1.33.35,2C107.54,77.26,108,76.61,107.82,76.12Z"/><path class="a0778d86-1471-4569-8577-ff4fe67e9835" d="M68.74,36.74c-.45-.05-.89-.13-1-.69C68.18,36.13,68.61,36.22,68.74,36.74Z"/><path class="a0778d86-1471-4569-8577-ff4fe67e9835" d="M95.12,60c-.47,0-.73-.26-.69-.75A.77.77,0,0,1,95.12,60Z"/><path class="a0778d86-1471-4569-8577-ff4fe67e9835" d="M95.55,60.52a.42.42,0,0,1-.43-.5A.44.44,0,0,1,95.55,60.52Z"/><path class="a0778d86-1471-4569-8577-ff4fe67e9835" d="M94.43,59.28c-.39,0-.52-.18-.47-.53A.56.56,0,0,1,94.43,59.28Z"/><path class="f3608ae9-5772-4f83-8032-42da58ee8983" d="M115.55,74.44l-6.37,8.72c-.28-1.5.26-2.7.32-3.94.27,0,.52,0,.71-.28.65-1.06,1.64-1.94,1.75-3.29a.56.56,0,0,1,.24-.4c1.15-.52,1.52-1.77,2.3-2.62s1.54-1.69,1.55-3.09c0-.45.43-.3.63-1,0,.8-.21.53-.2,1.33.21,1.29-1.32,2.34-1.2,3.61C115.11,73.87,114.75,74.32,115.55,74.44Z"/><path class="bdecfdf5-aae3-4f8b-be42-1436033fa46b" d="M116.72,57.15"/><path class="bdecfdf5-aae3-4f8b-be42-1436033fa46b" d="M116.48,59.07"/><path class="a77e8998-1e8a-4ac7-99fc-3f77cf53aab4" d="M112.81,79.91c.86-1.75,2.39-3.27,3.4-4.92.25-.42-.59-.37,0-.58a9.86,9.86,0,0,0,1-1.73c1.31-2.39,3.27-3.5,4.92-5.62a43.9,43.9,0,0,1,4.62-4.63,4.4,4.4,0,0,0,2.56-1c1.23-.82,2.86-.86,3.82-2.1,0-.06.23,0,.34,0,2-.19,3.9-1.26,6-1.25.23,0,.3-.23.33-.44,3.5-.68,7-.44,10.57-.49a.48.48,0,0,0,.56.48,16.44,16.44,0,0,1,4.57.46c1.55.41,3.18.59,4.75.9a66.52,66.52,0,0,1,6.58,2.16,2.31,2.31,0,0,1,1.45,1.32c.81,1.94,1.34,4,2.23,5.89.74,1.59,1.3,3.25,1.94,4.88-2.05.33-4-.34-6-.58-2.55-.32-5.08-.83-7.63-1.18-2.26-.31-4.51-.66-6.77-1a2.72,2.72,0,0,0-.46-.1c-3.62.2-7.21-1-10.79-.44-3.28.53-6.65.23-9.85,1.17-2.17.64-4.31,1.39-6.48,2a23.2,23.2,0,0,0-5.22,2.23c-1.34.73-2.88,1.32-3.86,2.76A4.58,4.58,0,0,1,112.81,79.91Z"/><path class="a0bae2fa-b70d-4ffb-b7da-85311074bbe0" d="M167.16,72.28s-8.24-.22-10.17-1.06c-2.75-.41-2.75-.41-7.71-.89-.25-.58,1.18-5.12.44-5.36-2.2-.69,2.75-3.28.5-3.73-1.57-.31,1.57-1.82,0-2.23s2.19-1.43.65-1.39a.48.48,0,0,1-.56-.48.78.78,0,0,1,.76-.23c2.59.22,5.15-.1,7.8.56,2.47.62,5.12.84,7.64,1.4,2.82.62,5.75.75,8.43,2,.71.33,1.65.08,2.33.73a11.46,11.46,0,0,1,2,2.75c.79,1.44,1.48,2.93,2.33,4.34a27.6,27.6,0,0,1,3.09,5.64,2.11,2.11,0,0,0,.58.73c.26.25.42.53.21.84s-.58.23-.88.14a69.25,69.25,0,0,0-7.93-1.63,8.75,8.75,0,0,0-2.65-.49,3.06,3.06,0,0,0-1.15.26C172.13,73.79,167.42,72.55,167.16,72.28Z"/><path class="f3608ae9-5772-4f83-8032-42da58ee8983" d="M139.75,57.63c0,.21-.1.44-.33.44-2.09,0-3.94,1.06-6,1.25-.11,0-.29,0-.34,0-1,1.24-2.59,1.28-3.82,2.1a4.4,4.4,0,0,1-2.56,1,9.39,9.39,0,0,1,2-2.41h0c1.07.27,1.87-.54,2.87-.69,1.53-.23,3-.91,4.49-1.28A14.83,14.83,0,0,1,139.75,57.63Z"/><path class="bd1dfbf4-93a2-48bb-be0b-fc3d7973dfef" d="M173.59,76.11c-.63-.39-.62-1.06-.72-1.68A1.65,1.65,0,0,1,173.59,76.11Z"/><path class="f3608ae9-5772-4f83-8032-42da58ee8983" d="M115.55,74.44c-.8-.12-.44-.57-.27-1,.31.21.21.56.28.85A.11.11,0,0,1,115.55,74.44Z"/><path class="a5414a27-3b09-455e-bbba-2990aefa98db" d="M94.08,95.21a1.44,1.44,0,0,1,.43-.91c.66,0,.65.67,1,1.08C95,95.56,94.48,95.7,94.08,95.21Z"/><path class="e1cfb4f7-b11b-45fe-b971-82565db6ff3f" d="M108.51,85l.55,0-.09.54A.49.49,0,0,1,108.51,85Z"/><path class="f26b21cb-3d8e-46fb-9cdb-98b06f174d59" d="M85.78,88.12c-.6.58-1.21,0-1.8,0-1-.1-2-.29-3-.44C82.43,85.83,84,86,85.78,88.12Z"/><path class="a0778d86-1471-4569-8577-ff4fe67e9835" d="M93.91,59.79a.7.7,0,0,1,.48.72C93.91,60.49,93.91,60.14,93.91,59.79Z"/><path class="b705438e-a9d4-4949-8fd2-a4a20d559914" d="M102.07,74c-.21,0-.53.09-.62,0a.47.47,0,0,1,.14-.7A.7.7,0,0,1,102.07,74Z"/><path class="b705438e-a9d4-4949-8fd2-a4a20d559914" d="M103.76,78c0-.25,0-.49,0-.74.63.08.45.57.49.95Z"/><path class="f117cd0c-5fc0-451e-ad24-4466127a50c8" d="M172.42,74l-5.26-1.76-5.9-.34-4.12-.66-7.86-1L149,72.61,160.44,74l6.68,1.2,3.56.75,2.9.39.21.49,1,0,.27-.23-1.87-2A1.9,1.9,0,0,0,172.42,74Z"/></g><g id="bc8b6d0d-c89d-4291-ae7b-f688448d4498" data-name="Main"><path class="e093496a-2173-4e82-99f7-c5989c3f5970" d="M198.26,102.3c1.33,0,2.67,0,4-.19,6.21-.67,5.83-10.13-.41-10.13a7.36,7.36,0,0,0-1.16.09c-.41.07-.6-.19-.91-.13v1.18c.46.1,1,0,1.4.25a1.65,1.65,0,0,1-.69,3,19.46,19.46,0,0,1-2.16,0H120.48c-.65,0-1.07,0-1.31.81a1.88,1.88,0,0,1-1.88,1.26c-8,0-16.06.13-24.09-.07L92,98.4a1.38,1.38,0,0,1-1.58-1l-.09-.24a1.51,1.51,0,0,0-1.52-.81q-38.13,0-76.25,0c-.68,0-1.36,0-2,0-1.23,0-2-.61-2-1.6s.63-1.64,1.72-1.68c.12,0,.24,0,.35,0l.07-.7,0-.47a.28.28,0,0,1-.13,0c-1.52,0-3,0-4.56,0a7.15,7.15,0,0,0-3.26.88A4.59,4.59,0,0,0,0,97.2a5,5,0,0,0,3.59,4.56,12.35,12.35,0,0,0,3.73.5q8.28,0,16.56,0a8.81,8.81,0,0,1,2.12.29,3.43,3.43,0,0,1,2.23,1.73,3.05,3.05,0,0,1-.31,3.31,4.55,4.55,0,0,1-3.44,1.65,61.88,61.88,0,0,1-8.61.23,5,5,0,0,0-5,3.09,4.9,4.9,0,0,0,0,4.07,5,5,0,0,0,4.55,2.72q36.71-.06,73.42,0a2.92,2.92,0,0,1,1.07,0c.76.32,1.81.15,2.23,1.06a1.83,1.83,0,0,1-1.56,2.49,11.64,11.64,0,0,0-2.34.44c-1.21.35-2.07,1.3-2,2.21a2.33,2.33,0,0,0,2.47,1.93c14.44,0,28.88,0,43.31,0a2,2,0,0,0,2-2.52c-.18-1.31-1.89-2.26-3.65-2a45.4,45.4,0,0,1-9.54-.06,1.76,1.76,0,0,1-1.5-1.29,1.28,1.28,0,0,1,.82-1.65,7,7,0,0,1,2.47-.67q15.24.06,30.47,0a10.46,10.46,0,0,0,3.49-.41,4.2,4.2,0,0,0,2.74-2.56c.36-1,.19-1.49-.25-1.86a2.77,2.77,0,0,1,1.67-5l29.63.19a2.76,2.76,0,0,0,2.77-2.59h0C193.19,101.29,195.56,102.3,198.26,102.3Z"/><path class="a3c22e10-c538-42f6-a774-dc4f01675a63" d="M96.38,115q-27.78,0-55.56,0a3.71,3.71,0,0,1-3.44-2.24,4.32,4.32,0,0,1,0-3.35,3.73,3.73,0,0,1,3.79-2.55,41.63,41.63,0,0,0,6.51-.19,3.32,3.32,0,0,0,2.6-1.36,2.71,2.71,0,0,0,.24-2.73,2.67,2.67,0,0,0-1.69-1.42,6.13,6.13,0,0,0-1.6-.24q-6.27,0-12.53,0a8.49,8.49,0,0,1-2.83-.42,4.06,4.06,0,0,1-2.71-3.75,3.82,3.82,0,0,1,2.08-3.6,5.07,5.07,0,0,1,2.47-.72c1.15,0,2.3,0,3.45,0a.27.27,0,0,0,.09,0v.38l-.05.57a1.26,1.26,0,0,1-.27,0,1.21,1.21,0,0,0-1.3,1.39c0,.81.56,1.29,1.49,1.31.52,0,1,0,1.54,0q28.86,0,57.7,0a1.14,1.14,0,0,1,1.15.67l.07.2a1,1,0,0,0,1.19.79h.92c6.07.16,12.15.06,18.23,0a1.43,1.43,0,0,0,1.42-1c.18-.64.5-.67,1-.67h58.9a14.93,14.93,0,0,0,1.64,0,1.23,1.23,0,0,0,1.07-1,1.33,1.33,0,0,0-.55-1.45c-.33-.22-.71-.13-1.06-.21v-1c.24,0,.38.17.69.11a5.14,5.14,0,0,1,.88-.08c4.72,0,5,7.8.31,8.35a28,28,0,0,1-3,.16c-2,0-3.84-.83-3.84,4h0a2.16,2.16,0,0,1-2.09,2.13l-22.42-.15c-2,0-2.79,2.66-1.26,4.09.33.31.46.75.19,1.54a3.32,3.32,0,0,1-2.08,2.1A7.07,7.07,0,0,1,145,115c-7.68,0-15.37,0-23,0Z"/><path class="aab301e3-399a-4d89-8450-0fc4f23adcc6" d="M199.78,91.94v1.18c-.76,0-1.51.06-2.27,0-9.24-.21-18.5.47-27.73-.37a1.56,1.56,0,0,0-.57.15,11,11,0,0,0-3.08-.21,1.12,1.12,0,0,0-1.21-.2c-2.74-.49-5.53-.66-8.29-.9-4.55-.39-9.1-1-13.7-.95-6.93,0-13.85-.15-20.67,1.42-.29-.13-.46,0-.58.26l-1.1.15a.34.34,0,0,0-.49.2,2.2,2.2,0,0,0-1.18.26l-2.28.25a7.38,7.38,0,0,1-.66-1.11c-.86-2.3-2.69-3.78-4.47-5.3-.45-.38-1.25-.26-1.52-1a1.69,1.69,0,0,1,.9-1.65,1.77,1.77,0,0,0,1-1.6h0a1,1,0,0,0,1.2-1l.48-.72c.35,0,.69,0,.72-.47a.53.53,0,0,1,.47-.25.45.45,0,0,0,.5-.47c.3,0,.5-.21.73-.36A40.63,40.63,0,0,1,128.15,74c1.5-.37,3.08-.52,4.54-.92a22,22,0,0,1,4.94-.72,79.17,79.17,0,0,1,11.41.23c3.13.37,6.29.63,9.41,1.11,2.9.45,5.82.81,8.67,1.5a47.49,47.49,0,0,0,6.46,1.14h0c.18.75.78.39,1.22.46,1-.11,1.86.4,2.8.47,1.9.14,3.77.57,5.63.89,3.26.55,6.57.79,9.8,1.53a4.29,4.29,0,0,0,1.45,1.91h0c0,.5-.06,1,.68,1a2.54,2.54,0,0,0,1.13,1.82c.93.67,1.24,1.9,1.8,2.89a20.93,20.93,0,0,1,1.17,2.94l-4,0c-.12-.56-.58-.44-1-.44H183.14c-.26,0-.66-.18-.78.45,4-.13,7.9.77,11.87.5,1.7.12,3.41-.24,5.09.24A1.92,1.92,0,0,1,199.78,91.94ZM124.16,78.52h0l1.65-.06c.31,0,.46-.12.54-.4a6.8,6.8,0,0,0,2.23-.35A33.92,33.92,0,0,1,135,76.38a76.09,76.09,0,0,1,11-.25,29.83,29.83,0,0,1,4.63.4c2.56.42,5.16.62,7.7,1.22a59.15,59.15,0,0,0,6.21,1,57.82,57.82,0,0,0,6.11.94c.14.56.59.46,1,.45a18.32,18.32,0,0,1,4.91.86c2.63.68,5.36.77,8,1.52.28.08.71.2,1-.27-1.6-.77-3.37-.78-5-1.31A52.26,52.26,0,0,0,175,79.81c-.86-.18-1.67-.74-2.61-.56a4.21,4.21,0,0,1-.95-.07c-2.43-.78-5-1.07-7.44-1.61-2.73-.58-5.5-1-8.27-1.42a74.47,74.47,0,0,0-9.06-1c-2.94,0-5.87-.31-8.83-.08-1.74.14-3.46.47-5.16.69a29.59,29.59,0,0,0-4.14.92,31.16,31.16,0,0,1-4.13,1.36c-.35,0-.67,0-.77.41l-.21,0c-1.53,0-2.72,1-4.07,1.51-.44.17-1.21.09-1.22.91A3.65,3.65,0,0,0,115,82.5a7.79,7.79,0,0,0,3.44-1.58,3.15,3.15,0,0,0,2-.59c1-.48,2.35-.43,3.09-1.5C123.71,78.76,124,78.85,124.16,78.52Zm-.74,9.35c-.42,0-.88-.13-1.26.15-.13.09-.06.29.09.4.46.37.9,0,1.35-.06s.53-.13.56-.48c2.43-.24,4.72-1.3,7.2-1.3.09,0,.17-.24.26-.37l1.65,0c.56-.06,1.17.23,1.68-.22h11.28c1.44.46,3,.13,4.44.53a7.7,7.7,0,0,0,3.57,0c-2.3-.2-4.47-1.15-6.81-1l-2.6,0c-.12-.47-.49-.44-.85-.44h-8.93c-.36,0-.73,0-.86.44-1.47-.23-2.84.4-4.27.52s-2.89.73-4.36.92A4.4,4.4,0,0,0,123.42,87.87Zm-2.15-3.58c.66.19,1.1-.37,1.65-.53A67.52,67.52,0,0,1,131.13,82a67.84,67.84,0,0,1,9.65-1.07c4.23-.08,8.43.24,12.64.52.07.42.36.47.71.47a14.94,14.94,0,0,1,4.78.67,1.57,1.57,0,0,0,1.65-.23c-2.19-.92-4.46-.94-6.65-1.39l-1.18,0c-.29-.82-1-.32-1.47-.43L147,80.24a90.48,90.48,0,0,0-16.61.7,4.56,4.56,0,0,0-.57.17c-1.33.33-2.68.62-4,1a15.64,15.64,0,0,0-4.53,1.67c-1.28,0-2.25.91-3.41,1.3a.28.28,0,0,0-.1.41c0,.08.22.19.28.16C119.14,85.26,120.39,85.2,121.27,84.29Zm67.73,3c2.59-.09,5.13.44,7.7.56.31,0,.82.17.82-.38s-.47-.52-.88-.57-.89.23-1.4.16A16.6,16.6,0,0,0,189,87.3Z"/><path class="aab301e3-399a-4d89-8450-0fc4f23adcc6" d="M10.61,93.11c0-.24.05-.47.07-.7A60.72,60.72,0,0,0,17.15,92c3.38-.27,6.79-.08,10.18-.09a1.47,1.47,0,0,0,1.36-.41H11.17l-.08-.08a2.39,2.39,0,0,1,.59-1.84,4.24,4.24,0,0,0,.63-1.75,6.46,6.46,0,0,1,1.78-3.08c1.12-1.07,1.71-2.71,2.52-4.11.18-.31.35-.62.52-.94.83.13,1.52-.41,2.31-.48,3.14-.27,6.21-.93,9.29-1.47,3.46-.62,6.88-1.42,10.32-2.13,3.06-.64,6.13-1.25,9.19-1.9,2.2-.46,4.37-1,6.59-1.43s4.63-.85,7-1.16A64.18,64.18,0,0,1,70,70.34c5.3,0,10.61-.28,15.85.75a33.07,33.07,0,0,1,5.43,1.31,26,26,0,0,1,6.2,3.3A23.46,23.46,0,0,1,105.2,85a12.68,12.68,0,0,0-8,2.53c-2.08,1.43-3.08,3.7-4.43,5.7-.23-.24-.44-.53-.84-.34a32.57,32.57,0,0,0-6.09-1.47,97.54,97.54,0,0,0-14.17-.9c-2.77-.06-5.58.15-8.37.29-4.86.26-9.71.64-14.55,1-3.34.28-6.69.51-10,.67l-.25,0-2,.15A28.87,28.87,0,0,0,31.8,93,4.84,4.84,0,0,0,30,93C23.55,93.36,17.08,93.14,10.61,93.11Zm89.06-12.2a.44.44,0,0,0-.47-.49,20.48,20.48,0,0,0-7.53-4.81c-.85-.31-1.48-1.24-2.55-1a42.24,42.24,0,0,0-11.47-1.43c-2.5-.52-5,.11-7.49,0a37.45,37.45,0,0,0-6.17.46c-4.45.53-8.85,1.31-13.24,2.16-1.39.27-2.67,1-4.11,1-2.08.31-4.09.92-6.13,1.43L34.7,79.72c-.28.07-.76-.1-.7.39s.5.32.79.28c1-.15,2-.55,3-.79C40.5,79,43.26,78.33,46,77.79c.3-.05.55-.09.6-.44a20.4,20.4,0,0,0,3.24-.47c3-.3,5.91-1,8.87-1.42,2.67-.4,5.35-.78,8-1,3.34-.22,6.71,0,10.07,0v4.09H75.67c-4.26-.16-8.47.5-12.71.71a27.4,27.4,0,0,1-5.5.51s-.08,0-.12,0a33.27,33.27,0,0,1-7.08,1.12c-.8,0-1.37.49-2.38.81a6,6,0,0,0,2.34.06c1.75-.25,3.42-.92,5.22-.86a12.3,12.3,0,0,0,3.07-.34,10.85,10.85,0,0,1,2.93-.29c.75,0,1.83.39,2.48-.54l10.55,0c2,0,1.91,0,2.24,2,.19,1.16-.29,1.24-1.16,1.06a3.86,3.86,0,0,0-.57-.12c-4.11-.23-8.21.2-12.31.21-.2,0-.39.06-.59.08l-8,.88c-.39,0-.86-.17-1,.42l-1.66,0a59.48,59.48,0,0,0-7.92,1.32c.42.15.9.41,1.23.27,1.2-.48,2.49-.15,3.64-.46a21.3,21.3,0,0,0,3.29-.66c3-.53,6.16-.35,9.23-.85,2.45-.41,5-.09,7.51-.32,2.87-.25,5.73.28,8.6.25l.12,2.87c-.29.44-.57.92-1.21.66a5.3,5.3,0,0,0-2.13-.19c-4.3.07-8.61.2-12.92.23-2.18,0-4.32.44-6.48.63a38,38,0,0,0-6.1.94,24.59,24.59,0,0,0,7.38-.26c3.28-.55,6.57-.27,9.85-.7a36.5,36.5,0,0,1,10.68.32c.41.07.68.16.69.63s-.07,1,.46.94,1.05-.14,1.15-.81l.26-.08c.31.07.48,0,.5-.38l.41-.13c1.28.15,2.57.21,3.85.46a4.35,4.35,0,0,0,3-.12c.93.2,1.34,1.14,2.15,1.49,0,.35,0,.66.5.65a.69.69,0,0,0,.67-.56c.09-.24-.27-.88.46-.64.19.06.36.22.46,0a.4.4,0,0,0-.25-.58c-.86-.13-.55-.79-.67-1.29-.17-.69.65-1.25.37-1.76-.56-1-.27-2-.33-3,0-.77.21-1,1.11-.73s1.75,1,2.92.56l-4.11-2v-.46c.62-.77.14-1.67.28-2.5.08-.43-.18-1,.52-1.15a18.9,18.9,0,0,1,5.74,2.57,10.08,10.08,0,0,0,2.85,1.58l0,.45,2.18,2.17c.19.2.43.29.6,0s0-.46-.28-.52c-.49-.1-.55-.48-.73-.88a2,2,0,0,0-1.28-1.29ZM11.56,90.48c2.81.63,5.53-.06,8.27-.48C17.07,90.05,14.27,89.67,11.56,90.48Z"/><path class="b705438e-a9d4-4949-8fd2-a4a20d559914" d="M109.51,50c.28,3.12,1,6.2.72,9.36a10.9,10.9,0,0,0-.46,2.89,37.92,37.92,0,0,1-.28,6.48c-.58-.11-.45-.57-.45-1a11.72,11.72,0,0,0-.28-1.87c-.31-1.76-1.54-3.22-1.6-5a2.82,2.82,0,0,0-.34-1.24c-1.08-2.08-2-4.23-3.16-6.27A31.69,31.69,0,0,0,100,47.7C98.45,46,97.25,44,95.73,42.27s-2.67-3.51-4.17-5.11c-1.13-1.21-2.22-2.48-3.21-3.75A43.57,43.57,0,0,0,85,29.33c-2-2-3.63-4.48-5.69-6.5-1.61-1.58-3-3.41-4.63-4.95s-1.4-2,.34-3.18c1.92-1.25,3.87-2.43,5.78-3.69s3.92-2.7,5.9-4c.17-.12.33-.63.74-.17,1.18,1.32,2.12,2.83,3.25,4.19,1.34,1.62,2.26,3.59,3.53,5.3,1,1.31,1.56,2.89,2.76,4.06a1,1,0,0,1,.28.37,22.26,22.26,0,0,0,2.78,5c1.77,2.82,3.12,5.83,4.65,8.76.85,1.61,1,3.5,2,5.08a6.93,6.93,0,0,1,.54,1.89c.31,1.09.51,2.22.86,3.27A15.25,15.25,0,0,1,109,49C109.05,49.4,108.91,49.87,109.51,50Z"/><path class="f117cd0c-5fc0-451e-ad24-4466127a50c8" d="M109.51,50c-.6-.08-.46-.55-.47-.93a15.25,15.25,0,0,0-1-4.24c-.35-1.05-.55-2.18-.86-3.27a6.93,6.93,0,0,0-.54-1.89c-.94-1.58-1.12-3.47-2-5.08-1.53-2.93-2.88-5.94-4.65-8.76a22.26,22.26,0,0,1-2.78-5,1,1,0,0,0-.28-.37c-1.2-1.17-1.78-2.75-2.76-4.06C92.92,14.6,92,12.63,90.66,11c-1.13-1.36-2.07-2.87-3.25-4.19-.41-.46-.57,0-.74.17-2,1.32-3.92,2.7-5.9,4S76.91,13.45,75,14.7c-1.74,1.13-2,1.63-.34,3.18s3,3.37,4.63,4.95c2.06,2,3.64,4.45,5.69,6.5a43.57,43.57,0,0,1,3.38,4.08c1,1.27,2.08,2.54,3.21,3.75,1.5,1.6,2.73,3.46,4.17,5.11S98.45,46,100,47.7a31.69,31.69,0,0,1,3.69,5.6c1.14,2,2.08,4.19,3.16,6.27a2.82,2.82,0,0,1,.34,1.24c.06,1.83,1.29,3.29,1.6,5a11.72,11.72,0,0,1,.28,1.87c0,.38-.13.84.45,1-.06,1.2-.13,2.4-.19,3.6l-.57-.22c-.37-.5-.1-1.09-.24-1.62a42.54,42.54,0,0,0-4.12-10.11A123.32,123.32,0,0,0,97,49.06c-2.69-3.78-5.65-7.35-8.57-11-1.06-1.31-2.27-2.5-3.41-3.74a.45.45,0,0,0-.46-.47l-.71-.77c-.48-1.24-1.65-1.88-2.46-2.83s-1.68-2-2.6-3C76.22,24.67,73.66,22,71,19.46a26.84,26.84,0,0,0-4.22-3.82c-.71-.82-1.3-1.84-2.63-1.68,1.16-.8,2.28-1.67,3.5-2.36a4.41,4.41,0,0,0,1.26-.8,7,7,0,0,1,2.23-1.24c2.21-1.19,4.24-2.71,6.43-3.93a27,27,0,0,0,6-4c.95-.93,2.21-.6,3-1.49.28-.31.82-.07.75.49-.09.73.4,1,.85,1.37a21.55,21.55,0,0,1,3.31,4.1c.92,1.42,2.15,2.68,3,4.08.78,1.24,1.62,2.49,2.44,3.7,1.52,2.24,2.66,4.68,4.16,6.93a21.06,21.06,0,0,1,1.87,3.81c.79,2,1.53,4.07,2.39,6.06a25.61,25.61,0,0,1,1.46,4.58,51.22,51.22,0,0,0,1.36,5.18,4.46,4.46,0,0,1,0,1.32c0,.65-.18,1.38.57,1.83A.56.56,0,0,1,109,44C108.79,46,109.79,47.94,109.51,50Z"/><path class="f117cd0c-5fc0-451e-ad24-4466127a50c8" d="M32,57.18c-.22-.73.52-.82.84-1.14,1.07-1.11,2.29-2.13,3.24-3.28s2.43-2.16,3.3-3.55a2.11,2.11,0,0,1,.86-.82c1.14-.46,1.57-1.59,2.36-2.38,1-1,2.11-1.91,3.17-2.86a14.12,14.12,0,0,0,2.63-2.61c.45-.68,1.47-1,2.17-1.61,1.45-1.22,2.9-2.45,4.39-3.62.79-.62,1.7-1.08,2.5-1.69s2-.83,2.12-2.11l3.65,2.56a1.17,1.17,0,0,1-.5.77,29.11,29.11,0,0,0-3.14,2.52c-1.23,1.32-2.78,2.3-4,3.68-.87,1-1.76,2.06-2.71,3-1.68,1.6-3.23,3.31-4.77,5-1,1.13-1.95,2.28-2.92,3.42-.35.42-1.1,1-.85,1.68s1,0,1.51.1,1.3-.16,1.78.08c1.34.67,2.74.41,4.1.4,2.23,0,4.37.6,6.58.69a8.2,8.2,0,0,1,2.49.16,20.54,20.54,0,0,0,5,.75,43.79,43.79,0,0,0,5.35.72,4.94,4.94,0,0,1,1.89.2c1.39.58,2.89.51,4.32.82,1.61.34,3.19.79,4.81,1.1s3.25,1.42,5.08,1.34a.81.81,0,0,1,.72.33,2.47,2.47,0,0,0,2.35.87l3.11,1.69c.07.14.1.34.21.41a42.49,42.49,0,0,1,4.28,3.51c1,.84,1.76,2,3,2.54h0a.45.45,0,0,0,.42.52c.22,1,1.42,1.46,1.25,2.6l-.67-.26a2.3,2.3,0,0,0-.78-1.17,20.56,20.56,0,0,0-5.77-4,51.37,51.37,0,0,0-10.84-3.7c-2.68-.64-5.39-1.15-8.09-1.72a29.54,29.54,0,0,0-4.52-.87c-2.51-.12-5-.61-7.45-.92-3-.37-6.05-.74-9.08-1.06-3.75-.39-7.53-.56-11.28-1C40.06,57.8,36,57.86,32,57.18Z"/><path class="f117cd0c-5fc0-451e-ad24-4466127a50c8" d="M105.2,85a23.46,23.46,0,0,0-7.75-9.27,26,26,0,0,0-6.2-3.3,33.07,33.07,0,0,0-5.43-1.31c-5.24-1-10.55-.75-15.85-.75a64.18,64.18,0,0,0-8.19.82c-2.32.31-4.64.76-7,1.16s-4.39,1-6.59,1.43c-3.06.65-6.13,1.26-9.19,1.9-3.44.71-6.86,1.51-10.32,2.13-3.08.54-6.15,1.2-9.29,1.47-.79.07-1.48.61-2.31.48l3.27-3.64s.1,0,.11,0c.67-1.8,2.4-2.7,3.53-4.12a31.42,31.42,0,0,1,4.23-4.56,19.54,19.54,0,0,0,1.66-2.15c1.44-1.75,3.15-3.25,4.57-5,.66-.82.7-1.3.12-2l5.77.66a1.86,1.86,0,0,1-.75,1.65c-1,1-1.77,2.27-2.76,3.34s-2,2.57-3,3.83a64.25,64.25,0,0,0-4,5.45,1.94,1.94,0,0,0,1.53,0,9.41,9.41,0,0,1,3-.81c2.2-.55,4.4-1.13,6.64-1.53,2.87-.51,5.74-1,8.6-1.45,1.16-.2,2.43.14,3.43-.29,1.89-.82,3.89-.46,5.8-.74a81.09,81.09,0,0,1,9.63-.55,59.66,59.66,0,0,1,9.62.28c3,.42,6.15.39,9.19,1.07,1.15.26,2.28.63,3.4,1A38.26,38.26,0,0,1,99.26,74c.51.29,1,.74,1.62.65h0c.54.9.56,2.32,2.15,2.17l0,.46a.66.66,0,0,0,.69.75c.13.41-.29,1.06.51,1.18l.66,0,0,.45c-.12.07-.34.15-.34.22,0,.28.25.22.43.23A10.05,10.05,0,0,1,106.19,85Z"/><path class="f117cd0c-5fc0-451e-ad24-4466127a50c8" d="M53.56,26.29c0-.55.25-.81.8-1.11,1.29-.73,2.41-1.76,3.66-2.58,1.49-1,2.89-2.08,4.47-3s3.16-1.48,4.32-2.84H67a12.8,12.8,0,0,0,2.18,2,2.08,2.08,0,0,1,1,1.49C68.37,22.15,66.06,23.4,64,25c-.48.36-1.08.63-1.19,1.24s.43.73.79,1c2.76,1.76,5.41,3.68,8,5.64C74.5,35,77.31,37.16,80,39.55c1.24,1.12,2.78,1.93,3.75,3.3a14.47,14.47,0,0,0,2.92,2.88A45.2,45.2,0,0,1,92,51.11c2,2.19,3.88,4.46,5.73,6.76,1.57,2,3,4.05,4.42,6.1a33.65,33.65,0,0,1,3.48,6.58c.32.78.17,2,1.48,2.21l0,1.65c.28.55-.1,1.36.69,1.71.14.49-.28,1.14.42,1.47v6.79c-.35.13-.4-.09-.43-.35a21.8,21.8,0,0,0-1.74-6.5c-.74-1.6-1.17-3.37-2.34-4.77a1.41,1.41,0,0,0-.06-.47,80.7,80.7,0,0,0-4.85-7.55,20.46,20.46,0,0,0-3.21-4,1.22,1.22,0,0,0-.5-.69h0a.77.77,0,0,0-.69-.75h0a.56.56,0,0,0-.47-.53c-2.42-3.52-5.55-6.4-8.6-9.33a97.14,97.14,0,0,0-9.68-7.86,61.36,61.36,0,0,0-6.94-4.82c-.13-.52-.56-.61-1-.69L67.57,36c-.07-.25-.27-.36-.47-.5Q61,31.32,54.71,27.39C54.25,27.1,53.71,26.9,53.56,26.29Z"/><path class="f117cd0c-5fc0-451e-ad24-4466127a50c8" d="M172.87,74.19a3.06,3.06,0,0,1,1.15-.26,8.75,8.75,0,0,1,2.65.49,69.25,69.25,0,0,1,7.93,1.63c.3.09.67.17.88-.14s.05-.59-.21-.84a2.11,2.11,0,0,1-.58-.73,27.6,27.6,0,0,0-3.09-5.64c-.85-1.41-1.54-2.9-2.33-4.34a11.46,11.46,0,0,0-2-2.75c-.68-.65-1.62-.4-2.33-.73-2.68-1.26-5.61-1.39-8.43-2-2.52-.56-5.17-.78-7.64-1.4-2.65-.66-5.21-.34-7.8-.56a.78.78,0,0,0-.76.23c-3.53,0-7.07-.19-10.57.49a14.83,14.83,0,0,0-3.73.42c-1.52.37-3,1.05-4.49,1.28-1,.15-1.8,1-2.87.69a5.42,5.42,0,0,1,1.79-1.74c.28,0,.53-.27.63-.31a3.89,3.89,0,0,1,2-.27c1.29,0,2.29-.66,3.42-1,1.54-.48,3-1.25,4.76-1.27a46.55,46.55,0,0,0,5.49-.53,12.79,12.79,0,0,1,6.34.27c1.05.39,2.28.11,3.43.26,1.33.17,2.7.14,4,.3.78.09,1.57-.2,2.28.59.32.35,1.31.2,2,.11,1.64-.22,3,.71,4.5,1,.19,0,.38.19.56.17,1.94-.15,3.69.74,5.55,1,1.41.17,2.6,1.12,4.06,1a.53.53,0,0,1,.41.22c1,1.94,2.49,3.57,3.66,5.42.75,1.2,1.64,2.42,2.45,3.6s1.62,2.59,2.45,3.87c1.53,2.38,3.21,4.66,4.83,7l-.26,0c-3.23-.74-6.54-1-9.8-1.53-1.86-.32-3.73-.75-5.63-.89-.94-.07-1.82-.58-2.8-.47-1.74.2-.78-.38-1.22-.46h0"/><path class="a0778d86-1471-4569-8577-ff4fe67e9835" d="M40.39,58.84l-5.77-.66c-.69,0-1.39-.07-2.09-.06-.54,0-.83-.16-.76-.74l.06-.19a.33.33,0,0,0,.17,0c4,.68,8.06.62,12.07,1.12,3.75.47,7.53.64,11.28,1,3,.32,6,.69,9.08,1.06,2.48.31,4.94.8,7.45.92a29.54,29.54,0,0,1,4.52.87c2.7.57,5.41,1.08,8.09,1.72a51.37,51.37,0,0,1,10.84,3.7,20.56,20.56,0,0,1,5.77,4,2.3,2.3,0,0,1,.78,1.17l-.37,0a2.49,2.49,0,0,1-1.72-.94c-3.51-3.16-7.77-4.72-12.16-6.14a51.09,51.09,0,0,0-5.75-1.48c-1.1-.22-2.13-.62-3.21-.82a58.92,58.92,0,0,1-7-1.24,6.15,6.15,0,0,0-2.27-.44,15.18,15.18,0,0,1-2-.16c-3.47-.24-6.88-1-10.36-1a5.11,5.11,0,0,1-1.3-.07c-3.37-.87-6.85-.61-10.25-1.13Z"/><path class="b705438e-a9d4-4949-8fd2-a4a20d559914" d="M53.56,26.29c.15.61.69.81,1.15,1.1Q61,31.31,67.1,35.49c.2.14.4.25.47.5-.3,0-.53.16-.53.51l-3.81-2.43-3.65-2.56c-2.14-1.31-4.29-2.61-6.43-3.94-.32-.2-.67-.48-.5-1S53.21,26.26,53.56,26.29Z"/><path class="f3608ae9-5772-4f83-8032-42da58ee8983" d="M116.73,55.7l0,.73c-.19,0-.44,0-.56.12-1.24,1.08-2.45,2.18-3.67,3.27l-2.71,2.38a10.9,10.9,0,0,1,.46-2.89c1.36-.55,2.07-1.93,3.33-2.63a1.88,1.88,0,0,1,.74-.26.42.42,0,0,0,.49-.47h0c.71-.06.86-.44,1.69-.2C116.48,55.91,116.72,55.54,116.73,55.7Z"/><path class="b705438e-a9d4-4949-8fd2-a4a20d559914" d="M67,16.79h-.23a16.29,16.29,0,0,0-2.76-2.41c-.43-.24-.07-.32.12-.43,1.33-.16,1.92.86,2.63,1.68Z"/><path class="f9aee9c7-1667-4183-a84b-357821e40a3a" d="M199.32,91c-1.68-.48-3.39-.12-5.09-.24.07-.66.62-.41,1-.51l4,0Z"/><path class="bd1dfbf4-93a2-48bb-be0b-fc3d7973dfef" d="M194.48,81.63"/><path class="bd1dfbf4-93a2-48bb-be0b-fc3d7973dfef" d="M195.16,82.63"/><path class="ab6453de-fecc-41a2-a71d-8680e4c59d7c" d="M114.79,56a.42.42,0,0,1-.49.47A.44.44,0,0,1,114.79,56Z"/><path class="f9aee9c7-1667-4183-a84b-357821e40a3a" d="M10.57,92c.09-.26.21-.48.52-.5l.08.08c-.07.24-.19.42-.47.41A.28.28,0,0,1,10.57,92Z"/><path class="b6d09f8c-e925-41d4-ac05-3ddbdac07cd7" d="M31.83,57.19l-.06.19-.12-.13Z"/><path class="a5414a27-3b09-455e-bbba-2990aefa98db" d="M169.21,92.94a1.56,1.56,0,0,1,.57-.15c9.23.84,18.49.16,27.73.37.76,0,1.51,0,2.27,0,.46.1,1,0,1.4.25a1.65,1.65,0,0,1-.69,3,19.46,19.46,0,0,1-2.16,0H120.48c-.65,0-1.07,0-1.31.81a1.88,1.88,0,0,1-1.88,1.26c-8,0-16.06.13-24.09-.07.4-.41.9-.21,1.36-.21,7.31,0,14.62,0,21.92,0a2.64,2.64,0,0,0,2-.6c.24-.23.45-.46.33-.82s-.45-.27-.71-.27a1.82,1.82,0,0,1-1.63-.93c.84-.74.26-1.56.16-2.36l2.28-.25a2,2,0,0,0,1.28.19q23.88,0,47.78,0C168.38,93.14,168.85,93.32,169.21,92.94Z"/><path class="a5414a27-3b09-455e-bbba-2990aefa98db" d="M91.94,92.86c.4-.19.61.1.84.34,0,.31-.06.62-.11.93-.14.92,0,1.55,1.19,1.37.28,1-.47,1.19-1.12,1.19a14.13,14.13,0,0,1-2.36-.38c0,.28,0,.59-.06.9a1.51,1.51,0,0,0-1.52-.81q-38.13,0-76.25,0c-.68,0-1.36,0-2,0-1.23,0-2-.61-2-1.6s.63-1.64,1.72-1.68c.12,0,.24,0,.35,0,6.47,0,12.94.25,19.41-.14a4.84,4.84,0,0,1,1.78,0,2,2,0,0,0,1.18.14c3.54-.1,7.08.12,10.62.09,15.68-.13,31.36,0,47-.07C91.07,93.15,91.62,93.42,91.94,92.86Z"/><path class="a8f7dd21-6cb0-4d4e-b6bc-27625417f78d" d="M90.32,97.21c0-.31.05-.62.06-.9a14.17,14.17,0,0,0,2.37.36c.65,0,1.39-.17,1.11-1.17l.22-.29c.4.49.88.35,1.48.17-.4-.41-.39-1-1-1.08a8.61,8.61,0,0,1,3.28-5.24,11.44,11.44,0,0,1,8.6-2.46,8.46,8.46,0,0,1,4.66,1.88,13.7,13.7,0,0,1,4.24,5.92c.24.57.45,1.13,1.18,1.18a1.84,1.84,0,0,0,1.65.9c.25,0,.59-.1.71.27s-.1.59-.34.83a2.61,2.61,0,0,1-2,.6q-11,0-21.92,0c-.46,0-1-.17-1.38.24L92,98.4l-1.58-1Z"/><path class="f9aee9c7-1667-4183-a84b-357821e40a3a" d="M10.7,91.94c.28,0,.4-.17.47-.41H28.69a1.47,1.47,0,0,1-1.36.41c-3.39,0-6.8-.18-10.18.09a60.72,60.72,0,0,1-6.47.38C10.69,92.26,10.69,92.1,10.7,91.94Z"/><path class="a5414a27-3b09-455e-bbba-2990aefa98db" d="M90.41,97.45l1.58,1A1.38,1.38,0,0,1,90.41,97.45Z"/><path class="f3608ae9-5772-4f83-8032-42da58ee8983" d="M173.59,76.11v.25a47.49,47.49,0,0,1-6.46-1.14c-2.85-.69-5.77-1-8.67-1.5-3.12-.48-6.28-.74-9.41-1.11a79.17,79.17,0,0,0-11.41-.23,22,22,0,0,0-4.94.72c-1.46.4-3,.55-4.54.92A40.63,40.63,0,0,0,116,79.36c-.23.15-.43.36-.73.36a.43.43,0,0,0-.5.47.53.53,0,0,0-.47.25c-.35,0-.7,0-.72.47l-.48.72c-.7,0-1.28.05-1.2,1h0c-.35,0-.49-.23-.53-.54a6.6,6.6,0,0,1,1.42-2.15A4.58,4.58,0,0,0,115.34,78c1-1.44,2.52-2,3.86-2.76a23.2,23.2,0,0,1,5.22-2.23c2.17-.56,4.31-1.31,6.48-2,3.2-.94,6.57-.64,9.85-1.17,3.58-.59,7.17.64,10.79.44a2.72,2.72,0,0,1,.46.1c2.26.34,4.51.69,6.77,1,2.55.35,5.08.86,7.63,1.18,2,.24,3.95.91,6,.58.25.27.57.51.47,1v.24C173,75.05,173,75.72,173.59,76.11Z"/><path class="a7f1d548-cf7b-41a0-9053-b853b147e0bd" d="M169.21,92.94c-.36.38-.83.2-1.24.2q-23.9,0-47.78,0a2,2,0,0,1-1.28-.19,2.2,2.2,0,0,1,1.18-.26c.31.32.42.1.49-.2l1.1-.15c.27.08.5.07.58-.26,6.82-1.57,13.74-1.4,20.67-1.42,4.6,0,9.15.56,13.7.95,2.76.24,5.55.41,8.29.9.32.59.76.44,1.21.2A11,11,0,0,1,169.21,92.94Z"/><path class="f3d717bc-da79-4c0c-a191-3626395d726a" d="M94.08,95.21l-.22.29c-1.15.18-1.33-.45-1.19-1.37,0-.31.07-.62.11-.93,1.35-2,2.35-4.27,4.43-5.7a12.68,12.68,0,0,1,8-2.53l1,0c.72-.08,1.42.3,2.15.07h.09l.08,0a.49.49,0,0,0,.46.52,1.33,1.33,0,0,0,1,.3c.27.7,1.07.58,1.52,1,1.78,1.52,3.61,3,4.47,5.3a7.38,7.38,0,0,0,.66,1.11c.1.8.68,1.62-.16,2.36-.73,0-1-.59-1.19-1.16A14,14,0,0,0,111,88.5a8.49,8.49,0,0,0-4.67-1.88,11.41,11.41,0,0,0-8.59,2.46,8.51,8.51,0,0,0-3.27,5.22A1.44,1.44,0,0,0,94.08,95.21Z"/><path class="f9aee9c7-1667-4183-a84b-357821e40a3a" d="M124.4,78.05a31.16,31.16,0,0,0,4.13-1.36,29.59,29.59,0,0,1,4.14-.92c1.7-.22,3.42-.55,5.16-.69,3-.23,5.89,0,8.83.08a74.47,74.47,0,0,1,9.06,1c2.77.4,5.54.84,8.27,1.42,2.48.54,5,.83,7.44,1.61a4.21,4.21,0,0,0,.95.07c-.37.86-1.14.28-1.7.48a57.82,57.82,0,0,1-6.11-.94,59.15,59.15,0,0,1-6.21-1c-2.54-.6-5.14-.8-7.7-1.22a29.83,29.83,0,0,0-4.63-.4,76.09,76.09,0,0,0-11,.25,33.92,33.92,0,0,0-6.45,1.34,6.8,6.8,0,0,1-2.23.35.41.41,0,0,0-.54.4l-1.65.06C124.24,78.37,124.32,78.21,124.4,78.05Z"/><path class="f9aee9c7-1667-4183-a84b-357821e40a3a" d="M152.73,80.89l1.18,0c0,.33-.19.46-.49.48-4.21-.28-8.41-.6-12.64-.52A67.84,67.84,0,0,0,131.13,82a67.52,67.52,0,0,0-8.21,1.81c-.55.16-1,.72-1.65.53v-.5a15.64,15.64,0,0,1,4.53-1.67c1.31-.39,2.66-.68,4-1a4.56,4.56,0,0,1,.57-.17,90.48,90.48,0,0,1,16.61-.7l4.29.22C151.55,81.27,152.23,80.77,152.73,80.89Z"/><path class="e710b796-c982-453b-ab43-b12fb7378fc9" d="M170.68,79.73c.56-.2,1.33.38,1.7-.48.94-.18,1.75.38,2.61.56A52.26,52.26,0,0,1,180.47,81c1.65.53,3.42.54,5,1.31-.26.47-.69.35-1,.27-2.6-.75-5.33-.84-8-1.52a18.32,18.32,0,0,0-4.91-.86C171.27,80.19,170.82,80.29,170.68,79.73Z"/><path class="e710b796-c982-453b-ab43-b12fb7378fc9" d="M195.21,90.24c-.36.1-.91-.15-1,.51-4,.27-7.88-.63-11.87-.5.12-.63.52-.45.78-.45h11.11C194.63,89.8,195.09,89.68,195.21,90.24Z"/><path class="f9aee9c7-1667-4183-a84b-357821e40a3a" d="M129.92,86c1.43-.12,2.8-.75,4.27-.52h10.64l2.6,0c-.27.46-.92,0-1.2.49H135c-.61-.31-1.21-.55-1.68.22l-1.65,0C131.06,86.08,130.43,86.42,129.92,86Z"/><path class="e710b796-c982-453b-ab43-b12fb7378fc9" d="M189,87.3a16.6,16.6,0,0,1,6.24-.23c.51.07.92-.21,1.4-.16s.89,0,.88.57-.51.39-.82.38C194.13,87.74,191.59,87.21,189,87.3Z"/><path class="e710b796-c982-453b-ab43-b12fb7378fc9" d="M129.92,86c.51.46,1.14.12,1.7.25-.09.13-.17.37-.26.37-2.48,0-4.77,1.06-7.2,1.3h-.74a4.4,4.4,0,0,1,2.14-1C127,86.69,128.4,86,129.92,86Z"/><path class="f9aee9c7-1667-4183-a84b-357821e40a3a" d="M146.23,86c.28-.47.93,0,1.2-.49,2.34-.18,4.51.77,6.81,1a7.7,7.7,0,0,1-3.57,0C149.21,86.09,147.67,86.42,146.23,86Z"/><path class="f9aee9c7-1667-4183-a84b-357821e40a3a" d="M144.83,85.44H134.19c.13-.47.5-.44.86-.44H144C144.34,85,144.71,85,144.83,85.44Z"/><path class="e710b796-c982-453b-ab43-b12fb7378fc9" d="M153.42,81.4c.3,0,.49-.15.49-.48,2.19.45,4.46.47,6.65,1.39a1.57,1.57,0,0,1-1.65.23,14.94,14.94,0,0,0-4.78-.67C153.78,81.87,153.49,81.82,153.42,81.4Z"/><path class="f9aee9c7-1667-4183-a84b-357821e40a3a" d="M118.13,80.91c0-.82.78-.74,1.22-.91,1.35-.52,2.54-1.48,4.07-1.51,0,.11,0,.23,0,.34-.74,1.07-2.06,1-3.09,1.5a3.15,3.15,0,0,1-2,.59Z"/><path class="f3608ae9-5772-4f83-8032-42da58ee8983" d="M110,85.85a1.33,1.33,0,0,1-1-.3l.09-.54c.92-.88,1.17-2.28,2.33-3,0,.32.18.53.53.55a1.77,1.77,0,0,1-1,1.6A1.69,1.69,0,0,0,110,85.85Z"/><path class="e710b796-c982-453b-ab43-b12fb7378fc9" d="M121.27,83.79v.5c-.88.91-2.13,1-3.23,1.37-.06,0-.23-.08-.28-.16a.28.28,0,0,1,.1-.41C119,84.7,120,83.83,121.27,83.79Z"/><path class="e710b796-c982-453b-ab43-b12fb7378fc9" d="M118.13,80.91h.27A7.79,7.79,0,0,1,115,82.5,3.65,3.65,0,0,1,118.13,80.91Z"/><path class="e710b796-c982-453b-ab43-b12fb7378fc9" d="M123.42,87.87h.74c0,.35-.25.45-.56.48s-.89.43-1.35.06c-.15-.11-.22-.31-.09-.4C122.54,87.74,123,87.91,123.42,87.87Z"/><path class="f3608ae9-5772-4f83-8032-42da58ee8983" d="M111.92,82.6c-.08-.92.5-1,1.2-1A1,1,0,0,1,111.92,82.6Z"/><path class="f9aee9c7-1667-4183-a84b-357821e40a3a" d="M133.27,86.17c.47-.77,1.07-.53,1.68-.22C134.44,86.4,133.83,86.11,133.27,86.17Z"/><path class="f9aee9c7-1667-4183-a84b-357821e40a3a" d="M152.73,80.89c-.5-.12-1.18.38-1.47-.43C151.76,80.57,152.44,80.07,152.73,80.89Z"/><path class="a7f1d548-cf7b-41a0-9053-b853b147e0bd" d="M166.13,92.73c-.45.24-.89.39-1.21-.2A1.12,1.12,0,0,1,166.13,92.73Z"/><path class="bdecfdf5-aae3-4f8b-be42-1436033fa46b" d="M173.58,76.36c.44.08,1-.29,1.22.46C174.36,76.75,173.76,77.11,173.58,76.36Z"/><path class="f3608ae9-5772-4f83-8032-42da58ee8983" d="M113.6,80.91c0-.49.37-.48.72-.47C114.29,80.92,114,80.92,113.6,80.91Z"/><path class="f9aee9c7-1667-4183-a84b-357821e40a3a" d="M124.4,78.05c-.08.16-.16.32-.23.48h0l-.53-.06C123.73,78,124.05,78,124.4,78.05Z"/><path class="f3608ae9-5772-4f83-8032-42da58ee8983" d="M114.79,80.19a.43.43,0,0,1,.5-.47A.45.45,0,0,1,114.79,80.19Z"/><path class="a5414a27-3b09-455e-bbba-2990aefa98db" d="M122.26,92.1c-.08.33-.31.34-.58.26C121.8,92.1,122,92,122.26,92.1Z"/><path class="f9aee9c7-1667-4183-a84b-357821e40a3a" d="M125.82,78.47a.41.41,0,0,1,.54-.4C126.28,78.35,126.13,78.52,125.82,78.47Z"/><path class="a5414a27-3b09-455e-bbba-2990aefa98db" d="M120.58,92.51c-.07.3-.18.52-.49.2A.34.34,0,0,1,120.58,92.51Z"/><path class="f9aee9c7-1667-4183-a84b-357821e40a3a" d="M123.63,78.46l.53.06c-.14.33-.45.24-.7.31,0-.11,0-.23,0-.34Z"/><path class="f3d717bc-da79-4c0c-a191-3626395d726a" d="M77.65,73.23a42.24,42.24,0,0,1,11.47,1.43,1.48,1.48,0,0,1,.82,1.47,8.86,8.86,0,0,0-.17,4.31c0,.16,0,.31,0,.46-.67,2.67-.3,5.38-.3,8.07,0,.66.09,1.31-.84,1.35-.81-.35-1.22-1.29-2.15-1.49a.68.68,0,0,0-.71-.71C84,86,82.43,85.83,81,87.67a1.52,1.52,0,0,0-1.29.82l-.41.13a.41.41,0,0,0-.5.38l-.26.08c-1.19.25-1.36-.49-1.34-1.4,0-.33.3-.67,0-1L77,83.82a20.73,20.73,0,0,0-.15-5.28c0-1.36,0-2.73,0-4.09C76.94,73.93,77.76,73.89,77.65,73.23Z"/><path class="a7f1d548-cf7b-41a0-9053-b853b147e0bd" d="M91.94,92.86c-.32.56-.87.29-1.3.29-15.68,0-31.36-.06-47,.07-3.54,0-7.08-.19-10.62-.09A2,2,0,0,1,31.8,93a28.87,28.87,0,0,1,4.64-.31l2-.15c.1.11.18.09.25,0,3.35-.16,6.7-.39,10-.67,4.84-.41,9.69-.79,14.55-1,2.79-.14,5.6-.35,8.37-.29a97.54,97.54,0,0,1,14.17.9A32.57,32.57,0,0,1,91.94,92.86Z"/><path class="f9aee9c7-1667-4183-a84b-357821e40a3a" d="M76.86,78.54A20.73,20.73,0,0,1,77,83.82c-2.87,0-5.73-.5-8.6-.25-2.51.23-5.06-.09-7.51.32-3.07.5-6.18.32-9.23.85l-.24-.47,1.66,0c.39,0,.87.21,1-.42l8-.88c.2,0,.39-.07.59-.08,4.1,0,8.2-.44,12.31-.21a3.86,3.86,0,0,1,.57.12c.87.18,1.35.1,1.16-1.06-.33-2-.24-2-2.24-2l-10.55,0a7.16,7.16,0,0,1-.93,0c-.66-.1,0-.3,0-.46,4.24-.21,8.45-.87,12.71-.71Z"/><path class="f9aee9c7-1667-4183-a84b-357821e40a3a" d="M77.65,73.23c.11.66-.71.7-.8,1.22-3.36,0-6.73-.18-10.07,0-2.68.19-5.36.57-8,1-3,.44-5.88,1.12-8.87,1.42a20.4,20.4,0,0,1-3.24.47v-.51c1.44,0,2.72-.72,4.11-1C55.14,75,59.54,74.22,64,73.69a37.45,37.45,0,0,1,6.17-.46C72.66,73.34,75.15,72.71,77.65,73.23Z"/><path class="f9aee9c7-1667-4183-a84b-357821e40a3a" d="M77.13,86.69c.33.32,0,.66,0,1,0,.91.15,1.65,1.34,1.4-.1.67-.7.79-1.15.81s-.45-.55-.46-.94-.28-.56-.69-.63A36.5,36.5,0,0,0,65.52,88c-3.28.43-6.57.15-9.85.7a24.59,24.59,0,0,1-7.38.26,38,38,0,0,1,6.1-.94c2.16-.19,4.3-.62,6.48-.63,4.31,0,8.62-.16,12.92-.23a5.3,5.3,0,0,1,2.13.19C76.56,87.61,76.84,87.13,77.13,86.69Z"/><path class="f9aee9c7-1667-4183-a84b-357821e40a3a" d="M89.94,76.13a1.48,1.48,0,0,0-.82-1.47c1.07-.29,1.7.64,2.55,1a20.48,20.48,0,0,1,7.53,4.81v.49l0,0a10.08,10.08,0,0,1-2.85-1.58,18.9,18.9,0,0,0-5.74-2.57A.66.66,0,0,0,89.94,76.13Z"/><path class="e710b796-c982-453b-ab43-b12fb7378fc9" d="M63,79.24c0,.16-.63.36,0,.46a7.16,7.16,0,0,0,.93,0c-.65.93-1.73.58-2.48.54a10.85,10.85,0,0,0-2.93.29,12.3,12.3,0,0,1-3.07.34c-1.8-.06-3.47.61-5.22.86a6,6,0,0,1-2.34-.06c1-.32,1.58-.81,2.38-.81a33.27,33.27,0,0,0,7.08-1.12s.08,0,.12,0A27.4,27.4,0,0,0,63,79.24Z"/><path class="e710b796-c982-453b-ab43-b12fb7378fc9" d="M88.64,90.32c.93,0,.84-.69.84-1.35,0-2.69-.37-5.4.3-8.07,1.32.65,2.65,1.29,4.1,2-1.17.48-2-.26-2.92-.56s-1.15,0-1.11.73c.06,1-.23,2,.33,3,.28.51-.54,1.07-.37,1.76.12.5-.19,1.16.67,1.29a.4.4,0,0,1,.25.58c-.1.27-.27.11-.46,0-.73-.24-.37.4-.46.64a.69.69,0,0,1-.67.56C88.68,91,88.64,90.67,88.64,90.32Z"/><path class="e710b796-c982-453b-ab43-b12fb7378fc9" d="M46.64,76.84v.51c0,.35-.3.39-.6.44-2.78.54-5.54,1.16-8.29,1.81-1,.24-2,.64-3,.79-.29,0-.73.17-.79-.28s.42-.32.7-.39l5.81-1.45C42.55,77.76,44.56,77.15,46.64,76.84Z"/><path class="e710b796-c982-453b-ab43-b12fb7378fc9" d="M79.67,88.49A1.52,1.52,0,0,1,81,87.67c1,.15,2,.34,3,.44.59.06,1.2.59,1.8,0a.68.68,0,0,1,.71.71,4.35,4.35,0,0,1-3,.12C82.24,88.7,81,88.64,79.67,88.49Z"/><path class="e710b796-c982-453b-ab43-b12fb7378fc9" d="M11.56,90.48c2.71-.81,5.51-.43,8.27-.48C17.09,90.42,14.37,91.11,11.56,90.48Z"/><path class="e710b796-c982-453b-ab43-b12fb7378fc9" d="M51.43,84.27l.24.47a21.3,21.3,0,0,1-3.29.66c-1.15.31-2.44,0-3.64.46-.33.14-.81-.12-1.23-.27A59.48,59.48,0,0,1,51.43,84.27Z"/><path class="e710b796-c982-453b-ab43-b12fb7378fc9" d="M99.68,80.91A2,2,0,0,1,101,82.2c.18.4.24.78.73.88.28.06.44.27.28.52s-.41.16-.6,0l-2.18-2.17A.44.44,0,0,0,99.68,80.91Z"/><path class="e710b796-c982-453b-ab43-b12fb7378fc9" d="M89.94,76.13a.66.66,0,0,1,.63.66c-.7.15-.44.72-.52,1.15-.14.83.34,1.73-.28,2.5A8.86,8.86,0,0,1,89.94,76.13Z"/><path class="e710b796-c982-453b-ab43-b12fb7378fc9" d="M54.09,83.81c-.13.63-.61.43-1,.42C53.23,83.64,53.7,83.82,54.09,83.81Z"/><path class="aad68216-729e-4078-a3bf-6439b7892cb4" d="M78.76,89a.41.41,0,0,1,.5-.38C79.24,89,79.07,89.07,78.76,89Z"/><path class="e710b796-c982-453b-ab43-b12fb7378fc9" d="M99.68,80.91a.44.44,0,0,1-.49.48l0-.45,0,0h.48Z"/><path class="e710b796-c982-453b-ab43-b12fb7378fc9" d="M99.67,80.91H99.2v-.49A.44.44,0,0,1,99.67,80.91Z"/><path class="a5414a27-3b09-455e-bbba-2990aefa98db" d="M38.72,92.5c-.07.12-.15.14-.25,0Z"/><path class="a77e8998-1e8a-4ac7-99fc-3f77cf53aab4" d="M109.77,62.2l2.71-2.38c1.22-1.09,2.43-2.19,3.67-3.27.12-.11.37-.08.56-.12v.72c-.49.59-.59.4-.69,1s.65,1.06.65,1.61-.43,1.46-.49,2,1.07,1,1,1.64-1.07,1.13-1.14,1.83,1.06,1.14,1.14,1.85c-.77.21-.49,1-.49,1.47,0,1.39-1.3,3.11-2.18,4.1s-1.15,2.1-2.3,2.62a.56.56,0,0,0-.24.4c-.11,1.35-1.1,2.23-1.75,3.29-.19.31-.44.28-.71.28l-.38-3.87c.75-1,.41-2,.18-3.07.06-1.2.13-2.4.19-3.6A37.92,37.92,0,0,0,109.77,62.2Z"/><path class="a0778d86-1471-4569-8577-ff4fe67e9835" d="M109.12,75.35c.13,1.29.25,2.58.38,3.87-.06,1.24-.6,2.44-.32,3.94l6.37-8.72s-.5-.46,0-.12c.65-.44-.72-.27,0-.62-.07.43.69.28.62.71-.57.21.24.38,0,.8-1,1.65-2.5,3-3.36,4.7a6.6,6.6,0,0,0-1.42,2.15c-1.16.67-1.41,2.07-2.33,3l-.55,0-.08,0h-.09l-.09-.68c0-2.26,0-4.53,0-6.79,0-.69.42-1.46-.35-2l0-1.14a12.26,12.26,0,0,0-.66-4.66,16.93,16.93,0,0,0-.71-2.63,73,73,0,0,0-3.36-7.1c-1.66-2.78-3.48-5.46-5.32-8.11s-4.1-5.34-6.14-8-4.34-5.52-6.58-8.22a2,2,0,0,1-.59-1.27l.08-.07H85c1.14,1.24,2.35,2.43,3.41,3.74,2.92,3.61,5.88,7.18,8.57,11a123.32,123.32,0,0,1,7.38,11.27,42.54,42.54,0,0,1,4.12,10.11c.14.53-.13,1.12.24,1.62A16.52,16.52,0,0,1,109.12,75.35Z"/><path class="b705438e-a9d4-4949-8fd2-a4a20d559914" d="M67,16.79l-.24-1.15A26.84,26.84,0,0,1,71,19.46c2.64,2.56,5.2,5.21,7.76,7.86.92.94,1.74,2,2.6,3-.32,0-.43.19-.44.48-1.17-1.19-2.37-2.35-3.55-3.53-1-1-1.71-2.38-3.11-3a13.22,13.22,0,0,0-4-3.92,2.08,2.08,0,0,0-1-1.49A12.8,12.8,0,0,1,67,16.79Z"/><path class="a0778d86-1471-4569-8577-ff4fe67e9835" d="M80.94,30.77c0-.29.12-.48.44-.48.81.95,2,1.59,2.46,2.83.08.4.16.81.23,1.22C82.7,33.44,82,31.94,80.94,30.77Z"/><path class="f117cd0c-5fc0-451e-ad24-4466127a50c8" d="M109.12,75.35a16.52,16.52,0,0,0-.39-3.29l.57.22C109.53,73.32,109.87,74.37,109.12,75.35Z"/><path class="a0778d86-1471-4569-8577-ff4fe67e9835" d="M84.07,34.34c-.07-.41-.15-.82-.23-1.22.24.25.47.51.71.77v.46l-.08.07Z"/><path class="a0778d86-1471-4569-8577-ff4fe67e9835" d="M84.56,34.35v-.46a.45.45,0,0,1,.46.47Z"/><path class="b705438e-a9d4-4949-8fd2-a4a20d559914" d="M93.42,63.4l-3.11-1.69c-.54-.71-1.45-.82-2.11-1.36a27.89,27.89,0,0,0-4.86-2.65,44.38,44.38,0,0,0-5.73-2.21,36.05,36.05,0,0,0-5.31-1.87c-1.83-.36-3.62-.94-5.37-1.47A65.67,65.67,0,0,0,57.06,50a1.19,1.19,0,0,1-1-.59c-.21-.41.1-.66.33-.94,1-1.21,2.12-2.38,3.07-3.64a49.35,49.35,0,0,1,4.25-4.88c1.07-1.1,2.51-1.81,3.32-3.18.15,0,.36,0,.46.09,1.65,1.48,3.57,2.61,5.32,4s3.21,2.55,4.92,3.64c1.13.73,2.06,1.67,3.09,2.48,2.09,1.65,3.91,3.62,5.84,5.46,1.69,1.61,3.32,3.27,4.91,5,.76.82,1.16,2,2.31,2.45,0,.35,0,.7.48.72,0,.51.55.42.71.73l2.18,3.34a3.71,3.71,0,0,1-1.13-.22C95.22,64.09,94.49,63.25,93.42,63.4Z"/><path class="b8a5b3a7-3960-4a5f-b773-9554ac588764" d="M67.06,36.73c-.81,1.37-2.25,2.08-3.32,3.18a49.35,49.35,0,0,0-4.25,4.88c-1,1.26-2,2.43-3.07,3.64-.23.28-.54.53-.33.94a1.19,1.19,0,0,0,1,.59,65.67,65.67,0,0,1,9.87,2.19c1.75.53,3.54,1.11,5.37,1.47a36.05,36.05,0,0,1,5.31,1.87,44.38,44.38,0,0,1,5.73,2.21,27.89,27.89,0,0,1,4.86,2.65c.66.54,1.57.65,2.11,1.36A2.47,2.47,0,0,1,88,60.84a.81.81,0,0,0-.72-.33c-1.83.08-3.36-1-5.08-1.34s-3.2-.76-4.81-1.1c-1.43-.31-2.93-.24-4.32-.82a4.94,4.94,0,0,0-1.89-.2,43.79,43.79,0,0,1-5.35-.72,20.54,20.54,0,0,1-5-.75,8.2,8.2,0,0,0-2.49-.16c-2.21-.09-4.35-.71-6.58-.69-1.36,0-2.76.27-4.1-.4-.48-.24-1.19,0-1.78-.08s-1.23.59-1.51-.1.5-1.26.85-1.68c1-1.14,1.92-2.29,2.92-3.42,1.54-1.73,3.09-3.44,4.77-5,.95-.91,1.84-1.95,2.71-3,1.18-1.38,2.73-2.36,4-3.68a29.11,29.11,0,0,1,3.14-2.52,1.17,1.17,0,0,0,.5-.77L67,36.5A1.79,1.79,0,0,0,67.06,36.73Z"/><path class="a0778d86-1471-4569-8577-ff4fe67e9835" d="M108.25,84.38l.09.68c-.73.23-1.43-.15-2.15-.07A10.05,10.05,0,0,0,105,80.16l-.09-.45c0-.15,0-.3,0-.45.1-.53,0-.93-.64-1h0c0-.38.14-.87-.49-.95h0c.09-1.45-1.13-2.23-1.7-3.34a.7.7,0,0,0-.48-.72l-.08-.46.37,0,.67.26c.63,1.17.73-.46,1.19-.22,1.17,1.4,1.6,3.17,2.34,4.77a21.8,21.8,0,0,1,1.74,6.5C107.85,84.29,107.9,84.51,108.25,84.38Z"/><path class="a0778d86-1471-4569-8577-ff4fe67e9835" d="M103.74,72.76c-.46-.24-.56,1.39-1.19.22.17-1.14-1-1.64-1.25-2.6,0-.33-.1-.49-.42-.52h0a18.87,18.87,0,0,0-3.6-5.28L95.1,61.24c.35,0,.49-.21.52-.53a20.46,20.46,0,0,1,3.21,4,80.7,80.7,0,0,1,4.85,7.55A1.41,1.41,0,0,1,103.74,72.76Z"/><path class="b705438e-a9d4-4949-8fd2-a4a20d559914" d="M97.28,64.58a18.87,18.87,0,0,1,3.6,5.28c-1.21-.57-2-1.7-3-2.54a42.49,42.49,0,0,0-4.28-3.51c-.11-.07-.14-.27-.21-.41,1.07-.15,1.8.69,2.73,1A3.71,3.71,0,0,0,97.28,64.58Z"/><path class="a0778d86-1471-4569-8577-ff4fe67e9835" d="M100.88,69.86c.32,0,.47.19.42.52A.45.45,0,0,1,100.88,69.86Z"/><path class="b705438e-a9d4-4949-8fd2-a4a20d559914" d="M102.07,74c.57,1.11,1.79,1.89,1.7,3.34h-.72l0-.46a4.33,4.33,0,0,0-2.15-2.17h0c.08-.56-.28-.88-.63-1.21A32.49,32.49,0,0,0,96,70.39c-1.1-.77-2.62-.74-3.7-1.42a18.45,18.45,0,0,0-5.4-1.87,54.46,54.46,0,0,0-8.65-1.24A80.35,80.35,0,0,0,69,65.62c-5.55.1-11.11-.08-16.64.62-1.21.16-2.44.15-3.66.39-1.65.33-3.34.37-5,.79-1.12.29-2.38-.15-3.51.47a.62.62,0,0,1-.86-.17c-.2-.33,0-.57.25-.83,1-1.21,2-2.47,3-3.66a30.94,30.94,0,0,0,2.91-3.93c3.4.52,6.88.26,10.25,1.13a5.11,5.11,0,0,0,1.3.07c3.48,0,6.89.81,10.36,1a15.18,15.18,0,0,0,2,.16,6.15,6.15,0,0,1,2.27.44,58.92,58.92,0,0,0,7,1.24c1.08.2,2.11.6,3.21.82a51.09,51.09,0,0,1,5.75,1.48c4.39,1.42,8.65,3,12.16,6.14a2.49,2.49,0,0,0,1.72.94c0,.15,0,.31.08.46a.47.47,0,0,0-.14.7C101.54,74,101.86,74,102.07,74Z"/><path class="b8a5b3a7-3960-4a5f-b773-9554ac588764" d="M45.45,59.3a30.94,30.94,0,0,1-2.91,3.93c-1,1.19-2,2.45-3,3.66-.22.26-.45.5-.25.83a.62.62,0,0,0,.86.17c1.13-.62,2.39-.18,3.51-.47,1.66-.42,3.35-.46,5-.79,1.22-.24,2.45-.23,3.66-.39,5.53-.7,11.09-.52,16.64-.62a80.35,80.35,0,0,1,9.31.24,54.46,54.46,0,0,1,8.65,1.24A18.45,18.45,0,0,1,92.32,69c1.08.68,2.6.65,3.7,1.42a32.49,32.49,0,0,1,4.23,3.06c.35.33.71.65.63,1.21-.66.09-1.11-.36-1.62-.65a38.26,38.26,0,0,0-8.49-3.93c-1.12-.32-2.25-.69-3.4-1-3-.68-6.15-.65-9.19-1.07a59.66,59.66,0,0,0-9.62-.28,81.09,81.09,0,0,0-9.63.55c-1.91.28-3.91-.08-5.8.74-1,.43-2.27.09-3.43.29-2.86.48-5.73.94-8.6,1.45-2.24.4-4.44,1-6.64,1.53a9.41,9.41,0,0,0-3,.81,1.94,1.94,0,0,1-1.53,0,64.25,64.25,0,0,1,4-5.45c1-1.26,1.93-2.64,3-3.83s1.72-2.34,2.76-3.34a1.86,1.86,0,0,0,.75-1.65Z"/><path class="f117cd0c-5fc0-451e-ad24-4466127a50c8" d="M100.88,74.66A4.33,4.33,0,0,1,103,76.83C101.44,77,101.42,75.56,100.88,74.66Z"/><path class="b705438e-a9d4-4949-8fd2-a4a20d559914" d="M104.27,78.24c.62.09.74.49.64,1l-.66,0C104.26,78.89,104.27,78.57,104.27,78.24Z"/><path class="b705438e-a9d4-4949-8fd2-a4a20d559914" d="M104.27,78.24c0,.33,0,.65,0,1-.8-.12-.38-.77-.51-1.18h0l.5.21Z"/><path class="b705438e-a9d4-4949-8fd2-a4a20d559914" d="M103.05,77.29h.72c0,.25,0,.49,0,.74h0A.66.66,0,0,1,103.05,77.29Z"/><path class="f117cd0c-5fc0-451e-ad24-4466127a50c8" d="M104.93,79.71l.09.45c-.18,0-.43,0-.43-.23C104.59,79.86,104.81,79.78,104.93,79.71Z"/><path class="b8a5b3a7-3960-4a5f-b773-9554ac588764" d="M70.25,20.32a13.22,13.22,0,0,1,4,3.92c-1,.88-2,1.78-3,2.65s-1.08,1.33.16,2.16a25.71,25.71,0,0,1,4.1,3c1.67,1.72,3.71,3,5.34,4.73S84.75,40,86.4,42a28.08,28.08,0,0,0,2.17,2.2,20.63,20.63,0,0,1,2.78,2.74c.94,1.32,2.21,2.31,3.12,3.64,1.55,2.28,3.43,4.34,4.94,6.63a51.4,51.4,0,0,1,4.57,8c1.07,2.49,2.23,5,3.1,7.52-1.31-.17-1.16-1.43-1.48-2.21A33.65,33.65,0,0,0,102.12,64c-1.44-2-2.85-4.14-4.42-6.1-1.85-2.3-3.76-4.57-5.73-6.76a45.2,45.2,0,0,0-5.34-5.38,14.47,14.47,0,0,1-2.92-2.88c-1-1.37-2.51-2.18-3.75-3.3-2.65-2.39-5.46-4.59-8.33-6.73-2.62-2-5.27-3.88-8-5.64-.36-.23-.87-.48-.79-1S63.52,25.34,64,25C66.06,23.4,68.37,22.15,70.25,20.32Z"/><path class="b705438e-a9d4-4949-8fd2-a4a20d559914" d="M107.08,72.76c-.87-2.57-2-5-3.1-7.52a51.4,51.4,0,0,0-4.57-8C97.9,54.9,96,52.84,94.47,50.56c-.91-1.33-2.18-2.32-3.12-3.64a20.63,20.63,0,0,0-2.78-2.74A28.08,28.08,0,0,1,86.4,42c-1.65-2-3.83-3.34-5.55-5.2s-3.67-3-5.34-4.73a25.71,25.71,0,0,0-4.1-3c-1.24-.83-1.29-1.2-.16-2.16s2-1.77,3-2.65c1.4.62,2.1,2,3.11,3,1.18,1.18,2.38,2.34,3.55,3.53s1.76,2.67,3.13,3.57l.41.08a2,2,0,0,0,.59,1.27c2.24,2.7,4.45,5.42,6.58,8.22s4.21,5.26,6.14,8,3.66,5.33,5.32,8.11a73,73,0,0,1,3.36,7.1,16.93,16.93,0,0,1,.71,2.63,12.26,12.26,0,0,1,.66,4.66l-.71,0Z"/><path class="a0778d86-1471-4569-8577-ff4fe67e9835" d="M95.62,60.71c0,.32-.17.52-.52.53-.16-.31-.75-.22-.71-.73a.7.7,0,0,0-.48-.72c-1.15-.45-1.55-1.63-2.31-2.45-1.59-1.72-3.22-3.38-4.91-5-1.93-1.84-3.75-3.81-5.84-5.46-1-.81-2-1.75-3.09-2.48-1.71-1.09-3.29-2.41-4.92-3.64s-3.67-2.47-5.32-4c-.1-.09-.31-.06-.46-.09a1.79,1.79,0,0,1,0-.23c0-.35.23-.46.53-.51l.18.06c.1.56.54.64,1,.69a61.36,61.36,0,0,1,6.94,4.82,97.14,97.14,0,0,1,9.68,7.86c3,2.93,6.18,5.81,8.6,9.33,0,.35.08.55.47.53h0c0,.49.22.72.69.75h0a.42.42,0,0,0,.43.5A.44.44,0,0,1,95.62,60.71Z"/><path class="b705438e-a9d4-4949-8fd2-a4a20d559914" d="M107.13,74.41l.71,0c0,.38,0,.76,0,1.14,0,.18,0,.37-.07.55C107,75.77,107.41,75,107.13,74.41Z"/><path class="b705438e-a9d4-4949-8fd2-a4a20d559914" d="M107.82,76.12c0-.18,0-.37.07-.55.77.56.31,1.33.35,2C107.54,77.26,108,76.61,107.82,76.12Z"/><path class="a0778d86-1471-4569-8577-ff4fe67e9835" d="M68.74,36.74c-.45-.05-.89-.13-1-.69C68.18,36.13,68.61,36.22,68.74,36.74Z"/><path class="a0778d86-1471-4569-8577-ff4fe67e9835" d="M95.12,60c-.47,0-.73-.26-.69-.75A.77.77,0,0,1,95.12,60Z"/><path class="a0778d86-1471-4569-8577-ff4fe67e9835" d="M95.55,60.52a.42.42,0,0,1-.43-.5A.44.44,0,0,1,95.55,60.52Z"/><path class="a0778d86-1471-4569-8577-ff4fe67e9835" d="M94.43,59.28c-.39,0-.52-.18-.47-.53A.56.56,0,0,1,94.43,59.28Z"/><path class="f3608ae9-5772-4f83-8032-42da58ee8983" d="M115.55,74.44l-6.37,8.72c-.28-1.5.26-2.7.32-3.94.27,0,.52,0,.71-.28.65-1.06,1.64-1.94,1.75-3.29a.56.56,0,0,1,.24-.4c1.15-.52,1.52-1.77,2.3-2.62s1.54-1.69,1.55-3.09c0-.45.43-.3.63-1,0,.8-.21.53-.2,1.33.21,1.29-1.32,2.34-1.2,3.61C115.11,73.87,114.75,74.32,115.55,74.44Z"/><path class="bdecfdf5-aae3-4f8b-be42-1436033fa46b" d="M116.72,57.15"/><path class="bdecfdf5-aae3-4f8b-be42-1436033fa46b" d="M116.48,59.07"/><path class="a77e8998-1e8a-4ac7-99fc-3f77cf53aab4" d="M112.81,79.91c.86-1.75,2.39-3.27,3.4-4.92.25-.42-.59-.37,0-.58a9.86,9.86,0,0,0,1-1.73c1.31-2.39,3.27-3.5,4.92-5.62a43.9,43.9,0,0,1,4.62-4.63,4.4,4.4,0,0,0,2.56-1c1.23-.82,2.86-.86,3.82-2.1,0-.06.23,0,.34,0,2-.19,3.9-1.26,6-1.25.23,0,.3-.23.33-.44,3.5-.68,7-.44,10.57-.49a.48.48,0,0,0,.56.48,16.44,16.44,0,0,1,4.57.46c1.55.41,3.18.59,4.75.9a66.52,66.52,0,0,1,6.58,2.16,2.31,2.31,0,0,1,1.45,1.32c.81,1.94,1.34,4,2.23,5.89.74,1.59,1.3,3.25,1.94,4.88-2.05.33-4-.34-6-.58-2.55-.32-5.08-.83-7.63-1.18-2.26-.31-4.51-.66-6.77-1a2.72,2.72,0,0,0-.46-.1c-3.62.2-7.21-1-10.79-.44-3.28.53-6.65.23-9.85,1.17-2.17.64-4.31,1.39-6.48,2a23.2,23.2,0,0,0-5.22,2.23c-1.34.73-2.88,1.32-3.86,2.76A4.58,4.58,0,0,1,112.81,79.91Z"/><path class="a0bae2fa-b70d-4ffb-b7da-85311074bbe0" d="M167.16,72.28s-8.24-.22-10.17-1.06c-2.75-.41-2.75-.41-7.71-.89-.25-.58,1.18-5.12.44-5.36-2.2-.69,2.75-3.28.5-3.73-1.57-.31,1.57-1.82,0-2.23s2.19-1.43.65-1.39a.48.48,0,0,1-.56-.48.78.78,0,0,1,.76-.23c2.59.22,5.15-.1,7.8.56,2.47.62,5.12.84,7.64,1.4,2.82.62,5.75.75,8.43,2,.71.33,1.65.08,2.33.73a11.46,11.46,0,0,1,2,2.75c.79,1.44,1.48,2.93,2.33,4.34a27.6,27.6,0,0,1,3.09,5.64,2.11,2.11,0,0,0,.58.73c.26.25.42.53.21.84s-.58.23-.88.14a69.25,69.25,0,0,0-7.93-1.63,8.75,8.75,0,0,0-2.65-.49,3.06,3.06,0,0,0-1.15.26C172.13,73.79,167.42,72.55,167.16,72.28Z"/><path class="f3608ae9-5772-4f83-8032-42da58ee8983" d="M139.75,57.63c0,.21-.1.44-.33.44-2.09,0-3.94,1.06-6,1.25-.11,0-.29,0-.34,0-1,1.24-2.59,1.28-3.82,2.1a4.4,4.4,0,0,1-2.56,1,9.39,9.39,0,0,1,2-2.41h0c1.07.27,1.87-.54,2.87-.69,1.53-.23,3-.91,4.49-1.28A14.83,14.83,0,0,1,139.75,57.63Z"/><path class="bd1dfbf4-93a2-48bb-be0b-fc3d7973dfef" d="M173.59,76.11c-.63-.39-.62-1.06-.72-1.68A1.65,1.65,0,0,1,173.59,76.11Z"/><path class="f3608ae9-5772-4f83-8032-42da58ee8983" d="M115.55,74.44c-.8-.12-.44-.57-.27-1,.31.21.21.56.28.85A.11.11,0,0,1,115.55,74.44Z"/><path class="a5414a27-3b09-455e-bbba-2990aefa98db" d="M94.08,95.21a1.44,1.44,0,0,1,.43-.91c.66,0,.65.67,1,1.08C95,95.56,94.48,95.7,94.08,95.21Z"/><path class="e1cfb4f7-b11b-45fe-b971-82565db6ff3f" d="M108.51,85l.55,0-.09.54A.49.49,0,0,1,108.51,85Z"/><path class="f26b21cb-3d8e-46fb-9cdb-98b06f174d59" d="M85.78,88.12c-.6.58-1.21,0-1.8,0-1-.1-2-.29-3-.44C82.43,85.83,84,86,85.78,88.12Z"/><path class="a0778d86-1471-4569-8577-ff4fe67e9835" d="M93.91,59.79a.7.7,0,0,1,.48.72C93.91,60.49,93.91,60.14,93.91,59.79Z"/><path class="b705438e-a9d4-4949-8fd2-a4a20d559914" d="M102.07,74c-.21,0-.53.09-.62,0a.47.47,0,0,1,.14-.7A.7.7,0,0,1,102.07,74Z"/><path class="b705438e-a9d4-4949-8fd2-a4a20d559914" d="M103.76,78c0-.25,0-.49,0-.74.63.08.45.57.49.95Z"/><path class="f117cd0c-5fc0-451e-ad24-4466127a50c8" d="M172.42,74l-5.26-1.76-5.9-.34-4.12-.66-7.86-1L149,72.61,160.44,74l6.68,1.2,3.56.75,2.9.39.21.49,1,0,.27-.23-1.87-2A1.9,1.9,0,0,0,172.42,74Z"/></g></svg>